<svg width="57" height="50" viewBox="0 0 57 50" fill="none" xmlns="http://www.w3.org/2000/svg">
<path d="M2 31C2 31.7956 2.23413 32.5587 2.65087 33.1213C3.06762 33.6839 3.63285 34 4.22222 34H19.7778C20.3671 34 20.9324 33.6839 21.3491 33.1213C21.7659 32.5587 22 31.7956 22 31V28H2V31Z" fill="#138808"/>
<path d="M2 22H22V28H2V22Z" fill="#EEEEEE"/>
<path d="M22 22V19C22 18.2044 21.7659 17.4413 21.3491 16.8787C20.9324 16.3161 20.3671 16 19.7778 16H4.22222C3.63285 16 3.06762 16.3161 2.65087 16.8787C2.23413 17.4413 2 18.2044 2 19L2 22H22Z" fill="#FF9933"/>
<path d="M12 27.6667C13.4728 27.6667 14.6667 26.4728 14.6667 25C14.6667 23.5272 13.4728 22.3333 12 22.3333C10.5273 22.3333 9.33337 23.5272 9.33337 25C9.33337 26.4728 10.5273 27.6667 12 27.6667Z" fill="#000080"/>
<path d="M12 27C13.1046 27 14 26.1046 14 25C14 23.8954 13.1046 23 12 23C10.8954 23 10 23.8954 10 25C10 26.1046 10.8954 27 12 27Z" fill="#EEEEEE"/>
<path d="M12 23L12.0973 24.5093L12.7647 23.1527L12.278 24.584L13.414 23.5853L12.416 24.722L13.8473 24.2347L12.4907 24.9027L14 25L12.4907 25.0973L13.8473 25.7647L12.416 25.278L13.414 26.414L12.278 25.416L12.7647 26.8473L12.0973 25.4907L12 27L11.9027 25.4907L11.2347 26.8473L11.722 25.416L10.5853 26.414L11.584 25.278L10.1527 25.7647L11.5093 25.0973L10 25L11.5093 24.9027L10.1527 24.2347L11.584 24.722L10.5853 23.5853L11.722 24.584L11.2347 23.1527L11.9027 24.5093L12 23Z" fill="#6666B3"/>
<path d="M12 25.6667C12.3682 25.6667 12.6667 25.3682 12.6667 25C12.6667 24.6318 12.3682 24.3333 12 24.3333C11.6319 24.3333 11.3334 24.6318 11.3334 25C11.3334 25.3682 11.6319 25.6667 12 25.6667Z" fill="#000080"/>
<path d="M31 22L36 27L41 22H31Z" fill="#2A2A2A"/>
</svg>
