<svg width="20" height="20" viewBox="0 0 20 20" fill="none" xmlns="http://www.w3.org/2000/svg">
<path d="M10.0004 0.400024C11.2734 0.400024 12.4943 0.905737 13.3945 1.80591C14.2947 2.70609 14.8004 3.92699 14.8004 5.20002C14.8004 6.47306 14.2947 7.69396 13.3945 8.59414C12.4943 9.49431 11.2734 10 10.0004 10C8.72735 10 7.50645 9.49431 6.60628 8.59414C5.7061 7.69396 5.20039 6.47306 5.20039 5.20002C5.20039 3.92699 5.7061 2.70609 6.60628 1.80591C7.50645 0.905737 8.72735 0.400024 10.0004 0.400024ZM10.0004 12.4C15.3044 12.4 19.6004 14.548 19.6004 17.2V19.6H0.400391V17.2C0.400391 14.548 4.69639 12.4 10.0004 12.4Z" fill="#0A181D"/>
</svg>
