<svg width="24" height="24" viewBox="0 0 24 24" fill="none" xmlns="http://www.w3.org/2000/svg">
<path d="M17.03 20.5H16.53V21C16.53 21.2784 16.31 21.5 16 21.5C15.75 21.5 15.5 21.2784 15.5 21V20.5H15H9H8.5V21C8.5 21.2784 8.25003 21.5 8 21.5C7.68997 21.5 7.47 21.2784 7.47 21V20.5H6.97C6.16779 20.5 5.5 19.8555 5.5 19V8C5.5 7.15285 6.16942 6.5 6.97 6.5H9H9.5V6V3C9.5 2.70914 9.72296 2.5 10 2.5H14C14.277 2.5 14.5 2.70914 14.5 3V6V6.5H15H17.03C17.8306 6.5 18.5 7.15285 18.5 8V19C18.5 19.8555 17.8322 20.5 17.03 20.5ZM13.5 6.5H14V6V3.5V3H13.5H10.5H10V3.5V6V6.5H10.5H13.5ZM8 8.5H7.5V9V18V18.5H8H9.5H10V18V9V8.5H9.5H8ZM14.5 8.5H14V9V18V18.5H14.5H16H16.5V18V9V8.5H16H14.5ZM10.75 8.5V9V18V18.5H11.25H12.75H13.25V18V9V8.5H12.75H11.25H10.75Z" fill="#43474B" stroke="#43474B"/>
</svg>
