<svg width="20" height="20" viewBox="0 0 20 20" fill="none" xmlns="http://www.w3.org/2000/svg">
<path d="M17.5 11V11.5H18H19.5V17C19.5 17.8239 18.8239 18.5 18 18.5H17.5V19C17.5 19.2739 17.2739 19.5 17 19.5H3C2.72614 19.5 2.5 19.2739 2.5 19V18.5H2C1.17614 18.5 0.5 17.8239 0.5 17V11.5H3H3.5V11V10.25C3.5 9.27469 4.27759 8.5 5.24 8.5C5.5132 8.5 5.77887 8.56233 6.02222 8.68008L6.02218 8.68015L6.03047 8.68398C6.25411 8.7872 6.4204 8.89819 6.54452 9.04844L6.55155 9.05695L6.55895 9.06514L7.95895 10.6151L7.95892 10.6152L7.96312 10.6197C8.23505 10.9134 8.53157 11.1774 8.86327 11.4096L8.99239 11.5H9.15H16H16.5V11V2.83C16.5 2.09386 15.9061 1.5 15.17 1.5C14.8152 1.5 14.4787 1.64421 14.2364 1.88644L14.235 1.88786L12.985 3.14786L12.7866 3.3479L12.8549 3.62127C12.8901 3.76183 12.91 3.87749 12.91 4C12.91 4.06156 12.9062 4.1222 12.8988 4.18174L11.2278 2.51073C11.287 2.50365 11.3476 2.5 11.41 2.5C11.5336 2.5 11.6532 2.52048 11.7709 2.55724L12.0596 2.64748L12.2736 2.43355L13.5236 1.18355C13.9603 0.746786 14.5534 0.5 15.17 0.5C16.4539 0.5 17.5 1.54614 17.5 2.83V11ZM5 3.5C5.83223 3.5 6.5 4.17451 6.5 5C6.5 5.82549 5.83223 6.5 5 6.5C4.16614 6.5 3.5 5.83386 3.5 5C3.5 4.16777 4.17451 3.5 5 3.5Z" fill="#43474B" stroke="#43474B"/>
</svg>
