<svg width="24" height="24" viewBox="0 0 24 24" fill="none" xmlns="http://www.w3.org/2000/svg">
<path d="M11.0909 14.5H11.5909V14V7.5H18.3636C19.1792 7.5 19.9723 7.85597 20.565 8.50791C21.1591 9.16143 21.5 10.0572 21.5 11V16.5H20.1818H3.81818H2.5V6.5H3.31818V14V14.5H3.81818H11.0909ZM9.01305 11.785C8.59087 12.2494 8.02904 12.5 7.45455 12.5C6.88005 12.5 6.31822 12.2494 5.89604 11.785C5.47242 11.319 5.22727 10.6776 5.22727 10C5.22727 9.32239 5.47242 8.681 5.89604 8.21502C6.31822 7.75062 6.88005 7.5 7.45455 7.5C8.02904 7.5 8.59087 7.75062 9.01305 8.21502C9.43667 8.681 9.68182 9.32239 9.68182 10C9.68182 10.6776 9.43667 11.319 9.01305 11.785Z" fill="#43474B" stroke="#43474B"/>
</svg>
