<svg width="41" height="40" viewBox="0 0 41 40" fill="none" xmlns="http://www.w3.org/2000/svg">
<path d="M20.1632 0.0800781C9.08832 0.0800781 0.0270996 9.06008 0.0270996 20.1201C0.0270996 30.1201 7.39689 38.4201 17.0219 39.9201V25.9201H11.9074V20.1201H17.0219V15.7001C17.0219 10.6801 20.0222 7.92008 24.6334 7.92008C26.8282 7.92008 29.1237 8.30008 29.1237 8.30008V13.2401H26.5866C24.0897 13.2401 23.3044 14.7801 23.3044 16.3601V20.1201H28.9022L27.9961 25.9201H23.3044V39.9201C28.0493 39.1758 32.37 36.7711 35.4865 33.1402C38.603 29.5093 40.31 24.8914 40.2992 20.1201C40.2992 9.06008 31.238 0.0800781 20.1632 0.0800781Z" fill="white"/>
</svg>
