<svg width="20" height="10" viewBox="0 0 20 10" fill="none" xmlns="http://www.w3.org/2000/svg">
<path d="M12.2309 7.7178L12.082 7.5H11.8182H8.18182H7.91798L7.76907 7.7178C7.02306 8.80894 5.85121 9.5 4.54545 9.5C4.02118 9.5 3.50071 9.38648 3.0133 9.1644C2.52572 8.94224 2.07943 8.61513 1.7013 8.1992C0.936703 7.35814 0.5 6.20804 0.5 5C0.5 3.79196 0.936703 2.64186 1.7013 1.8008C2.46446 0.961329 3.48874 0.5 4.54545 0.5H15.4545C15.9788 0.5 16.4993 0.613515 16.9867 0.835599C17.4743 1.05776 17.9206 1.38487 18.2987 1.8008C18.6769 2.21683 18.9791 2.71325 19.1861 3.26278C19.393 3.81235 19.5 4.40278 19.5 5C19.5 5.59722 19.393 6.18765 19.1861 6.73722C18.9791 7.28675 18.6769 7.78317 18.2987 8.1992C17.9206 8.61513 17.4743 8.94224 16.9867 9.1644C16.4993 9.38648 15.9788 9.5 15.4545 9.5C14.1488 9.5 12.9769 8.80894 12.2309 7.7178ZM3.63636 1.5H3.13636V2V3.5H1.81818H1.31818V4V6V6.5H1.81818H3.13636V8V8.5H3.63636H5.45455H5.95455V8V6.5H7.27273H7.77273V6V4V3.5H7.27273H5.95455V2V1.5H5.45455H3.63636ZM13.5992 5.02978L13.9692 5.36612L13.5992 5.02978C13.2983 5.36082 13.1364 5.80044 13.1364 6.25C13.1364 6.69956 13.2983 7.13918 13.5992 7.47022L13.9692 7.13388L13.5992 7.47022C13.9016 7.80285 14.3225 8 14.7727 8C15.2229 8 15.6438 7.80285 15.9462 7.47022C16.2472 7.13918 16.4091 6.69956 16.4091 6.25C16.4091 5.83549 16.2714 5.42943 16.0141 5.10914C16.1311 5.21068 16.2619 5.29541 16.4033 5.35985C16.6052 5.45185 16.8236 5.5 17.0455 5.5C17.2673 5.5 17.4857 5.45185 17.6876 5.35985C17.8894 5.26791 18.0695 5.13465 18.219 4.97022C18.3684 4.80588 18.4846 4.61331 18.5632 4.40455C18.6418 4.19583 18.6818 3.97354 18.6818 3.75C18.6818 3.30044 18.5199 2.86082 18.219 2.52978C17.9166 2.19715 17.4957 2 17.0455 2C16.5953 2 16.1743 2.19715 15.872 2.52978C15.571 2.86082 15.4091 3.30044 15.4091 3.75C15.4091 3.97354 15.4491 4.19583 15.5277 4.40455C15.594 4.58061 15.6871 4.74517 15.8042 4.89098C15.5184 4.64303 15.1562 4.5 14.7727 4.5C14.3225 4.5 13.9016 4.69715 13.5992 5.02978Z" fill="#43474B" stroke="#43474B"/>
</svg>
