<svg width="36" height="38" viewBox="0 0 36 38" fill="none" xmlns="http://www.w3.org/2000/svg">
<path d="M35.3656 11.6109C35.3458 10.0961 35.068 8.59644 34.5447 7.17889C34.0908 5.98319 33.3977 4.89729 32.5094 3.99055C31.6212 3.08382 30.5575 2.37619 29.3862 1.91289C28.0154 1.3876 26.5672 1.10357 25.1034 1.07289C23.2186 0.986891 22.6211 0.962891 17.8368 0.962891C13.0524 0.962891 12.4392 0.962891 10.5682 1.07289C9.105 1.1038 7.65754 1.38783 6.28738 1.91289C5.11591 2.37587 4.052 3.08338 3.16373 3.99016C2.27546 4.89693 1.58238 5.98301 1.12885 7.17889C0.613258 8.57716 0.335626 10.0551 0.307956 11.5489C0.223712 13.4749 0.198242 14.0849 0.198242 18.9689C0.198242 23.8529 0.198242 24.4769 0.307956 26.3889C0.337344 27.8849 0.613589 29.3609 1.12885 30.7629C1.58315 31.9584 2.27673 33.044 3.1653 33.9504C4.05387 34.8568 5.11788 35.564 6.28934 36.0269C7.65574 36.5733 9.10346 36.8777 10.5702 36.9269C12.4569 37.0129 13.0544 37.0389 17.8387 37.0389C22.6231 37.0389 23.2363 37.0389 25.1073 36.9269C26.5711 36.8975 28.0194 36.6141 29.3901 36.0889C30.5611 35.6251 31.6245 34.9172 32.5127 34.0106C33.4009 33.1039 34.0942 32.0183 34.5486 30.8229C35.0639 29.4229 35.3401 27.9469 35.3695 26.4489C35.4537 24.5249 35.4792 23.9149 35.4792 19.0289C35.4753 14.1449 35.4753 13.5249 35.3656 11.6109ZM17.825 28.2049C12.8213 28.2049 8.76771 24.0669 8.76771 18.9589C8.76771 13.8509 12.8213 9.71289 17.825 9.71289C20.2272 9.71289 22.5309 10.687 24.2295 12.421C25.9281 14.1549 26.8823 16.5067 26.8823 18.9589C26.8823 21.4111 25.9281 23.7628 24.2295 25.4968C22.5309 27.2308 20.2272 28.2049 17.825 28.2049ZM27.2428 11.5269C26.9654 11.5272 26.6906 11.4716 26.4343 11.3633C26.1779 11.2551 25.945 11.0963 25.7488 10.896C25.5527 10.6957 25.3971 10.458 25.2911 10.1963C25.185 9.93457 25.1306 9.65409 25.1308 9.37089C25.1308 9.08789 25.1854 8.80766 25.2915 8.54621C25.3976 8.28475 25.5531 8.04719 25.7491 7.84708C25.9451 7.64697 26.1779 7.48823 26.434 7.37993C26.6901 7.27163 26.9646 7.21589 27.2418 7.21589C27.5191 7.21589 27.7936 7.27163 28.0497 7.37993C28.3058 7.48823 28.5385 7.64697 28.7346 7.84708C28.9306 8.04719 29.0861 8.28475 29.1922 8.54621C29.2982 8.80766 29.3529 9.08789 29.3529 9.37089C29.3529 10.5629 28.4085 11.5269 27.2428 11.5269Z" fill="white"/>
</svg>
