<svg width="20" height="19" viewBox="0 0 20 19" fill="none" xmlns="http://www.w3.org/2000/svg">
<path d="M7.52391 4.70505L7.77273 4.56049L7.77273 4.27272L7.77273 2.63636L7.77273 2.63493L7.77273 2.63347L7.77273 2.63198L7.77273 2.63046L7.77273 2.6289L7.77273 2.62732L7.77273 2.6257L7.77273 2.62405L7.77273 2.62237L7.77273 2.62066L7.77273 2.61892L7.77273 2.61715L7.77273 2.61535L7.77273 2.61352L7.77273 2.61166L7.77273 2.60976L7.77273 2.60784L7.77273 2.60589L7.77273 2.60391L7.77273 2.6019L7.77273 2.59986L7.77273 2.59779L7.77273 2.5957L7.77273 2.59357L7.77273 2.59142L7.77273 2.58923L7.77273 2.58702L7.77273 2.58478L7.77273 2.58252L7.77273 2.58022L7.77273 2.5779L7.77273 2.57555L7.77273 2.57316L7.77273 2.57076L7.77273 2.56833L7.77273 2.56586L7.77273 2.56338L7.77273 2.56086L7.77273 2.55832L7.77273 2.55575L7.77273 2.55316L7.77273 2.55053L7.77273 2.54789L7.77273 2.54521L7.77273 2.54251L7.77273 2.53979L7.77273 2.53704L7.77273 2.53426L7.77273 2.53146L7.77273 2.52863L7.77273 2.52578L7.77273 2.5229L7.77273 2.52L7.77273 2.51707L7.77273 2.51412L7.77273 2.51114L7.77273 2.50814L7.77273 2.50512L7.77273 2.50207L7.77273 2.49899L7.77273 2.4959L7.77273 2.49278L7.77273 2.48963L7.77273 2.48646L7.77273 2.48328L7.77273 2.48006L7.77273 2.47682L7.77273 2.47356L7.77273 2.47028L7.77273 2.46698L7.77273 2.46365L7.77273 2.4603L7.77273 2.45693L7.77273 2.45353L7.77273 2.45012L7.77273 2.44668L7.77273 2.44322L7.77273 2.43974L7.77273 2.43624L7.77273 2.43272L7.77273 2.42917L7.77273 2.4256L7.77273 2.42202L7.77273 2.41841L7.77273 2.41478L7.77273 2.41114L7.77273 2.40747L7.77273 2.40378L7.77273 2.40007L7.77273 2.39634L7.77273 2.3926L7.77273 2.38883L7.77273 2.38504L7.77273 2.38124L7.77273 2.37741L7.77273 2.37357L7.77273 2.3697L7.77273 2.36582L7.77273 2.36192L7.77273 2.358L7.77273 2.35406L7.77273 2.35011L7.77273 2.34613L7.77273 2.34214L7.77273 2.33813L7.77273 2.3341L7.77273 2.33006L7.77273 2.32599L7.77273 2.32191L7.77273 2.31782L7.77273 2.3137L7.77273 2.30957L7.77273 2.30542L7.77273 2.30126L7.77273 2.29708L7.77273 2.29288L7.77273 2.28867L7.77273 2.28444L7.77273 2.28019L7.77273 2.27593L7.77273 2.27165L7.77273 2.26736L7.77273 2.26305L7.77273 2.25873L7.77273 2.25439L7.77273 2.25004L7.77273 2.24567L7.77273 2.24129L7.77273 2.23689L7.77273 2.23248L7.77273 2.22805L7.77273 2.22361L7.77273 2.21916L7.77273 2.21469L7.77273 2.21021L7.77273 2.20571L7.77273 2.2012L7.77273 2.19668L7.77273 2.19214L7.77273 2.18759L7.77273 2.18303L7.77273 2.17846L7.77273 2.17387L7.77273 2.16927L7.77273 2.16465L7.77273 2.16003L7.77273 2.15539L7.77273 2.15074L7.77273 2.14608L7.77273 2.14141L7.77273 2.13673L7.77273 2.13203L7.77273 2.12732L7.77273 2.12261L7.77273 2.11788L7.77273 2.11314L7.77273 2.10839L7.77273 2.10363L7.77273 2.09885L7.77273 2.09407L7.77273 2.08928L7.77273 2.08447L7.77273 2.07966L7.77273 2.07484L7.77273 2.07001L7.77273 2.06516L7.77273 2.06031L7.77273 2.05545L7.77273 2.05058L7.77273 2.0457L7.77273 2.04081L7.77273 2.03592L7.77273 2.03101L7.77273 2.0261L7.77273 2.02118L7.77273 2.01625L7.77273 2.01131L7.77273 2.00636L7.77273 2.00141L7.77273 1.99645L7.77273 1.99148L7.77273 1.9865L7.77273 1.98152L7.77273 1.97653L7.77273 1.97153L7.77273 1.96652L7.77273 1.96151L7.77273 1.95649L7.77273 1.95147L7.77273 1.94644L7.77273 1.9414L7.77273 1.93635L7.77273 1.93131L7.77273 1.92625L7.77273 1.92119L7.77273 1.91612L7.77273 1.91105L7.77273 1.90598L7.77273 1.90089L7.77273 1.89581L7.77273 1.89072L7.77273 1.88562L7.77273 1.88052L7.77273 1.87541L7.77273 1.8703L7.77273 1.86519L7.77273 1.86007L7.77273 1.85495L7.77273 1.84982L7.77273 1.84469L7.77273 1.83956L7.77273 1.83443L7.77273 1.82929L7.77273 1.82415L7.77273 1.819L7.77273 1.81385L7.77273 1.8087L7.77273 1.80355L7.77273 1.79839L7.77273 1.79323L7.77273 1.78808L7.77273 1.78291L7.77273 1.77775L7.77273 1.77258L7.77273 1.76742L7.77273 1.76225L7.77273 1.75708L7.77273 1.75191L7.77273 1.74674L7.77273 1.74156L7.77273 1.73639L7.77273 1.73122L7.77273 1.72604L7.77273 1.72087L7.77273 1.71569L7.77273 1.71051L7.77273 1.70534L7.77273 1.70016L7.77273 1.69499L7.77273 1.68982L7.77273 1.68464L7.77273 1.67947L7.77273 1.6743L7.77273 1.66913L7.77273 1.66395L7.77273 1.65879L7.77273 1.65362L7.77273 1.64845L7.77273 1.64329L7.77273 1.63813L7.77273 1.63297L7.77273 1.62781L7.77273 1.62265L7.77273 1.6175L7.77273 1.61235L7.77273 1.6072L7.77273 1.60205L7.77273 1.59691L7.77273 1.59177L7.77273 1.58663L7.77273 1.5815L7.77273 1.57637L7.77273 1.57124L7.77273 1.56612L7.77273 1.561L7.77273 1.55589L7.77273 1.55077L7.77273 1.54567L7.77273 1.54057L7.77273 1.53547L7.77273 1.53038L7.77273 1.52529L7.77273 1.5202L7.77273 1.51512L7.77273 1.51005L7.77273 1.50498L7.77273 1.49992L7.77273 1.49487L7.77273 1.48981L7.77273 1.48477L7.77273 1.47973L7.77273 1.4747L7.77273 1.46967L7.77273 1.46465L7.77273 1.45964L7.77273 1.45463L7.77273 1.44963L7.77273 1.44464L7.77273 1.43965L7.77273 1.43467L7.77273 1.4297L7.77273 1.42474L7.77273 1.41978L7.77273 1.41483L7.77273 1.40989L7.77273 1.40496L7.77273 1.40003L7.77273 1.39512L7.77273 1.39021L7.77273 1.38531L7.77273 1.38042L7.77273 1.37554L7.77273 1.37067L7.77273 1.3658L7.77273 1.36095L7.77273 1.3561L7.77273 1.35127L7.77273 1.34644L7.77273 1.34163L7.77273 1.33682L7.77273 1.33203L7.77273 1.32724L7.77273 1.32247L7.77273 1.3177L7.77273 1.31295L7.77273 1.30821L7.77273 1.30347L7.77273 1.29875L7.77273 1.29404L7.77273 1.28934L7.77273 1.28466L7.77273 1.27998L7.77273 1.27532L7.77273 1.27066L7.77273 1.26602L7.77273 1.26139L7.77273 1.25886L8.11059 1.25886L12 1.25886L12.2273 1.25886L12.2273 1.6072L12.2273 2.63636L12.2273 4.27273L12.2273 4.56049L12.4761 4.70505C13.9564 5.56512 14.9545 7.16799 14.9545 9C14.9545 10.314 14.4326 11.5742 13.5034 12.5034C12.5742 13.4325 11.314 13.9545 10 13.9545C8.68597 13.9545 7.42576 13.4325 6.49661 12.5034C5.56745 11.5742 5.04545 10.314 5.04545 9C5.04546 7.16799 6.0436 5.56512 7.52391 4.70505ZM2.22727 9.40909L0.500001 9.40909L0.500001 8.59091L2.22727 8.59091L2.22727 9.40909ZM19.5 9.40909L17.7727 9.40909L17.7727 8.59091L19.5 8.59091L19.5 9.40909ZM9.59091 18.5L9.59091 16.7727L10.4091 16.7727L10.4091 18.5L9.59091 18.5ZM17.0206 15.4293L16.436 16.0181L15.2075 14.7839L15.7905 14.205L17.0206 15.4293ZM4.20826 14.2063L4.79372 14.7917L3.5719 16.0193L2.98067 15.4281L4.20826 14.2063Z" fill="#43474B" stroke="#43474B"/>
</svg>
