<svg width="16" height="20" viewBox="0 0 16 20" fill="none" xmlns="http://www.w3.org/2000/svg">
<path d="M4.5 3C4.5 2.60217 4.34196 2.22064 4.06066 1.93934C3.77936 1.65804 3.39783 1.5 3 1.5C2.60217 1.5 2.22064 1.65804 1.93934 1.93934C1.65804 2.22064 1.5 2.60217 1.5 3C1.5 3.39783 1.65804 3.77936 1.93934 4.06066C2.22064 4.34196 2.60217 4.5 3 4.5C3.39783 4.5 3.77936 4.34196 4.06066 4.06066C4.34196 3.77936 4.5 3.39783 4.5 3ZM4.5 3C4.5 2.60217 4.65804 2.22064 4.93934 1.93934C5.22064 1.65804 5.60218 1.5 6 1.5C6.39782 1.5 6.77936 1.65804 7.06066 1.93934C7.34196 2.22064 7.5 2.60217 7.5 3C7.5 3.39783 7.34196 3.77936 7.06066 4.06066C6.77936 4.34196 6.39782 4.5 6 4.5C5.60218 4.5 5.22064 4.34196 4.93934 4.06066C4.65804 3.77936 4.5 3.39783 4.5 3ZM5.90231 14.8048L10.8048 9.90231C11.8306 11.2727 11.7212 13.2317 10.4764 14.4764C9.23171 15.7212 7.27267 15.8306 5.90231 14.8048ZM2 0.5H14C14.3978 0.5 14.7794 0.658035 15.0607 0.93934C15.342 1.22064 15.5 1.60218 15.5 2V18C15.5 18.3978 15.342 18.7794 15.0607 19.0607C14.7794 19.342 14.3978 19.5 14 19.5H2C1.60218 19.5 1.22064 19.342 0.93934 19.0607C0.658035 18.7794 0.5 18.3978 0.5 18V2C0.5 1.60218 0.658035 1.22064 0.93934 0.93934C1.22064 0.658035 1.60218 0.5 2 0.5ZM8 5.5C6.27609 5.5 4.62279 6.18482 3.40381 7.40381C2.18482 8.62279 1.5 10.2761 1.5 12C1.5 13.7239 2.18482 15.3772 3.40381 16.5962C4.62279 17.8152 6.27609 18.5 8 18.5C9.72391 18.5 11.3772 17.8152 12.5962 16.5962C13.8152 15.3772 14.5 13.7239 14.5 12C14.5 10.2761 13.8152 8.62279 12.5962 7.40381C11.3772 6.18482 9.72391 5.5 8 5.5Z" fill="#43474B" stroke="#43474B"/>
</svg>
