<svg width="22" height="12" viewBox="0 0 22 12" fill="none" xmlns="http://www.w3.org/2000/svg">
<path d="M11.1278 4.16426L11.2445 4.5H11.6H21.5V7.5H19H18.5V8V11.5H15.5V8V7.5H15H11.6H11.2445L11.1278 7.83574C10.3941 9.9449 8.3766 11.5 6 11.5C2.97614 11.5 0.5 9.02386 0.5 6C0.5 2.97614 2.97614 0.5 6 0.5C8.3766 0.5 10.3941 2.0551 11.1278 4.16426ZM3.5 6C3.5 7.37614 4.62386 8.5 6 8.5C7.37614 8.5 8.5 7.37614 8.5 6C8.5 4.62386 7.37614 3.5 6 3.5C4.62386 3.5 3.5 4.62386 3.5 6Z" fill="#43474B" stroke="#43474B"/>
</svg>
