<svg width="24" height="24" viewBox="0 0 24 24" fill="none" xmlns="http://www.w3.org/2000/svg">
<path fill-rule="evenodd" clip-rule="evenodd" d="M9.17293 13.8399L4.21053 22.5346L10.2556 22.6974V21.46H8.57143L11.8496 15.5332L16.4812 24L19.5789 18.7246L18.5865 18.0081L17.6541 19.5712L14.7669 14.0353H24L20.9925 8.3365L19.8797 8.98779L20.6917 10.5509H14.3759L19.1579 1.82361H13.1128V2.99593H14.9173L12.0602 8.53189L7.69925 0L4.51128 5.27544L5.47368 5.92673L6.22556 4.62415L9.26316 10.4206H0L2.76692 15.9891L3.78947 15.2727L3.12782 13.8399H9.17293ZM6.97745 3.45183L11.2076 11.6581H1.86466L2.43609 12.7653H10.7771L6.0752 21.46H7.24813L11.8689 12.941L16.3609 21.6554L16.9925 20.6459L12.9734 12.7653H21.9248L21.3835 11.6581H12.5647L17.2632 2.99593H16.0602L11.9074 10.6751L7.60902 2.24695L6.97745 3.45183Z" fill="#F45C24"/>
</svg>
