<svg width="512" height="512" viewBox="0 0 512 512" fill="none" xmlns="http://www.w3.org/2000/svg">
<g clip-path="url(#clip0_419_4370)">
<path d="M194.65 405.67L130.35 552.03L110.69 561.47L86.6399 555.77L85.9099 568.67L110.14 569.85L110.89 585.3L98.0399 618.16L105.06 624.33L117.94 596.7L117.58 628.9L128.62 630.92L136.95 597.89L138.82 619.75L146.79 618.93L146.37 600.45L158.2 570.82L148.87 554.12L201.86 421.15L194.65 405.67Z" fill="#BFBFBF"/>
<path d="M315.2 405.67L381.36 552.03L401.01 561.47L425.07 555.77L425.8 568.67L401.57 569.85L400.81 585.3L413.67 618.16L406.65 624.33L393.77 596.7L394.12 628.9L383.09 630.92L374.76 597.89L372.89 619.75L364.92 618.93L365.34 600.45L353.51 570.82L362.83 554.12L309.85 421.15L315.2 405.67Z" fill="#BFBFBF"/>
<path d="M318.25 557.4H191.6L199.21 423.82L194.65 405.67L241.14 393.54L254.55 421.36L271.87 393.43L315.2 405.67L310.65 423.82L318.25 557.4Z" fill="#F26522"/>
<path d="M318.25 557.4H191.6L198.6 433.96L211.15 401.35L230.75 396.24L247.65 425.42C248.408 426.731 249.476 427.836 250.761 428.637C252.046 429.439 253.508 429.913 255.018 430.018C256.529 430.122 258.042 429.854 259.425 429.238C260.808 428.621 262.019 427.674 262.95 426.48L285.71 397.34L304.71 402.71L311.63 441.2L318.25 557.4Z" fill="#D8D8D8"/>
<path d="M327.47 398.84L298.66 395.58L271.86 393.43L254.57 421.93L241.13 393.53L215.32 395.58L185.74 401.5L152.23 462.84L183.16 490.49L197.94 446.07L194.88 476.78L182.42 562.28L190.84 563.52L272.02 570.52L319.64 560.42L326.09 559.05L315.33 473.55L312.03 443.43L326.06 487.84L358.69 460.32L327.47 398.84Z" fill="#A09F9F"/>
<path d="M185.72 206.27H312.62L308.32 259.51L326.06 250.37V309.52L304.56 301.45L299.71 352.54H273.36L271.86 393.43L254.55 421.36L241.13 393.53L237.34 352.54H202.38L197.55 299.83L178.19 309.52L172.28 256.82L193.25 263.81L185.72 206.27Z" fill="#BFBFBF"/>
<path d="M222.28 298.759C232.674 298.759 241.1 290.333 241.1 279.939C241.1 269.545 232.674 261.119 222.28 261.119C211.886 261.119 203.46 269.545 203.46 279.939C203.46 290.333 211.886 298.759 222.28 298.759Z" fill="white"/>
<path d="M297.57 279.939C297.57 283.661 296.466 287.299 294.399 290.394C292.331 293.489 289.393 295.901 285.954 297.326C282.516 298.75 278.732 299.124 275.082 298.398C271.432 297.673 268.078 295.881 265.446 293.25C262.813 290.619 261.02 287.267 260.293 283.617C259.565 279.967 259.937 276.183 261.36 272.744C262.783 269.305 265.193 266.365 268.287 264.296C271.38 262.227 275.018 261.121 278.74 261.119C283.732 261.119 288.52 263.102 292.051 266.631C295.582 270.16 297.567 274.947 297.57 279.939Z" fill="white"/>
<path d="M227.93 285.319C227.984 286.446 227.699 287.564 227.112 288.528C226.525 289.492 225.662 290.258 224.636 290.727C223.609 291.197 222.466 291.348 221.353 291.161C220.239 290.975 219.208 290.459 218.39 289.681C217.573 288.902 217.007 287.897 216.767 286.794C216.526 285.692 216.621 284.542 217.039 283.494C217.458 282.446 218.181 281.547 219.115 280.913C220.049 280.28 221.151 279.94 222.28 279.939C223.742 279.904 225.159 280.451 226.218 281.46C227.278 282.469 227.893 283.857 227.93 285.319Z" fill="#231F20"/>
<path d="M284.39 285.319C284.444 286.446 284.159 287.564 283.572 288.528C282.985 289.492 282.122 290.258 281.096 290.727C280.069 291.197 278.926 291.348 277.813 291.161C276.699 290.975 275.668 290.459 274.85 289.681C274.033 288.902 273.467 287.897 273.227 286.794C272.986 285.692 273.081 284.542 273.499 283.494C273.918 282.446 274.641 281.547 275.575 280.913C276.509 280.28 277.611 279.94 278.74 279.939C280.202 279.904 281.619 280.451 282.678 281.46C283.738 282.469 284.353 283.857 284.39 285.319Z" fill="#231F20"/>
<path d="M215.72 307.26H284.3C284.3 307.26 285 326.66 275.3 330.12C265.6 333.58 233 332.89 223 327.35C213 321.81 215.72 307.26 215.72 307.26Z" fill="white"/>
<path d="M274.64 243.21L294.14 247.4" stroke="#4A4846" stroke-width="3" stroke-miterlimit="10"/>
<path d="M225.16 244.42L205.6 248.34" stroke="#4A4846" stroke-width="3" stroke-miterlimit="10"/>
<path d="M215.6 307C215.6 307 212.84 321.52 222.87 327.06C232.9 332.6 265.41 333.28 275.1 329.82C284.79 326.36 284.1 307 284.1 307H215.6Z" fill="white"/>
<path d="M312.74 206.24H188L193.73 264.53L192.46 264.7L179.46 202.48C163.57 202.48 150.67 187.48 150.67 171.48V171.4C150.696 170.399 150.955 169.418 151.425 168.534C151.896 167.649 152.565 166.886 153.38 166.305C154.195 165.723 155.134 165.339 156.124 165.182C157.113 165.025 158.125 165.1 159.08 165.4C165.5 167.4 173.75 170.04 181.64 171.02C196.571 172.874 211.722 171.777 226.23 167.79C243.127 163.089 260.5 160.305 278.02 159.49L280.68 159.41C291.38 159.429 301.635 163.692 309.195 171.265C316.754 178.837 321 189.1 321 199.8C321 200.71 320.93 201.59 320.87 202.48V202.59C320.599 206.64 319.716 210.625 318.25 214.41L310.25 259.01L308.33 260.11L312.74 206.24Z" fill="#4A4846"/>
<path d="M275.19 330.55C265.5 334 233 333.32 223 327.78C213 322.24 215.73 307.72 215.73 307.72H284.23C284.23 307.72 284.88 327.09 275.19 330.55Z" fill="#F26522"/>
<path d="M215.68 307.72C215.68 307.72 212.91 322.25 222.95 327.78C232.99 333.31 265.5 334.01 275.19 330.55C284.88 327.09 284.19 307.72 284.19 307.72H215.68Z" fill="white"/>
<path d="M251 305.651C251 305.651 211.6 333.861 197.25 300.101L202.37 352.351C202.37 352.351 219 393.801 250.67 394.531H251.27C282.91 393.801 299.6 352.351 299.6 352.351L304.1 301.711C289.74 335.471 251 305.651 251 305.651Z" fill="#4A4846"/>
<path d="M215.68 307.72C215.68 307.72 212.91 322.25 222.95 327.78C232.99 333.31 265.5 334.01 275.19 330.55C284.88 327.09 284.19 307.72 284.19 307.72H215.68Z" fill="white"/>
<path d="M286.45 306.77C279.45 306.77 272.96 303.04 265.08 300.46C256.159 297.273 246.41 297.273 237.49 300.46C229.61 303.04 223.1 306.77 216.12 306.77C206.63 306.77 196.3 302.05 194.12 301.03L194.22 301.87C209.34 335.63 251.22 305.87 251.22 305.87C251.22 305.87 293.11 335.64 308.22 301.87L308.31 301.03C306.27 302.05 295.94 306.77 286.45 306.77Z" fill="#3B3936"/>
</g>
<defs>
<clipPath id="clip0_419_4370">
<rect width="512" height="512" fill="white"/>
</clipPath>
</defs>
</svg>
