<svg width="20" height="18" viewBox="0 0 20 18" fill="none" xmlns="http://www.w3.org/2000/svg">
<path d="M18 5.5H18.5V5V2V1.5H18H16H15.5V2V5V5.5H16H18ZM16 6.5H15.5V7V10C15.5 10.9283 15.1313 11.8185 14.4749 12.4749C13.8185 13.1313 12.9283 13.5 12 13.5H6C5.07174 13.5 4.1815 13.1313 3.52513 12.4749C2.86875 11.8185 2.5 10.9283 2.5 10V0.5H18C18.8255 0.5 19.5 1.16777 19.5 2V5C19.5 5.39782 19.342 5.77935 19.0607 6.06066C18.7794 6.34196 18.3978 6.5 18 6.5H16ZM17.5 16.5V17.5H0.5V16.5H17.5Z" fill="#43474B" stroke="#43474B"/>
</svg>
