<svg width="24" height="24" viewBox="0 0 24 24" fill="none" xmlns="http://www.w3.org/2000/svg">
<path d="M21 17.5H21.5V17V5V4.5H21H3H2.5V5V17V17.5H3H21ZM8.5 19V18.5H8H3C2.60218 18.5 2.22064 18.342 1.93934 18.0607C1.65804 17.7794 1.5 17.3978 1.5 17V5C1.5 4.60218 1.65804 4.22064 1.93934 3.93934C2.22064 3.65804 2.60218 3.5 3 3.5H21C21.3978 3.5 21.7794 3.65804 22.0607 3.93934C22.342 4.22064 22.5 4.60218 22.5 5V17C22.5 17.3978 22.342 17.7794 22.0607 18.0607C21.7794 18.342 21.3978 18.5 21 18.5H16H15.5V19V20.5H8.5V19Z" fill="#43474B" stroke="#43474B"/>
</svg>
