<svg width="43" height="34" viewBox="0 0 43 34" fill="none" xmlns="http://www.w3.org/2000/svg">
<path d="M42.5724 4C41.0219 4.7 39.3506 5.16 37.6189 5.38C39.3909 4.32 40.7601 2.64 41.4045 0.62C39.7332 1.62 37.8807 2.32 35.9275 2.72C34.3367 1 32.1016 0 29.5645 0C24.8325 0 20.9664 3.84 20.9664 8.58C20.9664 9.26 21.0469 9.92 21.1879 10.54C14.0195 10.18 7.63632 6.76 3.38762 1.58C2.64258 2.84 2.21973 4.32 2.21973 5.88C2.21973 8.86 3.72993 11.5 6.06571 13C4.63605 13 3.30707 12.6 2.13918 12C2.13918 12 2.13918 12 2.13918 12.06C2.13918 16.22 5.11932 19.7 9.06599 20.48C8.34109 20.68 7.57592 20.78 6.79061 20.78C6.24694 20.78 5.70326 20.72 5.17973 20.62C6.26707 24 9.42843 26.52 13.2341 26.58C10.2943 28.9 6.56911 30.26 2.50163 30.26C1.81701 30.26 1.13238 30.22 0.447754 30.14C4.2736 32.58 8.82435 34 13.6973 34C29.5645 34 38.2834 20.92 38.2834 9.58C38.2834 9.2 38.2834 8.84 38.2633 8.46C39.9547 7.26 41.4045 5.74 42.5724 4Z" fill="white"/>
</svg>
