<svg width="146" height="50" viewBox="0 0 146 50" fill="none" xmlns="http://www.w3.org/2000/svg">
<path d="M0 6C0 2.68629 2.68629 0 6 0H140C143.314 0 146 2.68629 146 6V44C146 47.3137 143.314 50 140 50H6C2.68629 50 0 47.3137 0 44V6Z" fill="white"/>
<path d="M17.7596 26.389L20.0744 29.1667L23.3151 25.0001L27.4818 30.5556H14.5188L17.7596 26.389ZM29.3337 31.4816V18.5186C29.3337 17.4908 28.5003 16.6667 27.4818 16.6667H14.5188C14.0277 16.6667 13.5567 16.8619 13.2094 17.2091C12.8621 17.5564 12.667 18.0275 12.667 18.5186V31.4816C12.667 31.9727 12.8621 32.4437 13.2094 32.791C13.5567 33.1383 14.0277 33.3334 14.5188 33.3334H27.4818C27.9729 33.3334 28.444 33.1383 28.7913 32.791C29.1386 32.4437 29.3337 31.9727 29.3337 31.4816Z" fill="#2A2A2A"/>
<path d="M44.9443 30L41.0615 19.9785H42.4971L45.1016 27.2588C45.3112 27.8421 45.4867 28.389 45.6279 28.8994C45.7829 28.3525 45.9629 27.8057 46.168 27.2588L48.875 19.9785H50.2285L46.3047 30H44.9443ZM51.0078 21.3936V19.9785H52.2383V21.3936H51.0078ZM51.0078 30V22.7402H52.2383V30H51.0078ZM59.0879 27.6621L60.3594 27.8193C60.1589 28.5622 59.7874 29.1387 59.2451 29.5488C58.7028 29.959 58.0101 30.1641 57.167 30.1641C56.1051 30.1641 55.262 29.8382 54.6377 29.1865C54.0179 28.5303 53.708 27.612 53.708 26.4316C53.708 25.2103 54.0225 24.2624 54.6514 23.5879C55.2803 22.9134 56.096 22.5762 57.0986 22.5762C58.0693 22.5762 58.8623 22.9066 59.4775 23.5674C60.0928 24.2282 60.4004 25.1579 60.4004 26.3564C60.4004 26.4294 60.3981 26.5387 60.3936 26.6846H54.9795C55.0251 27.4821 55.2507 28.0928 55.6562 28.5166C56.0618 28.9404 56.5677 29.1523 57.1738 29.1523C57.625 29.1523 58.0101 29.0339 58.3291 28.7969C58.6481 28.5599 58.901 28.1816 59.0879 27.6621ZM55.0479 25.6729H59.1016C59.0469 25.0622 58.8919 24.6042 58.6367 24.2988C58.2448 23.8249 57.7367 23.5879 57.1123 23.5879C56.5472 23.5879 56.071 23.777 55.6836 24.1553C55.3008 24.5335 55.0889 25.0394 55.0479 25.6729ZM63.251 30L61.0293 22.7402H62.3008L63.4561 26.9307L63.8867 28.4893C63.9049 28.4118 64.0303 27.9128 64.2627 26.9922L65.418 22.7402H66.6826L67.7695 26.9512L68.1318 28.3389L68.5488 26.9375L69.793 22.7402H70.9893L68.7197 30H67.4414L66.2861 25.6523L66.0059 24.415L64.5361 30H63.251ZM80.6621 29.1045C80.2064 29.4919 79.7666 29.7653 79.3428 29.9248C78.9235 30.0843 78.4723 30.1641 77.9893 30.1641C77.1917 30.1641 76.5788 29.9704 76.1504 29.583C75.722 29.1911 75.5078 28.6921 75.5078 28.0859C75.5078 27.7305 75.5876 27.4069 75.7471 27.1152C75.9111 26.819 76.123 26.582 76.3828 26.4043C76.6471 26.2266 76.9434 26.0921 77.2715 26.001C77.513 25.9372 77.8776 25.8757 78.3652 25.8164C79.3587 25.6979 80.0902 25.5566 80.5596 25.3926C80.5641 25.224 80.5664 25.1169 80.5664 25.0713C80.5664 24.57 80.4502 24.2168 80.2178 24.0117C79.9033 23.7337 79.4362 23.5947 78.8164 23.5947C78.2376 23.5947 77.8092 23.6973 77.5312 23.9023C77.2578 24.1029 77.055 24.4606 76.9229 24.9756L75.7197 24.8115C75.8291 24.2965 76.0091 23.8818 76.2598 23.5674C76.5104 23.2484 76.8727 23.0046 77.3467 22.8359C77.8206 22.6628 78.3698 22.5762 78.9941 22.5762C79.6139 22.5762 80.1175 22.6491 80.5049 22.7949C80.8923 22.9408 81.1771 23.1253 81.3594 23.3486C81.5417 23.5674 81.6693 23.8454 81.7422 24.1826C81.7832 24.3923 81.8037 24.7705 81.8037 25.3174V26.958C81.8037 28.1019 81.8288 28.8265 81.8789 29.1318C81.9336 29.4326 82.0384 29.722 82.1934 30H80.9082C80.7806 29.7448 80.6986 29.4463 80.6621 29.1045ZM80.5596 26.3564C80.113 26.5387 79.443 26.6937 78.5498 26.8213C78.0439 26.8942 77.6862 26.9762 77.4766 27.0674C77.2669 27.1585 77.1051 27.293 76.9912 27.4707C76.8773 27.6439 76.8203 27.8376 76.8203 28.0518C76.8203 28.3799 76.9434 28.6533 77.1895 28.8721C77.4401 29.0908 77.8047 29.2002 78.2832 29.2002C78.7572 29.2002 79.1787 29.0977 79.5479 28.8926C79.917 28.6829 80.1882 28.3981 80.3613 28.0381C80.4935 27.7601 80.5596 27.3499 80.5596 26.8076V26.3564ZM83.6904 30V19.9785H84.9209V30H83.6904ZM86.8076 30V19.9785H88.0381V30H86.8076ZM93.8486 32.7822V22.7402H94.9697V23.6836C95.234 23.3145 95.5326 23.0387 95.8652 22.8564C96.1979 22.6696 96.6012 22.5762 97.0752 22.5762C97.695 22.5762 98.2419 22.7357 98.7158 23.0547C99.1898 23.3737 99.5475 23.8249 99.7891 24.4082C100.031 24.987 100.151 25.6227 100.151 26.3154C100.151 27.0583 100.017 27.7282 99.748 28.3252C99.4837 28.9176 99.0964 29.3734 98.5859 29.6924C98.0801 30.0068 97.5469 30.1641 96.9863 30.1641C96.5762 30.1641 96.207 30.0775 95.8789 29.9043C95.5553 29.7311 95.2887 29.5124 95.0791 29.248V32.7822H93.8486ZM94.9629 26.4111C94.9629 27.3454 95.152 28.0358 95.5303 28.4824C95.9085 28.929 96.3665 29.1523 96.9043 29.1523C97.4512 29.1523 97.9183 28.9222 98.3057 28.4619C98.6976 27.9971 98.8936 27.2793 98.8936 26.3086C98.8936 25.3835 98.7021 24.6908 98.3193 24.2305C97.9411 23.7702 97.4876 23.54 96.959 23.54C96.4349 23.54 95.9701 23.7861 95.5645 24.2783C95.1634 24.766 94.9629 25.4769 94.9629 26.4111ZM101.642 30V19.9785H102.872V23.5742C103.446 22.9089 104.171 22.5762 105.046 22.5762C105.584 22.5762 106.051 22.6833 106.447 22.8975C106.844 23.1071 107.126 23.3988 107.295 23.7725C107.468 24.1462 107.555 24.6885 107.555 25.3994V30H106.324V25.3994C106.324 24.7842 106.19 24.3376 105.921 24.0596C105.657 23.777 105.281 23.6357 104.793 23.6357C104.428 23.6357 104.084 23.7314 103.761 23.9229C103.442 24.1097 103.214 24.3649 103.077 24.6885C102.94 25.012 102.872 25.4587 102.872 26.0283V30H101.642ZM108.977 26.3701C108.977 25.0257 109.35 24.0299 110.098 23.3828C110.722 22.8451 111.483 22.5762 112.381 22.5762C113.379 22.5762 114.195 22.9043 114.828 23.5605C115.462 24.2122 115.778 25.1146 115.778 26.2676C115.778 27.2018 115.637 27.9378 115.354 28.4756C115.076 29.0088 114.669 29.4235 114.131 29.7197C113.598 30.016 113.014 30.1641 112.381 30.1641C111.365 30.1641 110.542 29.8382 109.913 29.1865C109.289 28.5348 108.977 27.596 108.977 26.3701ZM110.241 26.3701C110.241 27.2998 110.444 27.9971 110.85 28.4619C111.255 28.9222 111.766 29.1523 112.381 29.1523C112.992 29.1523 113.5 28.9199 113.905 28.4551C114.311 27.9902 114.514 27.2816 114.514 26.3291C114.514 25.4313 114.309 24.7523 113.898 24.292C113.493 23.8271 112.987 23.5947 112.381 23.5947C111.766 23.5947 111.255 23.8249 110.85 24.2852C110.444 24.7454 110.241 25.4404 110.241 26.3701ZM119.914 28.8994L120.092 29.9863C119.745 30.0592 119.436 30.0957 119.162 30.0957C118.715 30.0957 118.369 30.0251 118.123 29.8838C117.877 29.7425 117.704 29.5579 117.604 29.3301C117.503 29.0977 117.453 28.6123 117.453 27.874V23.6973H116.551V22.7402H117.453V20.9424L118.677 20.2041V22.7402H119.914V23.6973H118.677V27.9424C118.677 28.2933 118.697 28.5189 118.738 28.6191C118.784 28.7194 118.854 28.7992 118.95 28.8584C119.05 28.9176 119.192 28.9473 119.374 28.9473C119.511 28.9473 119.691 28.9313 119.914 28.8994ZM120.666 26.3701C120.666 25.0257 121.04 24.0299 121.787 23.3828C122.411 22.8451 123.173 22.5762 124.07 22.5762C125.068 22.5762 125.884 22.9043 126.518 23.5605C127.151 24.2122 127.468 25.1146 127.468 26.2676C127.468 27.2018 127.326 27.9378 127.044 28.4756C126.766 29.0088 126.358 29.4235 125.82 29.7197C125.287 30.016 124.704 30.1641 124.07 30.1641C123.054 30.1641 122.231 29.8382 121.603 29.1865C120.978 28.5348 120.666 27.596 120.666 26.3701ZM121.931 26.3701C121.931 27.2998 122.133 27.9971 122.539 28.4619C122.945 28.9222 123.455 29.1523 124.07 29.1523C124.681 29.1523 125.189 28.9199 125.595 28.4551C126 27.9902 126.203 27.2816 126.203 26.3291C126.203 25.4313 125.998 24.7523 125.588 24.292C125.182 23.8271 124.676 23.5947 124.07 23.5947C123.455 23.5947 122.945 23.8249 122.539 24.2852C122.133 24.7454 121.931 25.4404 121.931 26.3701ZM128.425 27.833L129.642 27.6416C129.71 28.1292 129.899 28.5029 130.209 28.7627C130.523 29.0225 130.961 29.1523 131.521 29.1523C132.087 29.1523 132.506 29.0384 132.779 28.8105C133.053 28.5781 133.189 28.307 133.189 27.9971C133.189 27.7191 133.069 27.5003 132.827 27.3408C132.659 27.2314 132.239 27.0924 131.569 26.9238C130.667 26.696 130.04 26.5 129.689 26.3359C129.343 26.1673 129.079 25.9372 128.896 25.6455C128.719 25.3493 128.63 25.0234 128.63 24.668C128.63 24.3444 128.703 24.0459 128.849 23.7725C128.999 23.4945 129.202 23.2643 129.457 23.082C129.648 22.9408 129.908 22.8223 130.236 22.7266C130.569 22.6263 130.924 22.5762 131.303 22.5762C131.872 22.5762 132.371 22.6582 132.8 22.8223C133.233 22.9863 133.552 23.2096 133.757 23.4922C133.962 23.7702 134.103 24.1439 134.181 24.6133L132.978 24.7773C132.923 24.4036 132.763 24.112 132.499 23.9023C132.239 23.6927 131.87 23.5879 131.392 23.5879C130.826 23.5879 130.423 23.6813 130.182 23.8682C129.94 24.055 129.819 24.2738 129.819 24.5244C129.819 24.6839 129.869 24.8275 129.97 24.9551C130.07 25.0872 130.227 25.1966 130.441 25.2832C130.564 25.3288 130.927 25.4336 131.528 25.5977C132.399 25.8301 133.005 26.0215 133.347 26.1719C133.693 26.3177 133.964 26.5319 134.16 26.8145C134.356 27.097 134.454 27.4479 134.454 27.8672C134.454 28.2773 134.333 28.6647 134.092 29.0293C133.855 29.3893 133.511 29.6696 133.06 29.8701C132.608 30.0661 132.098 30.1641 131.528 30.1641C130.585 30.1641 129.865 29.9681 129.368 29.5762C128.876 29.1842 128.562 28.6032 128.425 27.833Z" fill="black"/>
</svg>
