<svg width="20" height="16" viewBox="0 0 20 16" fill="none" xmlns="http://www.w3.org/2000/svg">
<path d="M10 11.1667C10.9522 11.1667 11.844 11.4205 12.6027 11.8564L10 15.1878L7.39731 11.8564C8.15596 11.4205 9.04779 11.1667 10 11.1667ZM10 0.5C13.4537 0.5 16.654 1.53975 19.2809 3.30829L18.2307 4.65254C15.9025 3.08783 13.0612 2.16667 10 2.16667C6.93884 2.16667 4.09747 3.08783 1.76929 4.65254L0.7191 3.30829C3.34605 1.53975 6.54634 0.5 10 0.5ZM10 5.83333C12.204 5.83333 14.2473 6.47539 15.945 7.57827L14.8945 8.92294C13.495 8.02335 11.811 7.5 10 7.5C8.18904 7.5 6.50497 8.02335 5.10555 8.92294L4.05502 7.57827C5.75271 6.47539 7.79596 5.83333 10 5.83333Z" fill="#43474B" stroke="#43474B"/>
</svg>
