<svg width="261" height="280" viewBox="0 0 261 280" fill="none" xmlns="http://www.w3.org/2000/svg">
<g filter="url(#filter0_d_1151_3320)">
<rect width="261" height="280" fill="white"/>
<path d="M16.7949 24H12.8643V16.998H16.6387V17.9844H14.0264V19.9668H16.4336V20.9482H14.0264V23.0186H16.7949V24ZM23.5283 16.998L21.0137 24H19.7148L17.2441 16.998H18.5137L20.2422 22.3105C20.2975 22.4798 20.3398 22.6768 20.3691 22.9014H20.3887C20.4115 22.7158 20.4587 22.5156 20.5303 22.3008L22.2979 16.998H23.5283ZM28.3867 24H24.4561V16.998H28.2305V17.9844H25.6182V19.9668H28.0254V20.9482H25.6182V23.0186H28.3867V24ZM35.5693 24H34.2998L30.9551 18.8535C30.8704 18.7233 30.8005 18.5882 30.7451 18.4482H30.7158C30.7419 18.598 30.7549 18.9186 30.7549 19.4102V24H29.6318V16.998H30.9844L34.2168 22.0225C34.3535 22.2308 34.4414 22.374 34.4805 22.4521H34.5C34.4674 22.2666 34.4512 21.9525 34.4512 21.5098V16.998H35.5693V24ZM41.7998 17.9844H39.7881V24H38.626V17.9844H36.6191V16.998H41.7998V17.9844Z" fill="#43474B"/>
<path d="M23.3594 52V45.8594C23.3594 45.2812 23.3776 44.6458 23.4141 43.9531L23.4375 43.4375H23.3438C23.1771 44.3177 23.0495 44.9271 22.9609 45.2656L21.3125 52H18.1406L16.4141 45.3438C16.3672 45.1771 16.2448 44.5417 16.0469 43.4375H15.9531C16.026 45.1875 16.0625 46.2812 16.0625 46.7188V52H13.1016V40.7969H18.1562L19.6953 46.8828C19.7318 47.0078 19.7786 47.263 19.8359 47.6484C19.8984 48.0286 19.9375 48.3229 19.9531 48.5312H20C20.0573 48.0573 20.1484 47.4974 20.2734 46.8516L21.7109 40.7969H26.6875V52H23.3594ZM38.6641 46.8828C38.6641 48.6797 38.2526 50.0156 37.4297 50.8906C36.612 51.7604 35.349 52.1953 33.6406 52.1953C32.0469 52.1953 30.8359 51.7604 30.0078 50.8906C29.1849 50.0156 28.7734 48.7005 28.7734 46.9453V40.7969H32.1641V47.0703C32.1641 47.7891 32.2969 48.3438 32.5625 48.7344C32.8333 49.1198 33.2188 49.3125 33.7188 49.3125C34.224 49.3125 34.6068 49.1302 34.8672 48.7656C35.1328 48.401 35.2656 47.862 35.2656 47.1484V40.7969H38.6641V46.8828ZM48.5234 48.6094C48.5234 49.3542 48.3229 50.0026 47.9219 50.5547C47.526 51.1068 46.9688 51.5182 46.25 51.7891C45.5312 52.0599 44.6667 52.1953 43.6562 52.1953C42.4844 52.1953 41.4115 51.9974 40.4375 51.6016V48.5312C40.9062 48.875 41.4245 49.1536 41.9922 49.3672C42.5599 49.5755 43.0885 49.6797 43.5781 49.6797C43.9479 49.6797 44.2344 49.6146 44.4375 49.4844C44.6406 49.349 44.7422 49.1536 44.7422 48.8984C44.7422 48.7161 44.6901 48.5573 44.5859 48.4219C44.487 48.2812 44.3333 48.151 44.125 48.0312C43.9219 47.9115 43.5417 47.7474 42.9844 47.5391C41.1823 46.8464 40.2812 45.7266 40.2812 44.1797C40.2812 43.0964 40.6927 42.2318 41.5156 41.5859C42.3385 40.9349 43.4427 40.6094 44.8281 40.6094C45.2188 40.6094 45.5781 40.625 45.9062 40.6562C46.2344 40.6875 46.5312 40.7266 46.7969 40.7734C47.0677 40.8203 47.4453 40.9089 47.9297 41.0391V43.8906C46.987 43.375 46.0599 43.1172 45.1484 43.1172C44.7734 43.1172 44.4714 43.1875 44.2422 43.3281C44.013 43.4688 43.8984 43.6615 43.8984 43.9062C43.8984 44.1406 43.9896 44.3359 44.1719 44.4922C44.3594 44.6432 44.7474 44.8411 45.3359 45.0859C46.4974 45.5547 47.3177 46.0677 47.7969 46.625C48.2812 47.1823 48.5234 47.8438 48.5234 48.6094ZM49.8984 52V40.7969H53.2734V52H49.8984ZM63.8125 51.6953C62.8854 52.0286 61.8151 52.1953 60.6016 52.1953C59.4089 52.1953 58.3802 51.9688 57.5156 51.5156C56.651 51.0573 55.9896 50.4089 55.5312 49.5703C55.0781 48.7266 54.8516 47.7552 54.8516 46.6562C54.8516 45.474 55.1068 44.4219 55.6172 43.5C56.1276 42.5781 56.849 41.8672 57.7812 41.3672C58.7135 40.862 59.7865 40.6094 61 40.6094C61.9688 40.6094 62.9062 40.7266 63.8125 40.9609V44.0781C63.5 43.8906 63.1276 43.7448 62.6953 43.6406C62.263 43.5365 61.8255 43.4844 61.3828 43.4844C60.4661 43.4844 59.7422 43.7474 59.2109 44.2734C58.6849 44.7995 58.4219 45.513 58.4219 46.4141C58.4219 47.3099 58.6849 48.0182 59.2109 48.5391C59.7422 49.0547 60.4505 49.3125 61.3359 49.3125C62.1536 49.3125 62.9792 49.1042 63.8125 48.6875V51.6953ZM72.5781 52L72.0859 49.9375H68.7422L68.2109 52H64.5625L68.4219 40.7969H72.6094L76.2422 52H72.5781ZM70.4531 43.2344H70.375C70.3646 43.3594 70.3281 43.5651 70.2656 43.8516C70.2031 44.138 69.888 45.3672 69.3203 47.5391H71.4609L70.6797 44.4922C70.5703 44.0443 70.4948 43.625 70.4531 43.2344ZM83.2188 43.4375V52H79.8281V43.4375H76.6953V40.7969H86.3906V43.4375H83.2188ZM94.9922 52V47.8203H91.1172V52H87.7422V40.7969H91.1172V44.9453H94.9922V40.7969H98.3672V52H94.9922ZM111.242 46.3672C111.242 47.4922 111 48.5 110.516 49.3906C110.031 50.276 109.354 50.9661 108.484 51.4609C107.615 51.9505 106.641 52.1953 105.562 52.1953C104.51 52.1953 103.552 51.9583 102.688 51.4844C101.828 51.0052 101.159 50.3359 100.68 49.4766C100.201 48.612 99.9609 47.6354 99.9609 46.5469C99.9609 45.4062 100.203 44.3802 100.688 43.4688C101.172 42.5573 101.852 41.8542 102.727 41.3594C103.602 40.8594 104.596 40.6094 105.711 40.6094C106.784 40.6094 107.742 40.849 108.586 41.3281C109.435 41.8021 110.089 42.4818 110.547 43.3672C111.01 44.2474 111.242 45.2474 111.242 46.3672ZM107.664 46.4609C107.664 45.5391 107.487 44.8125 107.133 44.2812C106.779 43.75 106.294 43.4844 105.68 43.4844C105.008 43.4844 104.484 43.7396 104.109 44.25C103.734 44.7604 103.547 45.4818 103.547 46.4141C103.547 47.3255 103.732 48.0365 104.102 48.5469C104.477 49.0573 104.984 49.3125 105.625 49.3125C106.016 49.3125 106.367 49.1979 106.68 48.9688C106.992 48.7396 107.234 48.4115 107.406 47.9844C107.578 47.5573 107.664 47.0495 107.664 46.4609ZM120.664 52L116.711 46.5938C116.398 46.1667 116.143 45.7812 115.945 45.4375H115.914C115.945 45.9896 115.961 46.6094 115.961 47.2969V52H112.836V40.7969H116.023L119.812 45.9375C119.859 46.0052 119.917 46.0859 119.984 46.1797C120.052 46.2734 120.12 46.3698 120.188 46.4688C120.255 46.5677 120.318 46.6641 120.375 46.7578C120.438 46.8516 120.484 46.9349 120.516 47.0078H120.547C120.516 46.7786 120.5 46.3828 120.5 45.8203V40.7969H123.625V52H120.664ZM129.891 52V51.1016C129.891 50.4661 129.969 49.9141 130.125 49.4453C130.281 48.9766 130.526 48.5365 130.859 48.125C131.198 47.7135 131.784 47.1849 132.617 46.5391C133.211 46.0703 133.604 45.7344 133.797 45.5312C133.995 45.3229 134.141 45.1224 134.234 44.9297C134.333 44.737 134.383 44.5286 134.383 44.3047C134.383 43.5599 133.935 43.1875 133.039 43.1875C132.128 43.1875 131.266 43.5182 130.453 44.1797V41.4531C131.073 41.1406 131.651 40.9219 132.188 40.7969C132.729 40.6719 133.284 40.6094 133.852 40.6094C135.07 40.6094 136.013 40.901 136.68 41.4844C137.346 42.0677 137.68 42.8854 137.68 43.9375C137.68 44.7448 137.505 45.4297 137.156 45.9922C136.807 46.5547 136.159 47.1406 135.211 47.75C134.487 48.2188 134.005 48.5625 133.766 48.7812C133.531 48.9948 133.411 49.1771 133.406 49.3281H137.781V52H129.891ZM143.195 50.6094C143.195 51.0833 143.029 51.4661 142.695 51.7578C142.362 52.0495 141.901 52.1953 141.312 52.1953C140.776 52.1953 140.336 52.0443 139.992 51.7422C139.654 51.4349 139.484 51.0573 139.484 50.6094C139.484 50.151 139.651 49.7812 139.984 49.5C140.323 49.2135 140.776 49.0703 141.344 49.0703C141.896 49.0703 142.341 49.2135 142.68 49.5C143.023 49.7812 143.195 50.151 143.195 50.6094ZM152.992 46.3047C152.992 48.2266 152.625 49.6901 151.891 50.6953C151.161 51.6953 150.094 52.1953 148.688 52.1953C147.25 52.1953 146.174 51.7344 145.461 50.8125C144.753 49.8906 144.398 48.4635 144.398 46.5312C144.398 44.5938 144.781 43.1224 145.547 42.1172C146.318 41.112 147.43 40.6094 148.883 40.6094C151.622 40.6094 152.992 42.5078 152.992 46.3047ZM149.711 46.3047C149.711 45.1901 149.633 44.3672 149.477 43.8359C149.32 43.3047 149.068 43.0391 148.719 43.0391C148.036 43.0391 147.695 44.1797 147.695 46.4609C147.695 47.5807 147.773 48.4115 147.93 48.9531C148.091 49.4896 148.344 49.7578 148.688 49.7578C149.37 49.7578 149.711 48.6068 149.711 46.3047Z" fill="#43474B"/>
<path d="M18.0703 70.4883H15.6445V78H14.6602V70.4883H12.2402V69.5977H18.0703V70.4883ZM24.2461 78H23.2852V74.543C23.2852 73.293 22.8203 72.668 21.8906 72.668C21.4219 72.668 21.0273 72.8496 20.707 73.2129C20.3867 73.5723 20.2266 74.0352 20.2266 74.6016V78H19.2656V69.1172H20.2266V72.9961H20.25C20.7109 72.2383 21.3672 71.8594 22.2188 71.8594C23.5703 71.8594 24.2461 72.6738 24.2461 74.3027V78ZM30.8848 75.2402H26.6484C26.6641 75.9082 26.8438 76.4238 27.1875 76.7871C27.5312 77.1504 28.0039 77.332 28.6055 77.332C29.2812 77.332 29.9023 77.1094 30.4688 76.6641V77.5664C29.9414 77.9492 29.2441 78.1406 28.377 78.1406C27.5293 78.1406 26.8633 77.8691 26.3789 77.3262C25.8945 76.7793 25.6523 76.0117 25.6523 75.0234C25.6523 74.0898 25.916 73.3301 26.4434 72.7441C26.9746 72.1543 27.6328 71.8594 28.418 71.8594C29.2031 71.8594 29.8105 72.1133 30.2402 72.6211C30.6699 73.1289 30.8848 73.834 30.8848 74.7363V75.2402ZM29.9004 74.4258C29.8965 73.8711 29.7617 73.4395 29.4961 73.1309C29.2344 72.8223 28.8691 72.668 28.4004 72.668C27.9473 72.668 27.5625 72.8301 27.2461 73.1543C26.9297 73.4785 26.7344 73.9023 26.6602 74.4258H29.9004ZM40.7578 77.5195C40.7578 79.7227 39.7031 80.8242 37.5938 80.8242C36.8516 80.8242 36.2031 80.6836 35.6484 80.4023V79.4414C36.3242 79.8164 36.9688 80.0039 37.582 80.0039C39.0586 80.0039 39.7969 79.2188 39.7969 77.6484V76.9922H39.7734C39.3164 77.7578 38.6289 78.1406 37.7109 78.1406C36.9648 78.1406 36.3633 77.875 35.9062 77.3438C35.4531 76.8086 35.2266 76.0918 35.2266 75.1934C35.2266 74.1738 35.4707 73.3633 35.959 72.7617C36.4512 72.1602 37.123 71.8594 37.9746 71.8594C38.7832 71.8594 39.3828 72.1836 39.7734 72.832H39.7969V72H40.7578V77.5195ZM39.7969 75.2871V74.4023C39.7969 73.9258 39.6348 73.5176 39.3105 73.1777C38.9902 72.8379 38.5898 72.668 38.1094 72.668C37.5156 72.668 37.0508 72.8848 36.7148 73.3184C36.3789 73.748 36.2109 74.3516 36.2109 75.1289C36.2109 75.7969 36.3711 76.332 36.6914 76.7344C37.0156 77.1328 37.4434 77.332 37.9746 77.332C38.5137 77.332 38.9512 77.1406 39.2871 76.7578C39.627 76.375 39.7969 75.8848 39.7969 75.2871ZM46.998 78H46.0371V77.0625H46.0137C45.5957 77.7812 44.9805 78.1406 44.168 78.1406C43.5703 78.1406 43.1016 77.9824 42.7617 77.666C42.4258 77.3496 42.2578 76.9297 42.2578 76.4062C42.2578 75.2852 42.918 74.6328 44.2383 74.4492L46.0371 74.1973C46.0371 73.1777 45.625 72.668 44.8008 72.668C44.0781 72.668 43.4258 72.9141 42.8438 73.4062V72.4219C43.4336 72.0469 44.1133 71.8594 44.8828 71.8594C46.293 71.8594 46.998 72.6055 46.998 74.0977V78ZM46.0371 74.9648L44.5898 75.1641C44.1445 75.2266 43.8086 75.3379 43.582 75.498C43.3555 75.6543 43.2422 75.9336 43.2422 76.3359C43.2422 76.6289 43.3457 76.8691 43.5527 77.0566C43.7637 77.2402 44.043 77.332 44.3906 77.332C44.8672 77.332 45.2598 77.166 45.5684 76.834C45.8809 76.498 46.0371 76.0742 46.0371 75.5625V74.9648ZM51.9375 72.9727C51.7695 72.8438 51.5273 72.7793 51.2109 72.7793C50.8008 72.7793 50.457 72.9727 50.1797 73.3594C49.9062 73.7461 49.7695 74.2734 49.7695 74.9414V78H48.8086V72H49.7695V73.2363H49.793C49.9297 72.8145 50.1387 72.4863 50.4199 72.252C50.7012 72.0137 51.0156 71.8945 51.3633 71.8945C51.6133 71.8945 51.8047 71.9219 51.9375 71.9766V72.9727ZM58.1016 78H57.1406V76.9805H57.1172C56.6719 77.7539 55.9844 78.1406 55.0547 78.1406C54.3008 78.1406 53.6973 77.873 53.2441 77.3379C52.7949 76.7988 52.5703 76.0664 52.5703 75.1406C52.5703 74.1484 52.8203 73.3535 53.3203 72.7559C53.8203 72.1582 54.4863 71.8594 55.3184 71.8594C56.1426 71.8594 56.7422 72.1836 57.1172 72.832H57.1406V69.1172H58.1016V78ZM57.1406 75.2871V74.4023C57.1406 73.918 56.9805 73.5078 56.6602 73.1719C56.3398 72.8359 55.9336 72.668 55.4414 72.668C54.8555 72.668 54.3945 72.8828 54.0586 73.3125C53.7227 73.7422 53.5547 74.3359 53.5547 75.0938C53.5547 75.7852 53.7148 76.332 54.0352 76.7344C54.3594 77.1328 54.793 77.332 55.3359 77.332C55.8711 77.332 56.3047 77.1387 56.6367 76.752C56.9727 76.3652 57.1406 75.877 57.1406 75.2871ZM64.8691 75.2402H60.6328C60.6484 75.9082 60.8281 76.4238 61.1719 76.7871C61.5156 77.1504 61.9883 77.332 62.5898 77.332C63.2656 77.332 63.8867 77.1094 64.4531 76.6641V77.5664C63.9258 77.9492 63.2285 78.1406 62.3613 78.1406C61.5137 78.1406 60.8477 77.8691 60.3633 77.3262C59.8789 76.7793 59.6367 76.0117 59.6367 75.0234C59.6367 74.0898 59.9004 73.3301 60.4277 72.7441C60.959 72.1543 61.6172 71.8594 62.4023 71.8594C63.1875 71.8594 63.7949 72.1133 64.2246 72.6211C64.6543 73.1289 64.8691 73.834 64.8691 74.7363V75.2402ZM63.8848 74.4258C63.8809 73.8711 63.7461 73.4395 63.4805 73.1309C63.2188 72.8223 62.8535 72.668 62.3848 72.668C61.9316 72.668 61.5469 72.8301 61.2305 73.1543C60.9141 73.4785 60.7188 73.9023 60.6445 74.4258H63.8848ZM71.3086 78H70.3477V74.5781C70.3477 73.3047 69.8828 72.668 68.9531 72.668C68.4727 72.668 68.0742 72.8496 67.7578 73.2129C67.4453 73.5723 67.2891 74.0273 67.2891 74.5781V78H66.3281V72H67.2891V72.9961H67.3125C67.7656 72.2383 68.4219 71.8594 69.2812 71.8594C69.9375 71.8594 70.4395 72.0723 70.7871 72.498C71.1348 72.9199 71.3086 73.5312 71.3086 74.332V78ZM72.7617 77.7832V76.752C73.2852 77.1387 73.8613 77.332 74.4902 77.332C75.334 77.332 75.7559 77.0508 75.7559 76.4883C75.7559 76.3281 75.7188 76.1934 75.6445 76.084C75.5742 75.9707 75.4766 75.8711 75.3516 75.7852C75.2305 75.6992 75.0859 75.623 74.918 75.5566C74.7539 75.4863 74.5762 75.4141 74.3848 75.3398C74.1191 75.2344 73.8848 75.1289 73.6816 75.0234C73.4824 74.9141 73.3145 74.793 73.1777 74.6602C73.0449 74.5234 72.9434 74.3691 72.873 74.1973C72.8066 74.0254 72.7734 73.8242 72.7734 73.5938C72.7734 73.3125 72.8379 73.0645 72.9668 72.8496C73.0957 72.6309 73.2676 72.4492 73.4824 72.3047C73.6973 72.1562 73.9414 72.0449 74.2148 71.9707C74.4922 71.8965 74.7773 71.8594 75.0703 71.8594C75.5898 71.8594 76.0547 71.9492 76.4648 72.1289V73.1016C76.0234 72.8125 75.5156 72.668 74.9414 72.668C74.7617 72.668 74.5996 72.6895 74.4551 72.7324C74.3105 72.7715 74.1855 72.8281 74.0801 72.9023C73.9785 72.9766 73.8984 73.0664 73.8398 73.1719C73.7852 73.2734 73.7578 73.3867 73.7578 73.5117C73.7578 73.668 73.7852 73.7988 73.8398 73.9043C73.8984 74.0098 73.9824 74.1035 74.0918 74.1855C74.2012 74.2676 74.334 74.3418 74.4902 74.4082C74.6465 74.4746 74.8242 74.5469 75.0234 74.625C75.2891 74.7266 75.5273 74.832 75.7383 74.9414C75.9492 75.0469 76.1289 75.168 76.2773 75.3047C76.4258 75.4375 76.5391 75.5918 76.6172 75.7676C76.6992 75.9434 76.7402 76.1523 76.7402 76.3945C76.7402 76.6914 76.6738 76.9492 76.541 77.168C76.4121 77.3867 76.2383 77.5684 76.0195 77.7129C75.8008 77.8574 75.5488 77.9648 75.2637 78.0352C74.9785 78.1055 74.6797 78.1406 74.3672 78.1406C73.75 78.1406 73.2148 78.0215 72.7617 77.7832ZM84.0234 78.1406C83.1367 78.1406 82.4277 77.8613 81.8965 77.3027C81.3691 76.7402 81.1055 75.9961 81.1055 75.0703C81.1055 74.0625 81.3809 73.2754 81.9316 72.709C82.4824 72.1426 83.2266 71.8594 84.1641 71.8594C85.0586 71.8594 85.7559 72.1348 86.2559 72.6855C86.7598 73.2363 87.0117 74 87.0117 74.9766C87.0117 75.9336 86.7402 76.7012 86.1973 77.2793C85.6582 77.8535 84.9336 78.1406 84.0234 78.1406ZM84.0938 72.668C83.4766 72.668 82.9883 72.8789 82.6289 73.3008C82.2695 73.7188 82.0898 74.2969 82.0898 75.0352C82.0898 75.7461 82.2715 76.3066 82.6348 76.7168C82.998 77.127 83.4844 77.332 84.0938 77.332C84.7148 77.332 85.1914 77.1309 85.5234 76.7285C85.8594 76.3262 86.0273 75.7539 86.0273 75.0117C86.0273 74.2617 85.8594 73.6836 85.5234 73.2773C85.1914 72.8711 84.7148 72.668 84.0938 72.668ZM91.5117 69.9609C91.3242 69.8555 91.1113 69.8027 90.873 69.8027C90.2012 69.8027 89.8652 70.2266 89.8652 71.0742V72H91.2715V72.8203H89.8652V78H88.9102V72.8203H87.8848V72H88.9102V71.0273C88.9102 70.3984 89.0918 69.9023 89.4551 69.5391C89.8184 69.1719 90.2715 68.9883 90.8145 68.9883C91.1074 68.9883 91.3398 69.0234 91.5117 69.0938V69.9609ZM98.3848 77.9414C98.1582 78.0664 97.8594 78.1289 97.4883 78.1289C96.4375 78.1289 95.9121 77.543 95.9121 76.3711V72.8203H94.8809V72H95.9121V70.5352L96.873 70.2246V72H98.3848V72.8203H96.873V76.2012C96.873 76.6035 96.9414 76.8906 97.0781 77.0625C97.2148 77.2344 97.4414 77.3203 97.7578 77.3203C98 77.3203 98.209 77.2539 98.3848 77.1211V77.9414ZM104.648 78H103.688V74.543C103.688 73.293 103.223 72.668 102.293 72.668C101.824 72.668 101.43 72.8496 101.109 73.2129C100.789 73.5723 100.629 74.0352 100.629 74.6016V78H99.668V69.1172H100.629V72.9961H100.652C101.113 72.2383 101.77 71.8594 102.621 71.8594C103.973 71.8594 104.648 72.6738 104.648 74.3027V78ZM111.287 75.2402H107.051C107.066 75.9082 107.246 76.4238 107.59 76.7871C107.934 77.1504 108.406 77.332 109.008 77.332C109.684 77.332 110.305 77.1094 110.871 76.6641V77.5664C110.344 77.9492 109.646 78.1406 108.779 78.1406C107.932 78.1406 107.266 77.8691 106.781 77.3262C106.297 76.7793 106.055 76.0117 106.055 75.0234C106.055 74.0898 106.318 73.3301 106.846 72.7441C107.377 72.1543 108.035 71.8594 108.82 71.8594C109.605 71.8594 110.213 72.1133 110.643 72.6211C111.072 73.1289 111.287 73.834 111.287 74.7363V75.2402ZM110.303 74.4258C110.299 73.8711 110.164 73.4395 109.898 73.1309C109.637 72.8223 109.271 72.668 108.803 72.668C108.35 72.668 107.965 72.8301 107.648 73.1543C107.332 73.4785 107.137 73.9023 107.062 74.4258H110.303ZM116.168 78V69.5977H118.559C119.285 69.5977 119.861 69.7754 120.287 70.1309C120.713 70.4863 120.926 70.9492 120.926 71.5195C120.926 71.9961 120.797 72.4102 120.539 72.7617C120.281 73.1133 119.926 73.3633 119.473 73.5117V73.5352C120.039 73.6016 120.492 73.8164 120.832 74.1797C121.172 74.5391 121.342 75.0078 121.342 75.5859C121.342 76.3047 121.084 76.8867 120.568 77.332C120.053 77.7773 119.402 78 118.617 78H116.168ZM117.152 70.4883V73.2012H118.16C118.699 73.2012 119.123 73.0723 119.432 72.8145C119.74 72.5527 119.895 72.1855 119.895 71.7129C119.895 70.8965 119.357 70.4883 118.283 70.4883H117.152ZM117.152 74.0859V77.1094H118.488C119.066 77.1094 119.514 76.9727 119.83 76.6992C120.15 76.4258 120.311 76.0508 120.311 75.5742C120.311 74.582 119.635 74.0859 118.283 74.0859H117.152ZM127.213 78H126.252V77.0625H126.229C125.811 77.7812 125.195 78.1406 124.383 78.1406C123.785 78.1406 123.316 77.9824 122.977 77.666C122.641 77.3496 122.473 76.9297 122.473 76.4062C122.473 75.2852 123.133 74.6328 124.453 74.4492L126.252 74.1973C126.252 73.1777 125.84 72.668 125.016 72.668C124.293 72.668 123.641 72.9141 123.059 73.4062V72.4219C123.648 72.0469 124.328 71.8594 125.098 71.8594C126.508 71.8594 127.213 72.6055 127.213 74.0977V78ZM126.252 74.9648L124.805 75.1641C124.359 75.2266 124.023 75.3379 123.797 75.498C123.57 75.6543 123.457 75.9336 123.457 76.3359C123.457 76.6289 123.561 76.8691 123.768 77.0566C123.979 77.2402 124.258 77.332 124.605 77.332C125.082 77.332 125.475 77.166 125.783 76.834C126.096 76.498 126.252 76.0742 126.252 75.5625V74.9648ZM134.145 77.5195C134.145 79.7227 133.09 80.8242 130.98 80.8242C130.238 80.8242 129.59 80.6836 129.035 80.4023V79.4414C129.711 79.8164 130.355 80.0039 130.969 80.0039C132.445 80.0039 133.184 79.2188 133.184 77.6484V76.9922H133.16C132.703 77.7578 132.016 78.1406 131.098 78.1406C130.352 78.1406 129.75 77.875 129.293 77.3438C128.84 76.8086 128.613 76.0918 128.613 75.1934C128.613 74.1738 128.857 73.3633 129.346 72.7617C129.838 72.1602 130.51 71.8594 131.361 71.8594C132.17 71.8594 132.77 72.1836 133.16 72.832H133.184V72H134.145V77.5195ZM133.184 75.2871V74.4023C133.184 73.9258 133.021 73.5176 132.697 73.1777C132.377 72.8379 131.977 72.668 131.496 72.668C130.902 72.668 130.438 72.8848 130.102 73.3184C129.766 73.748 129.598 74.3516 129.598 75.1289C129.598 75.7969 129.758 76.332 130.078 76.7344C130.402 77.1328 130.83 77.332 131.361 77.332C131.9 77.332 132.338 77.1406 132.674 76.7578C133.014 76.375 133.184 75.8848 133.184 75.2871ZM136.582 70.4766C136.41 70.4766 136.264 70.418 136.143 70.3008C136.021 70.1836 135.961 70.0352 135.961 69.8555C135.961 69.6758 136.021 69.5273 136.143 69.4102C136.264 69.2891 136.41 69.2285 136.582 69.2285C136.758 69.2285 136.906 69.2891 137.027 69.4102C137.152 69.5273 137.215 69.6758 137.215 69.8555C137.215 70.0273 137.152 70.1738 137.027 70.2949C136.906 70.416 136.758 70.4766 136.582 70.4766ZM137.051 78H136.09V72H137.051V78ZM143.086 77.7246C142.625 78.002 142.078 78.1406 141.445 78.1406C140.59 78.1406 139.898 77.8633 139.371 77.3086C138.848 76.75 138.586 76.0273 138.586 75.1406C138.586 74.1523 138.869 73.3594 139.436 72.7617C140.002 72.1602 140.758 71.8594 141.703 71.8594C142.23 71.8594 142.695 71.957 143.098 72.1523V73.1367C142.652 72.8242 142.176 72.668 141.668 72.668C141.055 72.668 140.551 72.8887 140.156 73.3301C139.766 73.7676 139.57 74.3438 139.57 75.0586C139.57 75.7617 139.754 76.3164 140.121 76.7227C140.492 77.1289 140.988 77.332 141.609 77.332C142.133 77.332 142.625 77.1582 143.086 76.8105V77.7246ZM149.52 78H148.559V74.543C148.559 73.293 148.094 72.668 147.164 72.668C146.695 72.668 146.301 72.8496 145.98 73.2129C145.66 73.5723 145.5 74.0352 145.5 74.6016V78H144.539V69.1172H145.5V72.9961H145.523C145.984 72.2383 146.641 71.8594 147.492 71.8594C148.844 71.8594 149.52 72.6738 149.52 74.3027V78ZM155.631 78H154.67V77.0625H154.646C154.229 77.7812 153.613 78.1406 152.801 78.1406C152.203 78.1406 151.734 77.9824 151.395 77.666C151.059 77.3496 150.891 76.9297 150.891 76.4062C150.891 75.2852 151.551 74.6328 152.871 74.4492L154.67 74.1973C154.67 73.1777 154.258 72.668 153.434 72.668C152.711 72.668 152.059 72.9141 151.477 73.4062V72.4219C152.066 72.0469 152.746 71.8594 153.516 71.8594C154.926 71.8594 155.631 72.6055 155.631 74.0977V78ZM154.67 74.9648L153.223 75.1641C152.777 75.2266 152.441 75.3379 152.215 75.498C151.988 75.6543 151.875 75.9336 151.875 76.3359C151.875 76.6289 151.979 76.8691 152.186 77.0566C152.396 77.2402 152.676 77.332 153.023 77.332C153.5 77.332 153.893 77.166 154.201 76.834C154.514 76.498 154.67 76.0742 154.67 75.5625V74.9648ZM158.32 76.6641L157.383 79.5469H156.697L157.383 76.6641H158.32ZM163.465 78V69.5977H165.855C166.582 69.5977 167.158 69.7754 167.584 70.1309C168.01 70.4863 168.223 70.9492 168.223 71.5195C168.223 71.9961 168.094 72.4102 167.836 72.7617C167.578 73.1133 167.223 73.3633 166.77 73.5117V73.5352C167.336 73.6016 167.789 73.8164 168.129 74.1797C168.469 74.5391 168.639 75.0078 168.639 75.5859C168.639 76.3047 168.381 76.8867 167.865 77.332C167.35 77.7773 166.699 78 165.914 78H163.465ZM164.449 70.4883V73.2012H165.457C165.996 73.2012 166.42 73.0723 166.729 72.8145C167.037 72.5527 167.191 72.1855 167.191 71.7129C167.191 70.8965 166.654 70.4883 165.58 70.4883H164.449ZM164.449 74.0859V77.1094H165.785C166.363 77.1094 166.811 76.9727 167.127 76.6992C167.447 76.4258 167.607 76.0508 167.607 75.5742C167.607 74.582 166.932 74.0859 165.58 74.0859H164.449ZM170.707 70.4766C170.535 70.4766 170.389 70.418 170.268 70.3008C170.146 70.1836 170.086 70.0352 170.086 69.8555C170.086 69.6758 170.146 69.5273 170.268 69.4102C170.389 69.2891 170.535 69.2285 170.707 69.2285C170.883 69.2285 171.031 69.2891 171.152 69.4102C171.277 69.5273 171.34 69.6758 171.34 69.8555C171.34 70.0273 171.277 70.1738 171.152 70.2949C171.031 70.416 170.883 70.4766 170.707 70.4766ZM171.176 78H170.215V72H171.176V78ZM176.25 72.9727C176.082 72.8438 175.84 72.7793 175.523 72.7793C175.113 72.7793 174.77 72.9727 174.492 73.3594C174.219 73.7461 174.082 74.2734 174.082 74.9414V78H173.121V72H174.082V73.2363H174.105C174.242 72.8145 174.451 72.4863 174.732 72.252C175.014 72.0137 175.328 71.8945 175.676 71.8945C175.926 71.8945 176.117 71.9219 176.25 71.9766V72.9727ZM184.676 77.7246C184.215 78.002 183.668 78.1406 183.035 78.1406C182.18 78.1406 181.488 77.8633 180.961 77.3086C180.438 76.75 180.176 76.0273 180.176 75.1406C180.176 74.1523 180.459 73.3594 181.025 72.7617C181.592 72.1602 182.348 71.8594 183.293 71.8594C183.82 71.8594 184.285 71.957 184.688 72.1523V73.1367C184.242 72.8242 183.766 72.668 183.258 72.668C182.645 72.668 182.141 72.8887 181.746 73.3301C181.355 73.7676 181.16 74.3438 181.16 75.0586C181.16 75.7617 181.344 76.3164 181.711 76.7227C182.082 77.1289 182.578 77.332 183.199 77.332C183.723 77.332 184.215 77.1582 184.676 76.8105V77.7246ZM188.637 78.1406C187.75 78.1406 187.041 77.8613 186.51 77.3027C185.982 76.7402 185.719 75.9961 185.719 75.0703C185.719 74.0625 185.994 73.2754 186.545 72.709C187.096 72.1426 187.84 71.8594 188.777 71.8594C189.672 71.8594 190.369 72.1348 190.869 72.6855C191.373 73.2363 191.625 74 191.625 74.9766C191.625 75.9336 191.354 76.7012 190.811 77.2793C190.271 77.8535 189.547 78.1406 188.637 78.1406ZM188.707 72.668C188.09 72.668 187.602 72.8789 187.242 73.3008C186.883 73.7188 186.703 74.2969 186.703 75.0352C186.703 75.7461 186.885 76.3066 187.248 76.7168C187.611 77.127 188.098 77.332 188.707 77.332C189.328 77.332 189.805 77.1309 190.137 76.7285C190.473 76.3262 190.641 75.7539 190.641 75.0117C190.641 74.2617 190.473 73.6836 190.137 73.2773C189.805 72.8711 189.328 72.668 188.707 72.668ZM198.012 78H197.051V77.0508H197.027C196.629 77.7773 196.012 78.1406 195.176 78.1406C193.746 78.1406 193.031 77.2891 193.031 75.5859V72H193.986V75.4336C193.986 76.6992 194.471 77.332 195.439 77.332C195.908 77.332 196.293 77.1602 196.594 76.8164C196.898 76.4688 197.051 76.0156 197.051 75.457V72H198.012V78ZM200.941 77.1328H200.918V80.7598H199.957V72H200.918V73.0547H200.941C201.414 72.2578 202.105 71.8594 203.016 71.8594C203.789 71.8594 204.393 72.1289 204.826 72.668C205.26 73.2031 205.477 73.9219 205.477 74.8242C205.477 75.8281 205.232 76.6328 204.744 77.2383C204.256 77.8398 203.588 78.1406 202.74 78.1406C201.963 78.1406 201.363 77.8047 200.941 77.1328ZM200.918 74.7129V75.5508C200.918 76.0469 201.078 76.4688 201.398 76.8164C201.723 77.1602 202.133 77.332 202.629 77.332C203.211 77.332 203.666 77.1094 203.994 76.6641C204.326 76.2188 204.492 75.5996 204.492 74.8066C204.492 74.1387 204.338 73.6152 204.029 73.2363C203.721 72.8574 203.303 72.668 202.775 72.668C202.217 72.668 201.768 72.8633 201.428 73.2539C201.088 73.6406 200.918 74.127 200.918 74.7129ZM207.973 78H207.012V69.1172H207.973V78ZM214.74 75.2402H210.504C210.52 75.9082 210.699 76.4238 211.043 76.7871C211.387 77.1504 211.859 77.332 212.461 77.332C213.137 77.332 213.758 77.1094 214.324 76.6641V77.5664C213.797 77.9492 213.1 78.1406 212.232 78.1406C211.385 78.1406 210.719 77.8691 210.234 77.3262C209.75 76.7793 209.508 76.0117 209.508 75.0234C209.508 74.0898 209.771 73.3301 210.299 72.7441C210.83 72.1543 211.488 71.8594 212.273 71.8594C213.059 71.8594 213.666 72.1133 214.096 72.6211C214.525 73.1289 214.74 73.834 214.74 74.7363V75.2402ZM213.756 74.4258C213.752 73.8711 213.617 73.4395 213.352 73.1309C213.09 72.8223 212.725 72.668 212.256 72.668C211.803 72.668 211.418 72.8301 211.102 73.1543C210.785 73.4785 210.59 73.9023 210.516 74.4258H213.756ZM221.32 78H220.359V76.9805H220.336C219.891 77.7539 219.203 78.1406 218.273 78.1406C217.52 78.1406 216.916 77.873 216.463 77.3379C216.014 76.7988 215.789 76.0664 215.789 75.1406C215.789 74.1484 216.039 73.3535 216.539 72.7559C217.039 72.1582 217.705 71.8594 218.537 71.8594C219.361 71.8594 219.961 72.1836 220.336 72.832H220.359V69.1172H221.32V78ZM220.359 75.2871V74.4023C220.359 73.918 220.199 73.5078 219.879 73.1719C219.559 72.8359 219.152 72.668 218.66 72.668C218.074 72.668 217.613 72.8828 217.277 73.3125C216.941 73.7422 216.773 74.3359 216.773 75.0938C216.773 75.7852 216.934 76.332 217.254 76.7344C217.578 77.1328 218.012 77.332 218.555 77.332C219.09 77.332 219.523 77.1387 219.855 76.752C220.191 76.3652 220.359 75.877 220.359 75.2871ZM234.117 72L232.318 78H231.322L230.086 73.7051C230.039 73.541 230.008 73.3555 229.992 73.1484H229.969C229.957 73.2891 229.916 73.4707 229.846 73.6934L228.504 78H227.543L225.727 72H226.734L227.977 76.5117C228.016 76.6484 228.043 76.8281 228.059 77.0508H228.105C228.117 76.8789 228.152 76.6953 228.211 76.5L229.594 72H230.473L231.715 76.5234C231.754 76.668 231.783 76.8477 231.803 77.0625H231.85C231.857 76.9102 231.891 76.7305 231.949 76.5234L233.168 72H234.117ZM235.723 70.4766C235.551 70.4766 235.404 70.418 235.283 70.3008C235.162 70.1836 235.102 70.0352 235.102 69.8555C235.102 69.6758 235.162 69.5273 235.283 69.4102C235.404 69.2891 235.551 69.2285 235.723 69.2285C235.898 69.2285 236.047 69.2891 236.168 69.4102C236.293 69.5273 236.355 69.6758 236.355 69.8555C236.355 70.0273 236.293 70.1738 236.168 70.2949C236.047 70.416 235.898 70.4766 235.723 70.4766ZM236.191 78H235.23V72H236.191V78ZM240.92 77.9414C240.693 78.0664 240.395 78.1289 240.023 78.1289C238.973 78.1289 238.447 77.543 238.447 76.3711V72.8203H237.416V72H238.447V70.5352L239.408 70.2246V72H240.92V72.8203H239.408V76.2012C239.408 76.6035 239.477 76.8906 239.613 77.0625C239.75 77.2344 239.977 77.3203 240.293 77.3203C240.535 77.3203 240.744 77.2539 240.92 77.1211V77.9414ZM247.184 78H246.223V74.543C246.223 73.293 245.758 72.668 244.828 72.668C244.359 72.668 243.965 72.8496 243.645 73.2129C243.324 73.5723 243.164 74.0352 243.164 74.6016V78H242.203V69.1172H243.164V72.9961H243.188C243.648 72.2383 244.305 71.8594 245.156 71.8594C246.508 71.8594 247.184 72.6738 247.184 74.3027V78ZM13.957 95.1328H13.9336V96H12.9727V87.1172H13.9336V91.0547H13.957C14.4297 90.2578 15.1211 89.8594 16.0312 89.8594C16.8008 89.8594 17.4023 90.1289 17.8359 90.668C18.2734 91.2031 18.4922 91.9219 18.4922 92.8242C18.4922 93.8281 18.248 94.6328 17.7598 95.2383C17.2715 95.8398 16.6035 96.1406 15.7559 96.1406C14.9629 96.1406 14.3633 95.8047 13.957 95.1328ZM13.9336 92.7129V93.5508C13.9336 94.0469 14.0938 94.4688 14.4141 94.8164C14.7383 95.1602 15.1484 95.332 15.6445 95.332C16.2266 95.332 16.6816 95.1094 17.0098 94.6641C17.3418 94.2188 17.5078 93.5996 17.5078 92.8066C17.5078 92.1387 17.3535 91.6152 17.0449 91.2363C16.7363 90.8574 16.3184 90.668 15.791 90.668C15.2324 90.668 14.7832 90.8633 14.4434 91.2539C14.1035 91.6406 13.9336 92.127 13.9336 92.7129ZM22.5352 96.1406C21.6484 96.1406 20.9395 95.8613 20.4082 95.3027C19.8809 94.7402 19.6172 93.9961 19.6172 93.0703C19.6172 92.0625 19.8926 91.2754 20.4434 90.709C20.9941 90.1426 21.7383 89.8594 22.6758 89.8594C23.5703 89.8594 24.2676 90.1348 24.7676 90.6855C25.2715 91.2363 25.5234 92 25.5234 92.9766C25.5234 93.9336 25.252 94.7012 24.709 95.2793C24.1699 95.8535 23.4453 96.1406 22.5352 96.1406ZM22.6055 90.668C21.9883 90.668 21.5 90.8789 21.1406 91.3008C20.7812 91.7188 20.6016 92.2969 20.6016 93.0352C20.6016 93.7461 20.7832 94.3066 21.1465 94.7168C21.5098 95.127 21.9961 95.332 22.6055 95.332C23.2266 95.332 23.7031 95.1309 24.0352 94.7285C24.3711 94.3262 24.5391 93.7539 24.5391 93.0117C24.5391 92.2617 24.3711 91.6836 24.0352 91.2773C23.7031 90.8711 23.2266 90.668 22.6055 90.668ZM31.9102 96H30.9492V95.0508H30.9258C30.5273 95.7773 29.9102 96.1406 29.0742 96.1406C27.6445 96.1406 26.9297 95.2891 26.9297 93.5859V90H27.8848V93.4336C27.8848 94.6992 28.3691 95.332 29.3379 95.332C29.8066 95.332 30.1914 95.1602 30.4922 94.8164C30.7969 94.4688 30.9492 94.0156 30.9492 93.457V90H31.9102V96ZM38.9766 98.7598H38.0156V94.9688H37.9922C37.5742 95.75 36.8906 96.1406 35.9414 96.1406C35.1875 96.1406 34.582 95.873 34.125 95.3379C33.6719 94.7988 33.4453 94.0664 33.4453 93.1406C33.4453 92.1445 33.6953 91.3496 34.1953 90.7559C34.6953 90.1582 35.3672 89.8594 36.2109 89.8594C37.0312 89.8594 37.625 90.1836 37.9922 90.832H38.0156V90H38.9766V98.7598ZM38.0156 93.2988V92.4258C38.0156 91.9336 37.8535 91.5176 37.5293 91.1777C37.209 90.8379 36.8008 90.668 36.3047 90.668C35.7266 90.668 35.2695 90.8828 34.9336 91.3125C34.5977 91.7383 34.4297 92.3398 34.4297 93.1172C34.4297 93.8086 34.5918 94.3516 34.916 94.7461C35.2402 95.1367 35.6582 95.332 36.1699 95.332C36.7324 95.332 37.1797 95.1406 37.5117 94.7578C37.8477 94.3711 38.0156 93.8848 38.0156 93.2988ZM45.7734 96H44.8125V95.0508H44.7891C44.3906 95.7773 43.7734 96.1406 42.9375 96.1406C41.5078 96.1406 40.793 95.2891 40.793 93.5859V90H41.748V93.4336C41.748 94.6992 42.2324 95.332 43.2012 95.332C43.6699 95.332 44.0547 95.1602 44.3555 94.8164C44.6602 94.4688 44.8125 94.0156 44.8125 93.457V90H45.7734V96ZM52.541 93.2402H48.3047C48.3203 93.9082 48.5 94.4238 48.8438 94.7871C49.1875 95.1504 49.6602 95.332 50.2617 95.332C50.9375 95.332 51.5586 95.1094 52.125 94.6641V95.5664C51.5977 95.9492 50.9004 96.1406 50.0332 96.1406C49.1855 96.1406 48.5195 95.8691 48.0352 95.3262C47.5508 94.7793 47.3086 94.0117 47.3086 93.0234C47.3086 92.0898 47.5723 91.3301 48.0996 90.7441C48.6309 90.1543 49.2891 89.8594 50.0742 89.8594C50.8594 89.8594 51.4668 90.1133 51.8965 90.6211C52.3262 91.1289 52.541 91.834 52.541 92.7363V93.2402ZM51.5566 92.4258C51.5527 91.8711 51.418 91.4395 51.1523 91.1309C50.8906 90.8223 50.5254 90.668 50.0566 90.668C49.6035 90.668 49.2188 90.8301 48.9023 91.1543C48.5859 91.4785 48.3906 91.9023 48.3164 92.4258H51.5566ZM59.8008 96.1406C58.9141 96.1406 58.2051 95.8613 57.6738 95.3027C57.1465 94.7402 56.8828 93.9961 56.8828 93.0703C56.8828 92.0625 57.1582 91.2754 57.709 90.709C58.2598 90.1426 59.0039 89.8594 59.9414 89.8594C60.8359 89.8594 61.5332 90.1348 62.0332 90.6855C62.5371 91.2363 62.7891 92 62.7891 92.9766C62.7891 93.9336 62.5176 94.7012 61.9746 95.2793C61.4355 95.8535 60.7109 96.1406 59.8008 96.1406ZM59.8711 90.668C59.2539 90.668 58.7656 90.8789 58.4062 91.3008C58.0469 91.7188 57.8672 92.2969 57.8672 93.0352C57.8672 93.7461 58.0488 94.3066 58.4121 94.7168C58.7754 95.127 59.2617 95.332 59.8711 95.332C60.4922 95.332 60.9688 95.1309 61.3008 94.7285C61.6367 94.3262 61.8047 93.7539 61.8047 93.0117C61.8047 92.2617 61.6367 91.6836 61.3008 91.2773C60.9688 90.8711 60.4922 90.668 59.8711 90.668ZM67.2891 87.9609C67.1016 87.8555 66.8887 87.8027 66.6504 87.8027C65.9785 87.8027 65.6426 88.2266 65.6426 89.0742V90H67.0488V90.8203H65.6426V96H64.6875V90.8203H63.6621V90H64.6875V89.0273C64.6875 88.3984 64.8691 87.9023 65.2324 87.5391C65.5957 87.1719 66.0488 86.9883 66.5918 86.9883C66.8848 86.9883 67.1172 87.0234 67.2891 87.0938V87.9609ZM71.8711 88.4766C71.6992 88.4766 71.5527 88.418 71.4316 88.3008C71.3105 88.1836 71.25 88.0352 71.25 87.8555C71.25 87.6758 71.3105 87.5273 71.4316 87.4102C71.5527 87.2891 71.6992 87.2285 71.8711 87.2285C72.0469 87.2285 72.1953 87.2891 72.3164 87.4102C72.4414 87.5273 72.5039 87.6758 72.5039 87.8555C72.5039 88.0273 72.4414 88.1738 72.3164 88.2949C72.1953 88.416 72.0469 88.4766 71.8711 88.4766ZM72.3398 96H71.3789V90H72.3398V96ZM79.2656 96H78.3047V92.5781C78.3047 91.3047 77.8398 90.668 76.9102 90.668C76.4297 90.668 76.0312 90.8496 75.7148 91.2129C75.4023 91.5723 75.2461 92.0273 75.2461 92.5781V96H74.2852V90H75.2461V90.9961H75.2695C75.7227 90.2383 76.3789 89.8594 77.2383 89.8594C77.8945 89.8594 78.3965 90.0723 78.7441 90.498C79.0918 90.9199 79.2656 91.5312 79.2656 92.332V96ZM86.2031 96H85.2422V94.9805H85.2188C84.7734 95.7539 84.0859 96.1406 83.1562 96.1406C82.4023 96.1406 81.7988 95.873 81.3457 95.3379C80.8965 94.7988 80.6719 94.0664 80.6719 93.1406C80.6719 92.1484 80.9219 91.3535 81.4219 90.7559C81.9219 90.1582 82.5879 89.8594 83.4199 89.8594C84.2441 89.8594 84.8438 90.1836 85.2188 90.832H85.2422V87.1172H86.2031V96ZM85.2422 93.2871V92.4023C85.2422 91.918 85.082 91.5078 84.7617 91.1719C84.4414 90.8359 84.0352 90.668 83.543 90.668C82.957 90.668 82.4961 90.8828 82.1602 91.3125C81.8242 91.7422 81.6562 92.3359 81.6562 93.0938C81.6562 93.7852 81.8164 94.332 82.1367 94.7344C82.4609 95.1328 82.8945 95.332 83.4375 95.332C83.9727 95.332 84.4062 95.1387 84.7383 94.752C85.0742 94.3652 85.2422 93.877 85.2422 93.2871ZM88.6406 88.4766C88.4688 88.4766 88.3223 88.418 88.2012 88.3008C88.0801 88.1836 88.0195 88.0352 88.0195 87.8555C88.0195 87.6758 88.0801 87.5273 88.2012 87.4102C88.3223 87.2891 88.4688 87.2285 88.6406 87.2285C88.8164 87.2285 88.9648 87.2891 89.0859 87.4102C89.2109 87.5273 89.2734 87.6758 89.2734 87.8555C89.2734 88.0273 89.2109 88.1738 89.0859 88.2949C88.9648 88.416 88.8164 88.4766 88.6406 88.4766ZM89.1094 96H88.1484V90H89.1094V96ZM95.877 93.2402H91.6406C91.6562 93.9082 91.8359 94.4238 92.1797 94.7871C92.5234 95.1504 92.9961 95.332 93.5977 95.332C94.2734 95.332 94.8945 95.1094 95.4609 94.6641V95.5664C94.9336 95.9492 94.2363 96.1406 93.3691 96.1406C92.5215 96.1406 91.8555 95.8691 91.3711 95.3262C90.8867 94.7793 90.6445 94.0117 90.6445 93.0234C90.6445 92.0898 90.9082 91.3301 91.4355 90.7441C91.9668 90.1543 92.625 89.8594 93.4102 89.8594C94.1953 89.8594 94.8027 90.1133 95.2324 90.6211C95.6621 91.1289 95.877 91.834 95.877 92.7363V93.2402ZM94.8926 92.4258C94.8887 91.8711 94.7539 91.4395 94.4883 91.1309C94.2266 90.8223 93.8613 90.668 93.3926 90.668C92.9395 90.668 92.5547 90.8301 92.2383 91.1543C91.9219 91.4785 91.7266 91.9023 91.6523 92.4258H94.8926ZM109.148 96H108.188V92.5547C108.188 91.8906 108.084 91.4102 107.877 91.1133C107.674 90.8164 107.33 90.668 106.846 90.668C106.436 90.668 106.086 90.8555 105.797 91.2305C105.512 91.6055 105.369 92.0547 105.369 92.5781V96H104.408V92.4375C104.408 91.2578 103.953 90.668 103.043 90.668C102.621 90.668 102.273 90.8457 102 91.2012C101.727 91.5527 101.59 92.0117 101.59 92.5781V96H100.629V90H101.59V90.9492H101.613C102.039 90.2227 102.66 89.8594 103.477 89.8594C103.887 89.8594 104.244 89.9746 104.549 90.2051C104.854 90.4316 105.062 90.7305 105.176 91.1016C105.621 90.2734 106.285 89.8594 107.168 89.8594C108.488 89.8594 109.148 90.6738 109.148 92.3027V96ZM115.816 96H114.855V95.0508H114.832C114.434 95.7773 113.816 96.1406 112.98 96.1406C111.551 96.1406 110.836 95.2891 110.836 93.5859V90H111.791V93.4336C111.791 94.6992 112.275 95.332 113.244 95.332C113.713 95.332 114.098 95.1602 114.398 94.8164C114.703 94.4688 114.855 94.0156 114.855 93.457V90H115.816V96ZM117.398 95.7832V94.752C117.922 95.1387 118.498 95.332 119.127 95.332C119.971 95.332 120.393 95.0508 120.393 94.4883C120.393 94.3281 120.355 94.1934 120.281 94.084C120.211 93.9707 120.113 93.8711 119.988 93.7852C119.867 93.6992 119.723 93.623 119.555 93.5566C119.391 93.4863 119.213 93.4141 119.021 93.3398C118.756 93.2344 118.521 93.1289 118.318 93.0234C118.119 92.9141 117.951 92.793 117.814 92.6602C117.682 92.5234 117.58 92.3691 117.51 92.1973C117.443 92.0254 117.41 91.8242 117.41 91.5938C117.41 91.3125 117.475 91.0645 117.604 90.8496C117.732 90.6309 117.904 90.4492 118.119 90.3047C118.334 90.1562 118.578 90.0449 118.852 89.9707C119.129 89.8965 119.414 89.8594 119.707 89.8594C120.227 89.8594 120.691 89.9492 121.102 90.1289V91.1016C120.66 90.8125 120.152 90.668 119.578 90.668C119.398 90.668 119.236 90.6895 119.092 90.7324C118.947 90.7715 118.822 90.8281 118.717 90.9023C118.615 90.9766 118.535 91.0664 118.477 91.1719C118.422 91.2734 118.395 91.3867 118.395 91.5117C118.395 91.668 118.422 91.7988 118.477 91.9043C118.535 92.0098 118.619 92.1035 118.729 92.1855C118.838 92.2676 118.971 92.3418 119.127 92.4082C119.283 92.4746 119.461 92.5469 119.66 92.625C119.926 92.7266 120.164 92.832 120.375 92.9414C120.586 93.0469 120.766 93.168 120.914 93.3047C121.062 93.4375 121.176 93.5918 121.254 93.7676C121.336 93.9434 121.377 94.1523 121.377 94.3945C121.377 94.6914 121.311 94.9492 121.178 95.168C121.049 95.3867 120.875 95.5684 120.656 95.7129C120.438 95.8574 120.186 95.9648 119.9 96.0352C119.615 96.1055 119.316 96.1406 119.004 96.1406C118.387 96.1406 117.852 96.0215 117.398 95.7832ZM123.352 88.4766C123.18 88.4766 123.033 88.418 122.912 88.3008C122.791 88.1836 122.73 88.0352 122.73 87.8555C122.73 87.6758 122.791 87.5273 122.912 87.4102C123.033 87.2891 123.18 87.2285 123.352 87.2285C123.527 87.2285 123.676 87.2891 123.797 87.4102C123.922 87.5273 123.984 87.6758 123.984 87.8555C123.984 88.0273 123.922 88.1738 123.797 88.2949C123.676 88.416 123.527 88.4766 123.352 88.4766ZM123.82 96H122.859V90H123.82V96ZM129.855 95.7246C129.395 96.002 128.848 96.1406 128.215 96.1406C127.359 96.1406 126.668 95.8633 126.141 95.3086C125.617 94.75 125.355 94.0273 125.355 93.1406C125.355 92.1523 125.639 91.3594 126.205 90.7617C126.771 90.1602 127.527 89.8594 128.473 89.8594C129 89.8594 129.465 89.957 129.867 90.1523V91.1367C129.422 90.8242 128.945 90.668 128.438 90.668C127.824 90.668 127.32 90.8887 126.926 91.3301C126.535 91.7676 126.34 92.3438 126.34 93.0586C126.34 93.7617 126.523 94.3164 126.891 94.7227C127.262 95.1289 127.758 95.332 128.379 95.332C128.902 95.332 129.395 95.1582 129.855 94.8105V95.7246ZM135.094 88.4766C134.922 88.4766 134.775 88.418 134.654 88.3008C134.533 88.1836 134.473 88.0352 134.473 87.8555C134.473 87.6758 134.533 87.5273 134.654 87.4102C134.775 87.2891 134.922 87.2285 135.094 87.2285C135.27 87.2285 135.418 87.2891 135.539 87.4102C135.664 87.5273 135.727 87.6758 135.727 87.8555C135.727 88.0273 135.664 88.1738 135.539 88.2949C135.418 88.416 135.27 88.4766 135.094 88.4766ZM135.562 96H134.602V90H135.562V96ZM137.145 95.7832V94.752C137.668 95.1387 138.244 95.332 138.873 95.332C139.717 95.332 140.139 95.0508 140.139 94.4883C140.139 94.3281 140.102 94.1934 140.027 94.084C139.957 93.9707 139.859 93.8711 139.734 93.7852C139.613 93.6992 139.469 93.623 139.301 93.5566C139.137 93.4863 138.959 93.4141 138.768 93.3398C138.502 93.2344 138.268 93.1289 138.064 93.0234C137.865 92.9141 137.697 92.793 137.561 92.6602C137.428 92.5234 137.326 92.3691 137.256 92.1973C137.189 92.0254 137.156 91.8242 137.156 91.5938C137.156 91.3125 137.221 91.0645 137.35 90.8496C137.479 90.6309 137.65 90.4492 137.865 90.3047C138.08 90.1562 138.324 90.0449 138.598 89.9707C138.875 89.8965 139.16 89.8594 139.453 89.8594C139.973 89.8594 140.438 89.9492 140.848 90.1289V91.1016C140.406 90.8125 139.898 90.668 139.324 90.668C139.145 90.668 138.982 90.6895 138.838 90.7324C138.693 90.7715 138.568 90.8281 138.463 90.9023C138.361 90.9766 138.281 91.0664 138.223 91.1719C138.168 91.2734 138.141 91.3867 138.141 91.5117C138.141 91.668 138.168 91.7988 138.223 91.9043C138.281 92.0098 138.365 92.1035 138.475 92.1855C138.584 92.2676 138.717 92.3418 138.873 92.4082C139.029 92.4746 139.207 92.5469 139.406 92.625C139.672 92.7266 139.91 92.832 140.121 92.9414C140.332 93.0469 140.512 93.168 140.66 93.3047C140.809 93.4375 140.922 93.5918 141 93.7676C141.082 93.9434 141.123 94.1523 141.123 94.3945C141.123 94.6914 141.057 94.9492 140.924 95.168C140.795 95.3867 140.621 95.5684 140.402 95.7129C140.184 95.8574 139.932 95.9648 139.646 96.0352C139.361 96.1055 139.062 96.1406 138.75 96.1406C138.133 96.1406 137.598 96.0215 137.145 95.7832ZM150.193 96H149.232V95.0625H149.209C148.791 95.7812 148.176 96.1406 147.363 96.1406C146.766 96.1406 146.297 95.9824 145.957 95.666C145.621 95.3496 145.453 94.9297 145.453 94.4062C145.453 93.2852 146.113 92.6328 147.434 92.4492L149.232 92.1973C149.232 91.1777 148.82 90.668 147.996 90.668C147.273 90.668 146.621 90.9141 146.039 91.4062V90.4219C146.629 90.0469 147.309 89.8594 148.078 89.8594C149.488 89.8594 150.193 90.6055 150.193 92.0977V96ZM149.232 92.9648L147.785 93.1641C147.34 93.2266 147.004 93.3379 146.777 93.498C146.551 93.6543 146.438 93.9336 146.438 94.3359C146.438 94.6289 146.541 94.8691 146.748 95.0566C146.959 95.2402 147.238 95.332 147.586 95.332C148.062 95.332 148.455 95.166 148.764 94.834C149.076 94.498 149.232 94.0742 149.232 93.5625V92.9648ZM156.984 96H156.023V92.5781C156.023 91.3047 155.559 90.668 154.629 90.668C154.148 90.668 153.75 90.8496 153.434 91.2129C153.121 91.5723 152.965 92.0273 152.965 92.5781V96H152.004V90H152.965V90.9961H152.988C153.441 90.2383 154.098 89.8594 154.957 89.8594C155.613 89.8594 156.115 90.0723 156.463 90.498C156.811 90.9199 156.984 91.5312 156.984 92.332V96ZM166.916 93.2402H162.68C162.695 93.9082 162.875 94.4238 163.219 94.7871C163.562 95.1504 164.035 95.332 164.637 95.332C165.312 95.332 165.934 95.1094 166.5 94.6641V95.5664C165.973 95.9492 165.275 96.1406 164.408 96.1406C163.561 96.1406 162.895 95.8691 162.41 95.3262C161.926 94.7793 161.684 94.0117 161.684 93.0234C161.684 92.0898 161.947 91.3301 162.475 90.7441C163.006 90.1543 163.664 89.8594 164.449 89.8594C165.234 89.8594 165.842 90.1133 166.271 90.6211C166.701 91.1289 166.916 91.834 166.916 92.7363V93.2402ZM165.932 92.4258C165.928 91.8711 165.793 91.4395 165.527 91.1309C165.266 90.8223 164.9 90.668 164.432 90.668C163.979 90.668 163.594 90.8301 163.277 91.1543C162.961 91.4785 162.766 91.9023 162.691 92.4258H165.932ZM172.758 90L170.742 93.0352L172.723 96H171.604L170.426 94.0547C170.352 93.9336 170.264 93.7812 170.162 93.5977H170.139C170.119 93.6328 170.027 93.7852 169.863 94.0547L168.662 96H167.555L169.6 93.0586L167.643 90H168.762L169.922 92.0508C170.008 92.2031 170.092 92.3594 170.174 92.5195H170.197L171.697 90H172.758ZM174.867 95.1328H174.844V98.7598H173.883V90H174.844V91.0547H174.867C175.34 90.2578 176.031 89.8594 176.941 89.8594C177.715 89.8594 178.318 90.1289 178.752 90.668C179.186 91.2031 179.402 91.9219 179.402 92.8242C179.402 93.8281 179.158 94.6328 178.67 95.2383C178.182 95.8398 177.514 96.1406 176.666 96.1406C175.889 96.1406 175.289 95.8047 174.867 95.1328ZM174.844 92.7129V93.5508C174.844 94.0469 175.004 94.4688 175.324 94.8164C175.648 95.1602 176.059 95.332 176.555 95.332C177.137 95.332 177.592 95.1094 177.92 94.6641C178.252 94.2188 178.418 93.5996 178.418 92.8066C178.418 92.1387 178.264 91.6152 177.955 91.2363C177.646 90.8574 177.229 90.668 176.701 90.668C176.143 90.668 175.693 90.8633 175.354 91.2539C175.014 91.6406 174.844 92.127 174.844 92.7129ZM185.76 93.2402H181.523C181.539 93.9082 181.719 94.4238 182.062 94.7871C182.406 95.1504 182.879 95.332 183.48 95.332C184.156 95.332 184.777 95.1094 185.344 94.6641V95.5664C184.816 95.9492 184.119 96.1406 183.252 96.1406C182.404 96.1406 181.738 95.8691 181.254 95.3262C180.77 94.7793 180.527 94.0117 180.527 93.0234C180.527 92.0898 180.791 91.3301 181.318 90.7441C181.85 90.1543 182.508 89.8594 183.293 89.8594C184.078 89.8594 184.686 90.1133 185.115 90.6211C185.545 91.1289 185.76 91.834 185.76 92.7363V93.2402ZM184.775 92.4258C184.771 91.8711 184.637 91.4395 184.371 91.1309C184.109 90.8223 183.744 90.668 183.275 90.668C182.822 90.668 182.438 90.8301 182.121 91.1543C181.805 91.4785 181.609 91.9023 181.535 92.4258H184.775ZM190.348 90.9727C190.18 90.8438 189.938 90.7793 189.621 90.7793C189.211 90.7793 188.867 90.9727 188.59 91.3594C188.316 91.7461 188.18 92.2734 188.18 92.9414V96H187.219V90H188.18V91.2363H188.203C188.34 90.8145 188.549 90.4863 188.83 90.252C189.111 90.0137 189.426 89.8945 189.773 89.8945C190.023 89.8945 190.215 89.9219 190.348 89.9766V90.9727ZM191.883 88.4766C191.711 88.4766 191.564 88.418 191.443 88.3008C191.322 88.1836 191.262 88.0352 191.262 87.8555C191.262 87.6758 191.322 87.5273 191.443 87.4102C191.564 87.2891 191.711 87.2285 191.883 87.2285C192.059 87.2285 192.207 87.2891 192.328 87.4102C192.453 87.5273 192.516 87.6758 192.516 87.8555C192.516 88.0273 192.453 88.1738 192.328 88.2949C192.207 88.416 192.059 88.4766 191.883 88.4766ZM192.352 96H191.391V90H192.352V96ZM199.119 93.2402H194.883C194.898 93.9082 195.078 94.4238 195.422 94.7871C195.766 95.1504 196.238 95.332 196.84 95.332C197.516 95.332 198.137 95.1094 198.703 94.6641V95.5664C198.176 95.9492 197.479 96.1406 196.611 96.1406C195.764 96.1406 195.098 95.8691 194.613 95.3262C194.129 94.7793 193.887 94.0117 193.887 93.0234C193.887 92.0898 194.15 91.3301 194.678 90.7441C195.209 90.1543 195.867 89.8594 196.652 89.8594C197.438 89.8594 198.045 90.1133 198.475 90.6211C198.904 91.1289 199.119 91.834 199.119 92.7363V93.2402ZM198.135 92.4258C198.131 91.8711 197.996 91.4395 197.73 91.1309C197.469 90.8223 197.104 90.668 196.635 90.668C196.182 90.668 195.797 90.8301 195.48 91.1543C195.164 91.4785 194.969 91.9023 194.895 92.4258H198.135ZM205.559 96H204.598V92.5781C204.598 91.3047 204.133 90.668 203.203 90.668C202.723 90.668 202.324 90.8496 202.008 91.2129C201.695 91.5723 201.539 92.0273 201.539 92.5781V96H200.578V90H201.539V90.9961H201.562C202.016 90.2383 202.672 89.8594 203.531 89.8594C204.188 89.8594 204.689 90.0723 205.037 90.498C205.385 90.9199 205.559 91.5312 205.559 92.332V96ZM211.465 95.7246C211.004 96.002 210.457 96.1406 209.824 96.1406C208.969 96.1406 208.277 95.8633 207.75 95.3086C207.227 94.75 206.965 94.0273 206.965 93.1406C206.965 92.1523 207.248 91.3594 207.814 90.7617C208.381 90.1602 209.137 89.8594 210.082 89.8594C210.609 89.8594 211.074 89.957 211.477 90.1523V91.1367C211.031 90.8242 210.555 90.668 210.047 90.668C209.434 90.668 208.93 90.8887 208.535 91.3301C208.145 91.7676 207.949 92.3438 207.949 93.0586C207.949 93.7617 208.133 94.3164 208.5 94.7227C208.871 95.1289 209.367 95.332 209.988 95.332C210.512 95.332 211.004 95.1582 211.465 94.8105V95.7246ZM217.74 93.2402H213.504C213.52 93.9082 213.699 94.4238 214.043 94.7871C214.387 95.1504 214.859 95.332 215.461 95.332C216.137 95.332 216.758 95.1094 217.324 94.6641V95.5664C216.797 95.9492 216.1 96.1406 215.232 96.1406C214.385 96.1406 213.719 95.8691 213.234 95.3262C212.75 94.7793 212.508 94.0117 212.508 93.0234C212.508 92.0898 212.771 91.3301 213.299 90.7441C213.83 90.1543 214.488 89.8594 215.273 89.8594C216.059 89.8594 216.666 90.1133 217.096 90.6211C217.525 91.1289 217.74 91.834 217.74 92.7363V93.2402ZM216.756 92.4258C216.752 91.8711 216.617 91.4395 216.352 91.1309C216.09 90.8223 215.725 90.668 215.256 90.668C214.803 90.668 214.418 90.8301 214.102 91.1543C213.785 91.4785 213.59 91.9023 213.516 92.4258H216.756ZM227.268 90L224.508 96.9609C224.016 98.2031 223.324 98.8242 222.434 98.8242C222.184 98.8242 221.975 98.7988 221.807 98.748V97.8867C222.014 97.957 222.203 97.9922 222.375 97.9922C222.859 97.9922 223.223 97.7031 223.465 97.125L223.945 95.9883L221.602 90H222.668L224.291 94.6172C224.311 94.6758 224.352 94.8281 224.414 95.0742H224.449C224.469 94.9805 224.508 94.832 224.566 94.6289L226.271 90H227.268ZM230.812 96.1406C229.926 96.1406 229.217 95.8613 228.686 95.3027C228.158 94.7402 227.895 93.9961 227.895 93.0703C227.895 92.0625 228.17 91.2754 228.721 90.709C229.271 90.1426 230.016 89.8594 230.953 89.8594C231.848 89.8594 232.545 90.1348 233.045 90.6855C233.549 91.2363 233.801 92 233.801 92.9766C233.801 93.9336 233.529 94.7012 232.986 95.2793C232.447 95.8535 231.723 96.1406 230.812 96.1406ZM230.883 90.668C230.266 90.668 229.777 90.8789 229.418 91.3008C229.059 91.7188 228.879 92.2969 228.879 93.0352C228.879 93.7461 229.061 94.3066 229.424 94.7168C229.787 95.127 230.273 95.332 230.883 95.332C231.504 95.332 231.98 95.1309 232.312 94.7285C232.648 94.3262 232.816 93.7539 232.816 93.0117C232.816 92.2617 232.648 91.6836 232.312 91.2773C231.98 90.8711 231.504 90.668 230.883 90.668ZM240.188 96H239.227V95.0508H239.203C238.805 95.7773 238.188 96.1406 237.352 96.1406C235.922 96.1406 235.207 95.2891 235.207 93.5859V90H236.162V93.4336C236.162 94.6992 236.646 95.332 237.615 95.332C238.084 95.332 238.469 95.1602 238.77 94.8164C239.074 94.4688 239.227 94.0156 239.227 93.457V90H240.188V96ZM18.0938 114H17.1328V112.98H17.1094C16.6641 113.754 15.9766 114.141 15.0469 114.141C14.293 114.141 13.6895 113.873 13.2363 113.338C12.7871 112.799 12.5625 112.066 12.5625 111.141C12.5625 110.148 12.8125 109.354 13.3125 108.756C13.8125 108.158 14.4785 107.859 15.3105 107.859C16.1348 107.859 16.7344 108.184 17.1094 108.832H17.1328V105.117H18.0938V114ZM17.1328 111.287V110.402C17.1328 109.918 16.9727 109.508 16.6523 109.172C16.332 108.836 15.9258 108.668 15.4336 108.668C14.8477 108.668 14.3867 108.883 14.0508 109.312C13.7148 109.742 13.5469 110.336 13.5469 111.094C13.5469 111.785 13.707 112.332 14.0273 112.734C14.3516 113.133 14.7852 113.332 15.3281 113.332C15.8633 113.332 16.2969 113.139 16.6289 112.752C16.9648 112.365 17.1328 111.877 17.1328 111.287ZM22.5469 114.141C21.6602 114.141 20.9512 113.861 20.4199 113.303C19.8926 112.74 19.6289 111.996 19.6289 111.07C19.6289 110.062 19.9043 109.275 20.4551 108.709C21.0059 108.143 21.75 107.859 22.6875 107.859C23.582 107.859 24.2793 108.135 24.7793 108.686C25.2832 109.236 25.5352 110 25.5352 110.977C25.5352 111.934 25.2637 112.701 24.7207 113.279C24.1816 113.854 23.457 114.141 22.5469 114.141ZM22.6172 108.668C22 108.668 21.5117 108.879 21.1523 109.301C20.793 109.719 20.6133 110.297 20.6133 111.035C20.6133 111.746 20.7949 112.307 21.1582 112.717C21.5215 113.127 22.0078 113.332 22.6172 113.332C23.2383 113.332 23.7148 113.131 24.0469 112.729C24.3828 112.326 24.5508 111.754 24.5508 111.012C24.5508 110.262 24.3828 109.684 24.0469 109.277C23.7148 108.871 23.2383 108.668 22.6172 108.668ZM32.0508 114H31.0898V110.578C31.0898 109.305 30.625 108.668 29.6953 108.668C29.2148 108.668 28.8164 108.85 28.5 109.213C28.1875 109.572 28.0312 110.027 28.0312 110.578V114H27.0703V108H28.0312V108.996H28.0547C28.5078 108.238 29.1641 107.859 30.0234 107.859C30.6797 107.859 31.1816 108.072 31.5293 108.498C31.877 108.92 32.0508 109.531 32.0508 110.332V114ZM36.6504 113.941C36.4238 114.066 36.125 114.129 35.7539 114.129C34.7031 114.129 34.1777 113.543 34.1777 112.371V108.82H33.1465V108H34.1777V106.535L35.1387 106.225V108H36.6504V108.82H35.1387V112.201C35.1387 112.604 35.207 112.891 35.3438 113.062C35.4805 113.234 35.707 113.32 36.0234 113.32C36.2656 113.32 36.4746 113.254 36.6504 113.121V113.941ZM48.7852 108L46.9863 114H45.9902L44.7539 109.705C44.707 109.541 44.6758 109.355 44.6602 109.148H44.6367C44.625 109.289 44.584 109.471 44.5137 109.693L43.1719 114H42.2109L40.3945 108H41.4023L42.6445 112.512C42.6836 112.648 42.7109 112.828 42.7266 113.051H42.7734C42.7852 112.879 42.8203 112.695 42.8789 112.5L44.2617 108H45.1406L46.3828 112.523C46.4219 112.668 46.4512 112.848 46.4707 113.062H46.5176C46.5254 112.91 46.5586 112.73 46.6172 112.523L47.8359 108H48.7852ZM54.1934 114H53.2324V113.062H53.209C52.791 113.781 52.1758 114.141 51.3633 114.141C50.7656 114.141 50.2969 113.982 49.957 113.666C49.6211 113.35 49.4531 112.93 49.4531 112.406C49.4531 111.285 50.1133 110.633 51.4336 110.449L53.2324 110.197C53.2324 109.178 52.8203 108.668 51.9961 108.668C51.2734 108.668 50.6211 108.914 50.0391 109.406V108.422C50.6289 108.047 51.3086 107.859 52.0781 107.859C53.4883 107.859 54.1934 108.605 54.1934 110.098V114ZM53.2324 110.965L51.7852 111.164C51.3398 111.227 51.0039 111.338 50.7773 111.498C50.5508 111.654 50.4375 111.934 50.4375 112.336C50.4375 112.629 50.541 112.869 50.748 113.057C50.959 113.24 51.2383 113.332 51.5859 113.332C52.0625 113.332 52.4551 113.166 52.7637 112.834C53.0762 112.498 53.2324 112.074 53.2324 111.562V110.965ZM60.9844 114H60.0234V110.578C60.0234 109.305 59.5586 108.668 58.6289 108.668C58.1484 108.668 57.75 108.85 57.4336 109.213C57.1211 109.572 56.9648 110.027 56.9648 110.578V114H56.0039V108H56.9648V108.996H56.9883C57.4414 108.238 58.0977 107.859 58.957 107.859C59.6133 107.859 60.1152 108.072 60.4629 108.498C60.8105 108.92 60.9844 109.531 60.9844 110.332V114ZM65.584 113.941C65.3574 114.066 65.0586 114.129 64.6875 114.129C63.6367 114.129 63.1113 113.543 63.1113 112.371V108.82H62.0801V108H63.1113V106.535L64.0723 106.225V108H65.584V108.82H64.0723V112.201C64.0723 112.604 64.1406 112.891 64.2773 113.062C64.4141 113.234 64.6406 113.32 64.957 113.32C65.1992 113.32 65.4082 113.254 65.584 113.121V113.941ZM72.9434 113.941C72.7168 114.066 72.418 114.129 72.0469 114.129C70.9961 114.129 70.4707 113.543 70.4707 112.371V108.82H69.4395V108H70.4707V106.535L71.4316 106.225V108H72.9434V108.82H71.4316V112.201C71.4316 112.604 71.5 112.891 71.6367 113.062C71.7734 113.234 72 113.32 72.3164 113.32C72.5586 113.32 72.7676 113.254 72.9434 113.121V113.941ZM76.7344 114.141C75.8477 114.141 75.1387 113.861 74.6074 113.303C74.0801 112.74 73.8164 111.996 73.8164 111.07C73.8164 110.062 74.0918 109.275 74.6426 108.709C75.1934 108.143 75.9375 107.859 76.875 107.859C77.7695 107.859 78.4668 108.135 78.9668 108.686C79.4707 109.236 79.7227 110 79.7227 110.977C79.7227 111.934 79.4512 112.701 78.9082 113.279C78.3691 113.854 77.6445 114.141 76.7344 114.141ZM76.8047 108.668C76.1875 108.668 75.6992 108.879 75.3398 109.301C74.9805 109.719 74.8008 110.297 74.8008 111.035C74.8008 111.746 74.9824 112.307 75.3457 112.717C75.709 113.127 76.1953 113.332 76.8047 113.332C77.4258 113.332 77.9023 113.131 78.2344 112.729C78.5703 112.326 78.7383 111.754 78.7383 111.012C78.7383 110.262 78.5703 109.684 78.2344 109.277C77.9023 108.871 77.4258 108.668 76.8047 108.668ZM93.0703 114H92.1094V110.555C92.1094 109.891 92.0059 109.41 91.7988 109.113C91.5957 108.816 91.252 108.668 90.7676 108.668C90.3574 108.668 90.0078 108.855 89.7188 109.23C89.4336 109.605 89.291 110.055 89.291 110.578V114H88.3301V110.438C88.3301 109.258 87.875 108.668 86.9648 108.668C86.543 108.668 86.1953 108.846 85.9219 109.201C85.6484 109.553 85.5117 110.012 85.5117 110.578V114H84.5508V108H85.5117V108.949H85.5352C85.9609 108.223 86.582 107.859 87.3984 107.859C87.8086 107.859 88.166 107.975 88.4707 108.205C88.7754 108.432 88.9844 108.73 89.0977 109.102C89.543 108.273 90.207 107.859 91.0898 107.859C92.4102 107.859 93.0703 108.674 93.0703 110.303V114ZM95.3789 106.477C95.207 106.477 95.0605 106.418 94.9395 106.301C94.8184 106.184 94.7578 106.035 94.7578 105.855C94.7578 105.676 94.8184 105.527 94.9395 105.41C95.0605 105.289 95.207 105.229 95.3789 105.229C95.5547 105.229 95.7031 105.289 95.8242 105.41C95.9492 105.527 96.0117 105.676 96.0117 105.855C96.0117 106.027 95.9492 106.174 95.8242 106.295C95.7031 106.416 95.5547 106.477 95.3789 106.477ZM95.8477 114H94.8867V108H95.8477V114ZM97.4297 113.783V112.752C97.9531 113.139 98.5293 113.332 99.1582 113.332C100.002 113.332 100.424 113.051 100.424 112.488C100.424 112.328 100.387 112.193 100.312 112.084C100.242 111.971 100.145 111.871 100.02 111.785C99.8984 111.699 99.7539 111.623 99.5859 111.557C99.4219 111.486 99.2441 111.414 99.0527 111.34C98.7871 111.234 98.5527 111.129 98.3496 111.023C98.1504 110.914 97.9824 110.793 97.8457 110.66C97.7129 110.523 97.6113 110.369 97.541 110.197C97.4746 110.025 97.4414 109.824 97.4414 109.594C97.4414 109.312 97.5059 109.064 97.6348 108.85C97.7637 108.631 97.9355 108.449 98.1504 108.305C98.3652 108.156 98.6094 108.045 98.8828 107.971C99.1602 107.896 99.4453 107.859 99.7383 107.859C100.258 107.859 100.723 107.949 101.133 108.129V109.102C100.691 108.812 100.184 108.668 99.6094 108.668C99.4297 108.668 99.2676 108.689 99.123 108.732C98.9785 108.771 98.8535 108.828 98.748 108.902C98.6465 108.977 98.5664 109.066 98.5078 109.172C98.4531 109.273 98.4258 109.387 98.4258 109.512C98.4258 109.668 98.4531 109.799 98.5078 109.904C98.5664 110.01 98.6504 110.104 98.7598 110.186C98.8691 110.268 99.002 110.342 99.1582 110.408C99.3145 110.475 99.4922 110.547 99.6914 110.625C99.957 110.727 100.195 110.832 100.406 110.941C100.617 111.047 100.797 111.168 100.945 111.305C101.094 111.438 101.207 111.592 101.285 111.768C101.367 111.943 101.408 112.152 101.408 112.395C101.408 112.691 101.342 112.949 101.209 113.168C101.08 113.387 100.906 113.568 100.688 113.713C100.469 113.857 100.217 113.965 99.9316 114.035C99.6465 114.105 99.3477 114.141 99.0352 114.141C98.418 114.141 97.8828 114.021 97.4297 113.783ZM102.527 113.783V112.752C103.051 113.139 103.627 113.332 104.256 113.332C105.1 113.332 105.521 113.051 105.521 112.488C105.521 112.328 105.484 112.193 105.41 112.084C105.34 111.971 105.242 111.871 105.117 111.785C104.996 111.699 104.852 111.623 104.684 111.557C104.52 111.486 104.342 111.414 104.15 111.34C103.885 111.234 103.65 111.129 103.447 111.023C103.248 110.914 103.08 110.793 102.943 110.66C102.811 110.523 102.709 110.369 102.639 110.197C102.572 110.025 102.539 109.824 102.539 109.594C102.539 109.312 102.604 109.064 102.732 108.85C102.861 108.631 103.033 108.449 103.248 108.305C103.463 108.156 103.707 108.045 103.98 107.971C104.258 107.896 104.543 107.859 104.836 107.859C105.355 107.859 105.82 107.949 106.23 108.129V109.102C105.789 108.812 105.281 108.668 104.707 108.668C104.527 108.668 104.365 108.689 104.221 108.732C104.076 108.771 103.951 108.828 103.846 108.902C103.744 108.977 103.664 109.066 103.605 109.172C103.551 109.273 103.523 109.387 103.523 109.512C103.523 109.668 103.551 109.799 103.605 109.904C103.664 110.01 103.748 110.104 103.857 110.186C103.967 110.268 104.1 110.342 104.256 110.408C104.412 110.475 104.59 110.547 104.789 110.625C105.055 110.727 105.293 110.832 105.504 110.941C105.715 111.047 105.895 111.168 106.043 111.305C106.191 111.438 106.305 111.592 106.383 111.768C106.465 111.943 106.506 112.152 106.506 112.395C106.506 112.691 106.439 112.949 106.307 113.168C106.178 113.387 106.004 113.568 105.785 113.713C105.566 113.857 105.314 113.965 105.029 114.035C104.744 114.105 104.445 114.141 104.133 114.141C103.516 114.141 102.98 114.021 102.527 113.783ZM109.213 105.598L109.102 111.633H108.311L108.205 105.598H109.213ZM108.721 114.105C108.541 114.105 108.387 114.043 108.258 113.918C108.133 113.793 108.07 113.641 108.07 113.461C108.07 113.281 108.133 113.129 108.258 113.004C108.387 112.875 108.541 112.811 108.721 112.811C108.896 112.811 109.049 112.875 109.178 113.004C109.307 113.129 109.371 113.281 109.371 113.461C109.371 113.641 109.307 113.793 109.178 113.918C109.049 114.043 108.896 114.105 108.721 114.105ZM114.82 114V105.598H117.141C120.102 105.598 121.582 106.963 121.582 109.693C121.582 110.99 121.17 112.033 120.346 112.822C119.525 113.607 118.426 114 117.047 114H114.82ZM115.805 106.488V113.109H117.059C118.16 113.109 119.018 112.814 119.631 112.225C120.244 111.635 120.551 110.799 120.551 109.717C120.551 107.564 119.406 106.488 117.117 106.488H115.805ZM127.4 114H126.439V113.062H126.416C125.998 113.781 125.383 114.141 124.57 114.141C123.973 114.141 123.504 113.982 123.164 113.666C122.828 113.35 122.66 112.93 122.66 112.406C122.66 111.285 123.32 110.633 124.641 110.449L126.439 110.197C126.439 109.178 126.027 108.668 125.203 108.668C124.48 108.668 123.828 108.914 123.246 109.406V108.422C123.836 108.047 124.516 107.859 125.285 107.859C126.695 107.859 127.4 108.605 127.4 110.098V114ZM126.439 110.965L124.992 111.164C124.547 111.227 124.211 111.338 123.984 111.498C123.758 111.654 123.645 111.934 123.645 112.336C123.645 112.629 123.748 112.869 123.955 113.057C124.166 113.24 124.445 113.332 124.793 113.332C125.27 113.332 125.662 113.166 125.971 112.834C126.283 112.498 126.439 112.074 126.439 111.562V110.965ZM131.994 113.941C131.768 114.066 131.469 114.129 131.098 114.129C130.047 114.129 129.521 113.543 129.521 112.371V108.82H128.49V108H129.521V106.535L130.482 106.225V108H131.994V108.82H130.482V112.201C130.482 112.604 130.551 112.891 130.688 113.062C130.824 113.234 131.051 113.32 131.367 113.32C131.609 113.32 131.818 113.254 131.994 113.121V113.941ZM138.1 111.24H133.863C133.879 111.908 134.059 112.424 134.402 112.787C134.746 113.15 135.219 113.332 135.82 113.332C136.496 113.332 137.117 113.109 137.684 112.664V113.566C137.156 113.949 136.459 114.141 135.592 114.141C134.744 114.141 134.078 113.869 133.594 113.326C133.109 112.779 132.867 112.012 132.867 111.023C132.867 110.09 133.131 109.33 133.658 108.744C134.189 108.154 134.848 107.859 135.633 107.859C136.418 107.859 137.025 108.113 137.455 108.621C137.885 109.129 138.1 109.834 138.1 110.736V111.24ZM137.115 110.426C137.111 109.871 136.977 109.439 136.711 109.131C136.449 108.822 136.084 108.668 135.615 108.668C135.162 108.668 134.777 108.83 134.461 109.154C134.145 109.479 133.949 109.902 133.875 110.426H137.115ZM147.463 111.621C147.463 112 147.391 112.346 147.246 112.658C147.105 112.967 146.904 113.232 146.643 113.455C146.385 113.674 146.074 113.844 145.711 113.965C145.348 114.086 144.947 114.146 144.51 114.146C143.709 114.146 143.072 113.994 142.6 113.689V112.658C143.166 113.104 143.814 113.326 144.545 113.326C144.838 113.326 145.102 113.289 145.336 113.215C145.574 113.141 145.777 113.033 145.945 112.893C146.117 112.752 146.248 112.582 146.338 112.383C146.432 112.184 146.479 111.959 146.479 111.709C146.479 110.611 145.697 110.062 144.135 110.062H143.438V109.248H144.1C145.482 109.248 146.174 108.732 146.174 107.701C146.174 106.748 145.646 106.271 144.592 106.271C143.998 106.271 143.441 106.471 142.922 106.869V105.938C143.457 105.617 144.094 105.457 144.832 105.457C145.184 105.457 145.502 105.506 145.787 105.604C146.072 105.701 146.316 105.838 146.52 106.014C146.723 106.189 146.879 106.4 146.988 106.646C147.102 106.893 147.158 107.164 147.158 107.461C147.158 108.566 146.6 109.277 145.482 109.594V109.617C145.768 109.648 146.031 109.719 146.273 109.828C146.516 109.934 146.725 110.072 146.9 110.244C147.076 110.416 147.213 110.619 147.311 110.854C147.412 111.084 147.463 111.34 147.463 111.621ZM152.104 113.941C151.877 114.066 151.578 114.129 151.207 114.129C150.156 114.129 149.631 113.543 149.631 112.371V108.82H148.6V108H149.631V106.535L150.592 106.225V108H152.104V108.82H150.592V112.201C150.592 112.604 150.66 112.891 150.797 113.062C150.934 113.234 151.16 113.32 151.477 113.32C151.719 113.32 151.928 113.254 152.104 113.121V113.941ZM158.367 114H157.406V110.543C157.406 109.293 156.941 108.668 156.012 108.668C155.543 108.668 155.148 108.85 154.828 109.213C154.508 109.572 154.348 110.035 154.348 110.602V114H153.387V105.117H154.348V108.996H154.371C154.832 108.238 155.488 107.859 156.34 107.859C157.691 107.859 158.367 108.674 158.367 110.303V114ZM163.254 111.035H160.055V110.279H163.254V111.035ZM169.693 111.434C169.693 111.844 169.623 112.215 169.482 112.547C169.342 112.879 169.141 113.164 168.879 113.402C168.621 113.641 168.309 113.824 167.941 113.953C167.574 114.082 167.166 114.146 166.717 114.146C165.936 114.146 165.355 114.029 164.977 113.795V112.775C165.547 113.143 166.131 113.326 166.729 113.326C167.033 113.326 167.307 113.281 167.549 113.191C167.795 113.102 168.004 112.977 168.176 112.816C168.348 112.656 168.479 112.463 168.568 112.236C168.662 112.01 168.709 111.762 168.709 111.492C168.709 110.945 168.525 110.518 168.158 110.209C167.791 109.896 167.258 109.74 166.559 109.74C166.445 109.74 166.326 109.742 166.201 109.746C166.076 109.75 165.951 109.756 165.826 109.764C165.701 109.768 165.578 109.773 165.457 109.781C165.34 109.789 165.232 109.799 165.135 109.811L165.422 105.598H169.307V106.465H166.254L166.084 108.932C166.209 108.924 166.342 108.918 166.482 108.914C166.623 108.906 166.748 108.902 166.857 108.902C167.303 108.902 167.701 108.961 168.053 109.078C168.404 109.195 168.701 109.363 168.943 109.582C169.189 109.797 169.375 110.062 169.5 110.379C169.629 110.691 169.693 111.043 169.693 111.434ZM174.24 113.941C174.014 114.066 173.715 114.129 173.344 114.129C172.293 114.129 171.768 113.543 171.768 112.371V108.82H170.736V108H171.768V106.535L172.729 106.225V108H174.24V108.82H172.729V112.201C172.729 112.604 172.797 112.891 172.934 113.062C173.07 113.234 173.297 113.32 173.613 113.32C173.855 113.32 174.064 113.254 174.24 113.121V113.941ZM180.504 114H179.543V110.543C179.543 109.293 179.078 108.668 178.148 108.668C177.68 108.668 177.285 108.85 176.965 109.213C176.645 109.572 176.484 110.035 176.484 110.602V114H175.523V105.117H176.484V108.996H176.508C176.969 108.238 177.625 107.859 178.477 107.859C179.828 107.859 180.504 108.674 180.504 110.303V114ZM185.742 114V105.598H188.062C191.023 105.598 192.504 106.963 192.504 109.693C192.504 110.99 192.092 112.033 191.268 112.822C190.447 113.607 189.348 114 187.969 114H185.742ZM186.727 106.488V113.109H187.98C189.082 113.109 189.939 112.814 190.553 112.225C191.166 111.635 191.473 110.799 191.473 109.717C191.473 107.564 190.328 106.488 188.039 106.488H186.727ZM198.85 111.24H194.613C194.629 111.908 194.809 112.424 195.152 112.787C195.496 113.15 195.969 113.332 196.57 113.332C197.246 113.332 197.867 113.109 198.434 112.664V113.566C197.906 113.949 197.209 114.141 196.342 114.141C195.494 114.141 194.828 113.869 194.344 113.326C193.859 112.779 193.617 112.012 193.617 111.023C193.617 110.09 193.881 109.33 194.408 108.744C194.939 108.154 195.598 107.859 196.383 107.859C197.168 107.859 197.775 108.113 198.205 108.621C198.635 109.129 198.85 109.834 198.85 110.736V111.24ZM197.865 110.426C197.861 109.871 197.727 109.439 197.461 109.131C197.199 108.822 196.834 108.668 196.365 108.668C195.912 108.668 195.527 108.83 195.211 109.154C194.895 109.479 194.699 109.902 194.625 110.426H197.865ZM204.398 113.725C203.938 114.002 203.391 114.141 202.758 114.141C201.902 114.141 201.211 113.863 200.684 113.309C200.16 112.75 199.898 112.027 199.898 111.141C199.898 110.152 200.182 109.359 200.748 108.762C201.314 108.16 202.07 107.859 203.016 107.859C203.543 107.859 204.008 107.957 204.41 108.152V109.137C203.965 108.824 203.488 108.668 202.98 108.668C202.367 108.668 201.863 108.889 201.469 109.33C201.078 109.768 200.883 110.344 200.883 111.059C200.883 111.762 201.066 112.316 201.434 112.723C201.805 113.129 202.301 113.332 202.922 113.332C203.445 113.332 203.938 113.158 204.398 112.811V113.725ZM210.674 111.24H206.438C206.453 111.908 206.633 112.424 206.977 112.787C207.32 113.15 207.793 113.332 208.395 113.332C209.07 113.332 209.691 113.109 210.258 112.664V113.566C209.73 113.949 209.033 114.141 208.166 114.141C207.318 114.141 206.652 113.869 206.168 113.326C205.684 112.779 205.441 112.012 205.441 111.023C205.441 110.09 205.705 109.33 206.232 108.744C206.764 108.154 207.422 107.859 208.207 107.859C208.992 107.859 209.6 108.113 210.029 108.621C210.459 109.129 210.674 109.834 210.674 110.736V111.24ZM209.689 110.426C209.686 109.871 209.551 109.439 209.285 109.131C209.023 108.822 208.658 108.668 208.189 108.668C207.736 108.668 207.352 108.83 207.035 109.154C206.719 109.479 206.523 109.902 206.449 110.426H209.689ZM220.652 114H219.691V110.555C219.691 109.891 219.588 109.41 219.381 109.113C219.178 108.816 218.834 108.668 218.35 108.668C217.939 108.668 217.59 108.855 217.301 109.23C217.016 109.605 216.873 110.055 216.873 110.578V114H215.912V110.438C215.912 109.258 215.457 108.668 214.547 108.668C214.125 108.668 213.777 108.846 213.504 109.201C213.23 109.553 213.094 110.012 213.094 110.578V114H212.133V108H213.094V108.949H213.117C213.543 108.223 214.164 107.859 214.98 107.859C215.391 107.859 215.748 107.975 216.053 108.205C216.357 108.432 216.566 108.73 216.68 109.102C217.125 108.273 217.789 107.859 218.672 107.859C219.992 107.859 220.652 108.674 220.652 110.303V114ZM223.453 113.133H223.43V114H222.469V105.117H223.43V109.055H223.453C223.926 108.258 224.617 107.859 225.527 107.859C226.297 107.859 226.898 108.129 227.332 108.668C227.77 109.203 227.988 109.922 227.988 110.824C227.988 111.828 227.744 112.633 227.256 113.238C226.768 113.84 226.1 114.141 225.252 114.141C224.459 114.141 223.859 113.805 223.453 113.133ZM223.43 110.713V111.551C223.43 112.047 223.59 112.469 223.91 112.816C224.234 113.16 224.645 113.332 225.141 113.332C225.723 113.332 226.178 113.109 226.506 112.664C226.838 112.219 227.004 111.6 227.004 110.807C227.004 110.139 226.85 109.615 226.541 109.236C226.232 108.857 225.814 108.668 225.287 108.668C224.729 108.668 224.279 108.863 223.939 109.254C223.6 109.641 223.43 110.127 223.43 110.713ZM234.346 111.24H230.109C230.125 111.908 230.305 112.424 230.648 112.787C230.992 113.15 231.465 113.332 232.066 113.332C232.742 113.332 233.363 113.109 233.93 112.664V113.566C233.402 113.949 232.705 114.141 231.838 114.141C230.99 114.141 230.324 113.869 229.84 113.326C229.355 112.779 229.113 112.012 229.113 111.023C229.113 110.09 229.377 109.33 229.904 108.744C230.436 108.154 231.094 107.859 231.879 107.859C232.664 107.859 233.271 108.113 233.701 108.621C234.131 109.129 234.346 109.834 234.346 110.736V111.24ZM233.361 110.426C233.357 109.871 233.223 109.439 232.957 109.131C232.695 108.822 232.33 108.668 231.861 108.668C231.408 108.668 231.023 108.83 230.707 109.154C230.391 109.479 230.195 109.902 230.121 110.426H233.361ZM238.934 108.973C238.766 108.844 238.523 108.779 238.207 108.779C237.797 108.779 237.453 108.973 237.176 109.359C236.902 109.746 236.766 110.273 236.766 110.941V114H235.805V108H236.766V109.236H236.789C236.926 108.814 237.135 108.486 237.416 108.252C237.697 108.014 238.012 107.895 238.359 107.895C238.609 107.895 238.801 107.922 238.934 107.977V108.973ZM240.311 114.129C240.131 114.129 239.977 114.064 239.848 113.936C239.723 113.807 239.66 113.652 239.66 113.473C239.66 113.293 239.723 113.139 239.848 113.01C239.977 112.877 240.131 112.811 240.311 112.811C240.494 112.811 240.65 112.877 240.779 113.01C240.908 113.139 240.973 113.293 240.973 113.473C240.973 113.652 240.908 113.807 240.779 113.936C240.65 114.064 240.494 114.129 240.311 114.129Z" fill="#808080"/>
<path d="M12 220H249V268H12V220Z" fill="#F1563F"/>
<path d="M98.1074 249V238.979H105.354V240.161H99.4336V243.23H104.978V244.406H99.4336V247.817H105.586V249H98.1074ZM106.399 249L110.275 243.777L106.857 238.979H108.437L110.255 241.549C110.633 242.082 110.902 242.492 111.062 242.779C111.285 242.415 111.549 242.034 111.854 241.638L113.871 238.979H115.313L111.793 243.702L115.587 249H113.946L111.424 245.425C111.283 245.22 111.137 244.996 110.986 244.755C110.763 245.119 110.604 245.37 110.508 245.507L107.992 249H106.399ZM116.756 249V238.979H120.536C121.201 238.979 121.71 239.01 122.061 239.074C122.553 239.156 122.965 239.313 123.298 239.546C123.631 239.774 123.897 240.095 124.098 240.51C124.303 240.924 124.405 241.38 124.405 241.877C124.405 242.729 124.134 243.451 123.592 244.044C123.049 244.632 122.07 244.926 120.652 244.926H118.082V249H116.756ZM118.082 243.743H120.673C121.53 243.743 122.138 243.584 122.498 243.265C122.858 242.946 123.038 242.497 123.038 241.918C123.038 241.499 122.931 241.141 122.717 240.845C122.507 240.544 122.229 240.346 121.883 240.25C121.66 240.191 121.247 240.161 120.646 240.161H118.082V243.743ZM126.039 249V238.979H127.365V247.817H132.301V249H126.039ZM133.483 244.119C133.483 242.456 133.93 241.155 134.823 240.216C135.716 239.272 136.869 238.801 138.282 238.801C139.207 238.801 140.041 239.022 140.784 239.464C141.527 239.906 142.092 240.523 142.479 241.316C142.871 242.105 143.067 243 143.067 244.003C143.067 245.019 142.862 245.928 142.452 246.73C142.042 247.533 141.461 248.141 140.709 248.556C139.957 248.966 139.146 249.171 138.275 249.171C137.332 249.171 136.489 248.943 135.746 248.487C135.003 248.032 134.44 247.41 134.058 246.621C133.675 245.833 133.483 244.999 133.483 244.119ZM134.851 244.14C134.851 245.347 135.174 246.3 135.821 246.997C136.473 247.69 137.289 248.036 138.269 248.036C139.267 248.036 140.087 247.685 140.729 246.983C141.377 246.282 141.7 245.286 141.7 243.996C141.7 243.18 141.561 242.469 141.283 241.863C141.01 241.253 140.606 240.781 140.073 240.448C139.545 240.111 138.95 239.942 138.289 239.942C137.35 239.942 136.541 240.266 135.862 240.913C135.188 241.556 134.851 242.631 134.851 244.14ZM144.804 249V238.979H149.247C150.14 238.979 150.819 239.07 151.284 239.252C151.749 239.43 152.12 239.746 152.398 240.202C152.676 240.658 152.815 241.161 152.815 241.713C152.815 242.424 152.585 243.023 152.125 243.511C151.665 243.998 150.954 244.308 149.992 244.44C150.343 244.609 150.61 244.775 150.792 244.939C151.179 245.295 151.546 245.739 151.893 246.272L153.636 249H151.968L150.642 246.915C150.254 246.313 149.935 245.853 149.685 245.534C149.434 245.215 149.208 244.992 149.008 244.864C148.812 244.737 148.611 244.648 148.406 244.598C148.256 244.566 148.01 244.55 147.668 244.55H146.13V249H144.804ZM146.13 243.401H148.98C149.587 243.401 150.061 243.34 150.402 243.217C150.744 243.089 151.004 242.889 151.182 242.615C151.359 242.337 151.448 242.036 151.448 241.713C151.448 241.239 151.275 240.849 150.929 240.544C150.587 240.239 150.045 240.086 149.302 240.086H146.13V243.401ZM154.928 249V238.979H162.174V240.161H156.254V243.23H161.798V244.406H156.254V247.817H162.406V249H154.928Z" fill="white"/>
</g>
<defs>
<filter id="filter0_d_1151_3320" x="0" y="0" width="261" height="281" filterUnits="userSpaceOnUse" color-interpolation-filters="sRGB">
<feFlood flood-opacity="0" result="BackgroundImageFix"/>
<feColorMatrix in="SourceAlpha" type="matrix" values="0 0 0 0 0 0 0 0 0 0 0 0 0 0 0 0 0 0 127 0" result="hardAlpha"/>
<feOffset dy="1"/>
<feComposite in2="hardAlpha" operator="out"/>
<feColorMatrix type="matrix" values="0 0 0 0 0.945098 0 0 0 0 0.337255 0 0 0 0 0.247059 0 0 0 1 0"/>
<feBlend mode="normal" in2="BackgroundImageFix" result="effect1_dropShadow_1151_3320"/>
<feBlend mode="normal" in="SourceGraphic" in2="effect1_dropShadow_1151_3320" result="shape"/>
</filter>
</defs>
</svg>
