<svg width="261" height="280" viewBox="0 0 261 280" fill="none" xmlns="http://www.w3.org/2000/svg">
<g filter="url(#filter0_d_1151_3296)">
<rect width="261" height="280" fill="white"/>
<path d="M16.7412 24H12.8643V16.998H14.0264V23.0186H16.7412V24ZM23.7725 24H22.498L21.8682 22.2178H19.1143L18.5088 24H17.2393L19.8613 16.998H21.1699L23.7725 24ZM21.5605 21.2705L20.5889 18.4775C20.5596 18.3864 20.5286 18.2399 20.4961 18.0381H20.4766C20.4473 18.2236 20.4147 18.3701 20.3789 18.4775L19.417 21.2705H21.5605ZM29.9688 21.168C29.9688 23.1341 29.0378 24.1172 27.1758 24.1172C25.3919 24.1172 24.5 23.1715 24.5 21.2803V16.998H25.6621V21.041C25.6621 22.4147 26.196 23.1016 27.2637 23.1016C28.2923 23.1016 28.8066 22.4391 28.8066 21.1143V16.998H29.9688V21.168ZM37.5518 24H36.2822L32.9375 18.8535C32.8529 18.7233 32.7829 18.5882 32.7275 18.4482H32.6982C32.7243 18.598 32.7373 18.9186 32.7373 19.4102V24H31.6143V16.998H32.9668L36.1992 22.0225C36.3359 22.2308 36.4238 22.374 36.4629 22.4521H36.4824C36.4499 22.2666 36.4336 21.9525 36.4336 21.5098V16.998H37.5518V24ZM44.1729 23.707C43.6455 23.9805 42.9896 24.1172 42.2051 24.1172C41.1895 24.1172 40.3757 23.7965 39.7637 23.1553C39.1517 22.514 38.8457 21.6725 38.8457 20.6309C38.8457 19.5111 39.1891 18.6061 39.876 17.916C40.5661 17.2259 41.4368 16.8809 42.4883 16.8809C43.1654 16.8809 43.7269 16.9769 44.1729 17.1689V18.3213C43.7008 18.0413 43.18 17.9014 42.6104 17.9014C41.8519 17.9014 41.2367 18.1439 40.7646 18.6289C40.2959 19.1139 40.0615 19.7617 40.0615 20.5723C40.0615 21.3438 40.2812 21.959 40.7207 22.418C41.1602 22.8737 41.738 23.1016 42.4541 23.1016C43.1149 23.1016 43.6878 22.9453 44.1729 22.6328V23.707ZM51.126 24H49.959V20.9629H46.6631V24H45.501V16.998H46.6631V19.9424H49.959V16.998H51.126V24Z" fill="#43474B"/>
<path d="M16.8125 49.3594H21.875V52H12.4766V49.6328L17.6484 43.4375H12.7969V40.7969H21.7109V43.1484L16.8125 49.3594ZM34.0234 46.3672C34.0234 47.4922 33.7812 48.5 33.2969 49.3906C32.8125 50.276 32.1354 50.9661 31.2656 51.4609C30.3958 51.9505 29.4219 52.1953 28.3438 52.1953C27.2917 52.1953 26.3333 51.9583 25.4688 51.4844C24.6094 51.0052 23.9401 50.3359 23.4609 49.4766C22.9818 48.612 22.7422 47.6354 22.7422 46.5469C22.7422 45.4062 22.9844 44.3802 23.4688 43.4688C23.9531 42.5573 24.6328 41.8542 25.5078 41.3594C26.3828 40.8594 27.3776 40.6094 28.4922 40.6094C29.5651 40.6094 30.5234 40.849 31.3672 41.3281C32.2161 41.8021 32.8698 42.4818 33.3281 43.3672C33.7917 44.2474 34.0234 45.2474 34.0234 46.3672ZM30.4453 46.4609C30.4453 45.5391 30.2682 44.8125 29.9141 44.2812C29.5599 43.75 29.0755 43.4844 28.4609 43.4844C27.7891 43.4844 27.2656 43.7396 26.8906 44.25C26.5156 44.7604 26.3281 45.4818 26.3281 46.4141C26.3281 47.3255 26.513 48.0365 26.8828 48.5469C27.2578 49.0573 27.7656 49.3125 28.4062 49.3125C28.7969 49.3125 29.1484 49.1979 29.4609 48.9688C29.7734 48.7396 30.0156 48.4115 30.1875 47.9844C30.3594 47.5573 30.4453 47.0495 30.4453 46.4609ZM43.3984 48.6094C43.3984 49.3542 43.1979 50.0026 42.7969 50.5547C42.401 51.1068 41.8438 51.5182 41.125 51.7891C40.4062 52.0599 39.5417 52.1953 38.5312 52.1953C37.3594 52.1953 36.2865 51.9974 35.3125 51.6016V48.5312C35.7812 48.875 36.2995 49.1536 36.8672 49.3672C37.4349 49.5755 37.9635 49.6797 38.4531 49.6797C38.8229 49.6797 39.1094 49.6146 39.3125 49.4844C39.5156 49.349 39.6172 49.1536 39.6172 48.8984C39.6172 48.7161 39.5651 48.5573 39.4609 48.4219C39.362 48.2812 39.2083 48.151 39 48.0312C38.7969 47.9115 38.4167 47.7474 37.8594 47.5391C36.0573 46.8464 35.1562 45.7266 35.1562 44.1797C35.1562 43.0964 35.5677 42.2318 36.3906 41.5859C37.2135 40.9349 38.3177 40.6094 39.7031 40.6094C40.0938 40.6094 40.4531 40.625 40.7812 40.6562C41.1094 40.6875 41.4062 40.7266 41.6719 40.7734C41.9427 40.8203 42.3203 40.9089 42.8047 41.0391V43.8906C41.862 43.375 40.9349 43.1172 40.0234 43.1172C39.6484 43.1172 39.3464 43.1875 39.1172 43.3281C38.888 43.4688 38.7734 43.6615 38.7734 43.9062C38.7734 44.1406 38.8646 44.3359 39.0469 44.4922C39.2344 44.6432 39.6224 44.8411 40.2109 45.0859C41.3724 45.5547 42.1927 46.0677 42.6719 46.625C43.1562 47.1823 43.3984 47.8438 43.3984 48.6094ZM50.4375 43.4375V52H47.0469V43.4375H43.9141V40.7969H53.6094V43.4375H50.4375ZM54.9609 52V40.7969H61.9375V43.4375H58.3359V45.0703H61.7188V47.7109H58.3359V49.3594H62.1953V52H54.9609ZM63.7891 52V40.7969H67.1641V49.3594H71.0234V52H63.7891ZM76.9141 48.9297V46.6875H81.1875V48.9297H76.9141ZM20.9297 76L16.9766 70.5938C16.6641 70.1667 16.4089 69.7812 16.2109 69.4375H16.1797C16.2109 69.9896 16.2266 70.6094 16.2266 71.2969V76H13.1016V64.7969H16.2891L20.0781 69.9375C20.125 70.0052 20.1823 70.0859 20.25 70.1797C20.3177 70.2734 20.3854 70.3698 20.4531 70.4688C20.5208 70.5677 20.5833 70.6641 20.6406 70.7578C20.7031 70.8516 20.75 70.9349 20.7812 71.0078H20.8125C20.7812 70.7786 20.7656 70.3828 20.7656 69.8203V64.7969H23.8906V76H20.9297ZM36.7578 70.3672C36.7578 71.4922 36.5156 72.5 36.0312 73.3906C35.5469 74.276 34.8698 74.9661 34 75.4609C33.1302 75.9505 32.1562 76.1953 31.0781 76.1953C30.026 76.1953 29.0677 75.9583 28.2031 75.4844C27.3438 75.0052 26.6745 74.3359 26.1953 73.4766C25.7161 72.612 25.4766 71.6354 25.4766 70.5469C25.4766 69.4062 25.7188 68.3802 26.2031 67.4688C26.6875 66.5573 27.3672 65.8542 28.2422 65.3594C29.1172 64.8594 30.112 64.6094 31.2266 64.6094C32.2995 64.6094 33.2578 64.849 34.1016 65.3281C34.9505 65.8021 35.6042 66.4818 36.0625 67.3672C36.526 68.2474 36.7578 69.2474 36.7578 70.3672ZM33.1797 70.4609C33.1797 69.5391 33.0026 68.8125 32.6484 68.2812C32.2943 67.75 31.8099 67.4844 31.1953 67.4844C30.5234 67.4844 30 67.7396 29.625 68.25C29.25 68.7604 29.0625 69.4818 29.0625 70.4141C29.0625 71.3255 29.2474 72.0365 29.6172 72.5469C29.9922 73.0573 30.5 73.3125 31.1406 73.3125C31.5312 73.3125 31.8828 73.1979 32.1953 72.9688C32.5078 72.7396 32.75 72.4115 32.9219 71.9844C33.0938 71.5573 33.1797 71.0495 33.1797 70.4609ZM51.1094 76H47.5234L45.9688 69.6172C45.9219 69.4349 45.8698 68.9818 45.8125 68.2578H45.7812C45.7031 68.8984 45.6276 69.3516 45.5547 69.6172L43.875 76H40.0781L37.4062 64.7969H41.1094L42.0469 71.3906C42.0625 71.474 42.0859 71.7161 42.1172 72.1172L42.1641 72.7656H42.2109C42.2214 72.6302 42.2526 72.401 42.3047 72.0781C42.3568 71.75 42.4062 71.5052 42.4531 71.3438L44.1797 64.7969H47.8594L49.2969 71.4375L49.3984 72.1016L49.4766 72.75H49.5078L49.5312 72.4766L49.6328 71.3906L50.6094 64.7969H53.9375L51.1094 76ZM59.6641 76V64.7969H63.0391V76H59.6641ZM73.0703 76L69.1172 70.5938C68.8047 70.1667 68.5495 69.7812 68.3516 69.4375H68.3203C68.3516 69.9896 68.3672 70.6094 68.3672 71.2969V76H65.2422V64.7969H68.4297L72.2188 69.9375C72.2656 70.0052 72.3229 70.0859 72.3906 70.1797C72.4583 70.2734 72.526 70.3698 72.5938 70.4688C72.6615 70.5677 72.724 70.6641 72.7812 70.7578C72.8438 70.8516 72.8906 70.9349 72.9219 71.0078H72.9531C72.9219 70.7786 72.9062 70.3828 72.9062 69.8203V64.7969H76.0312V76H73.0703ZM90.4766 72.6094C90.4766 73.3542 90.276 74.0026 89.875 74.5547C89.4792 75.1068 88.9219 75.5182 88.2031 75.7891C87.4844 76.0599 86.6198 76.1953 85.6094 76.1953C84.4375 76.1953 83.3646 75.9974 82.3906 75.6016V72.5312C82.8594 72.875 83.3776 73.1536 83.9453 73.3672C84.513 73.5755 85.0417 73.6797 85.5312 73.6797C85.901 73.6797 86.1875 73.6146 86.3906 73.4844C86.5938 73.349 86.6953 73.1536 86.6953 72.8984C86.6953 72.7161 86.6432 72.5573 86.5391 72.4219C86.4401 72.2812 86.2865 72.151 86.0781 72.0312C85.875 71.9115 85.4948 71.7474 84.9375 71.5391C83.1354 70.8464 82.2344 69.7266 82.2344 68.1797C82.2344 67.0964 82.6458 66.2318 83.4688 65.5859C84.2917 64.9349 85.3958 64.6094 86.7812 64.6094C87.1719 64.6094 87.5312 64.625 87.8594 64.6562C88.1875 64.6875 88.4844 64.7266 88.75 64.7734C89.0208 64.8203 89.3984 64.9089 89.8828 65.0391V67.8906C88.9401 67.375 88.013 67.1172 87.1016 67.1172C86.7266 67.1172 86.4245 67.1875 86.1953 67.3281C85.9661 67.4688 85.8516 67.6615 85.8516 67.9062C85.8516 68.1406 85.9427 68.3359 86.125 68.4922C86.3125 68.6432 86.7005 68.8411 87.2891 69.0859C88.4505 69.5547 89.2708 70.0677 89.75 70.625C90.2344 71.1823 90.4766 71.8438 90.4766 72.6094ZM91.8516 76V64.7969H95.2266V76H91.8516ZM105.211 72.6094C105.211 73.3542 105.01 74.0026 104.609 74.5547C104.214 75.1068 103.656 75.5182 102.938 75.7891C102.219 76.0599 101.354 76.1953 100.344 76.1953C99.1719 76.1953 98.099 75.9974 97.125 75.6016V72.5312C97.5938 72.875 98.112 73.1536 98.6797 73.3672C99.2474 73.5755 99.776 73.6797 100.266 73.6797C100.635 73.6797 100.922 73.6146 101.125 73.4844C101.328 73.349 101.43 73.1536 101.43 72.8984C101.43 72.7161 101.378 72.5573 101.273 72.4219C101.174 72.2812 101.021 72.151 100.812 72.0312C100.609 71.9115 100.229 71.7474 99.6719 71.5391C97.8698 70.8464 96.9688 69.7266 96.9688 68.1797C96.9688 67.0964 97.3802 66.2318 98.2031 65.5859C99.026 64.9349 100.13 64.6094 101.516 64.6094C101.906 64.6094 102.266 64.625 102.594 64.6562C102.922 64.6875 103.219 64.7266 103.484 64.7734C103.755 64.8203 104.133 64.9089 104.617 65.0391V67.8906C103.674 67.375 102.747 67.1172 101.836 67.1172C101.461 67.1172 101.159 67.1875 100.93 67.3281C100.701 67.4688 100.586 67.6615 100.586 67.9062C100.586 68.1406 100.677 68.3359 100.859 68.4922C101.047 68.6432 101.435 68.8411 102.023 69.0859C103.185 69.5547 104.005 70.0677 104.484 70.625C104.969 71.1823 105.211 71.8438 105.211 72.6094ZM114.367 72.6094C114.367 73.3542 114.167 74.0026 113.766 74.5547C113.37 75.1068 112.812 75.5182 112.094 75.7891C111.375 76.0599 110.51 76.1953 109.5 76.1953C108.328 76.1953 107.255 75.9974 106.281 75.6016V72.5312C106.75 72.875 107.268 73.1536 107.836 73.3672C108.404 73.5755 108.932 73.6797 109.422 73.6797C109.792 73.6797 110.078 73.6146 110.281 73.4844C110.484 73.349 110.586 73.1536 110.586 72.8984C110.586 72.7161 110.534 72.5573 110.43 72.4219C110.331 72.2812 110.177 72.151 109.969 72.0312C109.766 71.9115 109.385 71.7474 108.828 71.5391C107.026 70.8464 106.125 69.7266 106.125 68.1797C106.125 67.0964 106.536 66.2318 107.359 65.5859C108.182 64.9349 109.286 64.6094 110.672 64.6094C111.062 64.6094 111.422 64.625 111.75 64.6562C112.078 64.6875 112.375 64.7266 112.641 64.7734C112.911 64.8203 113.289 64.9089 113.773 65.0391V67.8906C112.831 67.375 111.904 67.1172 110.992 67.1172C110.617 67.1172 110.315 67.1875 110.086 67.3281C109.857 67.4688 109.742 67.6615 109.742 67.9062C109.742 68.1406 109.833 68.3359 110.016 68.4922C110.203 68.6432 110.591 68.8411 111.18 69.0859C112.341 69.5547 113.161 70.0677 113.641 70.625C114.125 71.1823 114.367 71.8438 114.367 72.6094ZM125.508 70.8828C125.508 72.6797 125.096 74.0156 124.273 74.8906C123.456 75.7604 122.193 76.1953 120.484 76.1953C118.891 76.1953 117.68 75.7604 116.852 74.8906C116.029 74.0156 115.617 72.7005 115.617 70.9453V64.7969H119.008V71.0703C119.008 71.7891 119.141 72.3438 119.406 72.7344C119.677 73.1198 120.062 73.3125 120.562 73.3125C121.068 73.3125 121.451 73.1302 121.711 72.7656C121.977 72.401 122.109 71.862 122.109 71.1484V64.7969H125.508V70.8828ZM130.727 72.2266H128.055L127.633 64.7969H131.141L130.727 72.2266ZM131.266 74.6094C131.266 75.0729 131.096 75.4531 130.758 75.75C130.424 76.0469 129.977 76.1953 129.414 76.1953C128.867 76.1953 128.419 76.0443 128.07 75.7422C127.727 75.4401 127.555 75.0625 127.555 74.6094C127.555 74.151 127.721 73.7812 128.055 73.5C128.393 73.2135 128.846 73.0703 129.414 73.0703C129.966 73.0703 130.411 73.2135 130.75 73.5C131.094 73.7812 131.266 74.151 131.266 74.6094Z" fill="#43474B"/>
<path d="M17.5547 102H13.1016V93.5977H17.3672V94.4883H14.0859V97.2832H17.1211V98.168H14.0859V101.109H17.5547V102ZM23.4258 96L21.4102 99.0352L23.3906 102H22.2715L21.0938 100.055C21.0195 99.9336 20.9316 99.7812 20.8301 99.5977H20.8066C20.7871 99.6328 20.6953 99.7852 20.5312 100.055L19.3301 102H18.2227L20.2676 99.0586L18.3105 96H19.4297L20.5898 98.0508C20.6758 98.2031 20.7598 98.3594 20.8418 98.5195H20.8652L22.3652 96H23.4258ZM25.5352 101.133H25.5117V104.76H24.5508V96H25.5117V97.0547H25.5352C26.0078 96.2578 26.6992 95.8594 27.6094 95.8594C28.3828 95.8594 28.9863 96.1289 29.4199 96.668C29.8535 97.2031 30.0703 97.9219 30.0703 98.8242C30.0703 99.8281 29.8262 100.633 29.3379 101.238C28.8496 101.84 28.1816 102.141 27.334 102.141C26.5566 102.141 25.957 101.805 25.5352 101.133ZM25.5117 98.7129V99.5508C25.5117 100.047 25.6719 100.469 25.9922 100.816C26.3164 101.16 26.7266 101.332 27.2227 101.332C27.8047 101.332 28.2598 101.109 28.5879 100.664C28.9199 100.219 29.0859 99.5996 29.0859 98.8066C29.0859 98.1387 28.9316 97.6152 28.623 97.2363C28.3145 96.8574 27.8965 96.668 27.3691 96.668C26.8105 96.668 26.3613 96.8633 26.0215 97.2539C25.6816 97.6406 25.5117 98.127 25.5117 98.7129ZM36.4277 99.2402H32.1914C32.207 99.9082 32.3867 100.424 32.7305 100.787C33.0742 101.15 33.5469 101.332 34.1484 101.332C34.8242 101.332 35.4453 101.109 36.0117 100.664V101.566C35.4844 101.949 34.7871 102.141 33.9199 102.141C33.0723 102.141 32.4062 101.869 31.9219 101.326C31.4375 100.779 31.1953 100.012 31.1953 99.0234C31.1953 98.0898 31.459 97.3301 31.9863 96.7441C32.5176 96.1543 33.1758 95.8594 33.9609 95.8594C34.7461 95.8594 35.3535 96.1133 35.7832 96.6211C36.2129 97.1289 36.4277 97.834 36.4277 98.7363V99.2402ZM35.4434 98.4258C35.4395 97.8711 35.3047 97.4395 35.0391 97.1309C34.7773 96.8223 34.4121 96.668 33.9434 96.668C33.4902 96.668 33.1055 96.8301 32.7891 97.1543C32.4727 97.4785 32.2773 97.9023 32.2031 98.4258H35.4434ZM41.0156 96.9727C40.8477 96.8438 40.6055 96.7793 40.2891 96.7793C39.8789 96.7793 39.5352 96.9727 39.2578 97.3594C38.9844 97.7461 38.8477 98.2734 38.8477 98.9414V102H37.8867V96H38.8477V97.2363H38.8711C39.0078 96.8145 39.2168 96.4863 39.498 96.252C39.7793 96.0137 40.0938 95.8945 40.4414 95.8945C40.6914 95.8945 40.8828 95.9219 41.0156 95.9766V96.9727ZM42.5508 94.4766C42.3789 94.4766 42.2324 94.418 42.1113 94.3008C41.9902 94.1836 41.9297 94.0352 41.9297 93.8555C41.9297 93.6758 41.9902 93.5273 42.1113 93.4102C42.2324 93.2891 42.3789 93.2285 42.5508 93.2285C42.7266 93.2285 42.875 93.2891 42.9961 93.4102C43.1211 93.5273 43.1836 93.6758 43.1836 93.8555C43.1836 94.0273 43.1211 94.1738 42.9961 94.2949C42.875 94.416 42.7266 94.4766 42.5508 94.4766ZM43.0195 102H42.0586V96H43.0195V102ZM49.7871 99.2402H45.5508C45.5664 99.9082 45.7461 100.424 46.0898 100.787C46.4336 101.15 46.9062 101.332 47.5078 101.332C48.1836 101.332 48.8047 101.109 49.3711 100.664V101.566C48.8438 101.949 48.1465 102.141 47.2793 102.141C46.4316 102.141 45.7656 101.869 45.2812 101.326C44.7969 100.779 44.5547 100.012 44.5547 99.0234C44.5547 98.0898 44.8184 97.3301 45.3457 96.7441C45.877 96.1543 46.5352 95.8594 47.3203 95.8594C48.1055 95.8594 48.7129 96.1133 49.1426 96.6211C49.5723 97.1289 49.7871 97.834 49.7871 98.7363V99.2402ZM48.8027 98.4258C48.7988 97.8711 48.6641 97.4395 48.3984 97.1309C48.1367 96.8223 47.7715 96.668 47.3027 96.668C46.8496 96.668 46.4648 96.8301 46.1484 97.1543C45.832 97.4785 45.6367 97.9023 45.5625 98.4258H48.8027ZM56.2266 102H55.2656V98.5781C55.2656 97.3047 54.8008 96.668 53.8711 96.668C53.3906 96.668 52.9922 96.8496 52.6758 97.2129C52.3633 97.5723 52.207 98.0273 52.207 98.5781V102H51.2461V96H52.207V96.9961H52.2305C52.6836 96.2383 53.3398 95.8594 54.1992 95.8594C54.8555 95.8594 55.3574 96.0723 55.7051 96.498C56.0527 96.9199 56.2266 97.5312 56.2266 98.332V102ZM62.1328 101.725C61.6719 102.002 61.125 102.141 60.4922 102.141C59.6367 102.141 58.9453 101.863 58.418 101.309C57.8945 100.75 57.6328 100.027 57.6328 99.1406C57.6328 98.1523 57.916 97.3594 58.4824 96.7617C59.0488 96.1602 59.8047 95.8594 60.75 95.8594C61.2773 95.8594 61.7422 95.957 62.1445 96.1523V97.1367C61.6992 96.8242 61.2227 96.668 60.7148 96.668C60.1016 96.668 59.5977 96.8887 59.2031 97.3301C58.8125 97.7676 58.6172 98.3438 58.6172 99.0586C58.6172 99.7617 58.8008 100.316 59.168 100.723C59.5391 101.129 60.0352 101.332 60.6562 101.332C61.1797 101.332 61.6719 101.158 62.1328 100.811V101.725ZM68.4082 99.2402H64.1719C64.1875 99.9082 64.3672 100.424 64.7109 100.787C65.0547 101.15 65.5273 101.332 66.1289 101.332C66.8047 101.332 67.4258 101.109 67.9922 100.664V101.566C67.4648 101.949 66.7676 102.141 65.9004 102.141C65.0527 102.141 64.3867 101.869 63.9023 101.326C63.418 100.779 63.1758 100.012 63.1758 99.0234C63.1758 98.0898 63.4395 97.3301 63.9668 96.7441C64.498 96.1543 65.1562 95.8594 65.9414 95.8594C66.7266 95.8594 67.334 96.1133 67.7637 96.6211C68.1934 97.1289 68.4082 97.834 68.4082 98.7363V99.2402ZM67.4238 98.4258C67.4199 97.8711 67.2852 97.4395 67.0195 97.1309C66.7578 96.8223 66.3926 96.668 65.9238 96.668C65.4707 96.668 65.0859 96.8301 64.7695 97.1543C64.4531 97.4785 64.2578 97.9023 64.1836 98.4258H67.4238ZM80.7188 96L78.9199 102H77.9238L76.6875 97.7051C76.6406 97.541 76.6094 97.3555 76.5938 97.1484H76.5703C76.5586 97.2891 76.5176 97.4707 76.4473 97.6934L75.1055 102H74.1445L72.3281 96H73.3359L74.5781 100.512C74.6172 100.648 74.6445 100.828 74.6602 101.051H74.707C74.7188 100.879 74.7539 100.695 74.8125 100.5L76.1953 96H77.0742L78.3164 100.523C78.3555 100.668 78.3848 100.848 78.4043 101.062H78.4512C78.459 100.91 78.4922 100.73 78.5508 100.523L79.7695 96H80.7188ZM82.3242 94.4766C82.1523 94.4766 82.0059 94.418 81.8848 94.3008C81.7637 94.1836 81.7031 94.0352 81.7031 93.8555C81.7031 93.6758 81.7637 93.5273 81.8848 93.4102C82.0059 93.2891 82.1523 93.2285 82.3242 93.2285C82.5 93.2285 82.6484 93.2891 82.7695 93.4102C82.8945 93.5273 82.957 93.6758 82.957 93.8555C82.957 94.0273 82.8945 94.1738 82.7695 94.2949C82.6484 94.416 82.5 94.4766 82.3242 94.4766ZM82.793 102H81.832V96H82.793V102ZM89.7188 102H88.7578V98.5781C88.7578 97.3047 88.293 96.668 87.3633 96.668C86.8828 96.668 86.4844 96.8496 86.168 97.2129C85.8555 97.5723 85.6992 98.0273 85.6992 98.5781V102H84.7383V96H85.6992V96.9961H85.7227C86.1758 96.2383 86.832 95.8594 87.6914 95.8594C88.3477 95.8594 88.8496 96.0723 89.1973 96.498C89.5449 96.9199 89.7188 97.5312 89.7188 98.332V102ZM94.3184 101.941C94.0918 102.066 93.793 102.129 93.4219 102.129C92.3711 102.129 91.8457 101.543 91.8457 100.371V96.8203H90.8145V96H91.8457V94.5352L92.8066 94.2246V96H94.3184V96.8203H92.8066V100.201C92.8066 100.604 92.875 100.891 93.0117 101.062C93.1484 101.234 93.375 101.32 93.6914 101.32C93.9336 101.32 94.1426 101.254 94.3184 101.121V101.941ZM100.424 99.2402H96.1875C96.2031 99.9082 96.3828 100.424 96.7266 100.787C97.0703 101.15 97.543 101.332 98.1445 101.332C98.8203 101.332 99.4414 101.109 100.008 100.664V101.566C99.4805 101.949 98.7832 102.141 97.916 102.141C97.0684 102.141 96.4023 101.869 95.918 101.326C95.4336 100.779 95.1914 100.012 95.1914 99.0234C95.1914 98.0898 95.4551 97.3301 95.9824 96.7441C96.5137 96.1543 97.1719 95.8594 97.957 95.8594C98.7422 95.8594 99.3496 96.1133 99.7793 96.6211C100.209 97.1289 100.424 97.834 100.424 98.7363V99.2402ZM99.4395 98.4258C99.4355 97.8711 99.3008 97.4395 99.0352 97.1309C98.7734 96.8223 98.4082 96.668 97.9395 96.668C97.4863 96.668 97.1016 96.8301 96.7852 97.1543C96.4688 97.4785 96.2734 97.9023 96.1992 98.4258H99.4395ZM105.012 96.9727C104.844 96.8438 104.602 96.7793 104.285 96.7793C103.875 96.7793 103.531 96.9727 103.254 97.3594C102.98 97.7461 102.844 98.2734 102.844 98.9414V102H101.883V96H102.844V97.2363H102.867C103.004 96.8145 103.213 96.4863 103.494 96.252C103.775 96.0137 104.09 95.8945 104.438 95.8945C104.688 95.8945 104.879 95.9219 105.012 95.9766V96.9727ZM105.691 101.783V100.752C106.215 101.139 106.791 101.332 107.42 101.332C108.264 101.332 108.686 101.051 108.686 100.488C108.686 100.328 108.648 100.193 108.574 100.084C108.504 99.9707 108.406 99.8711 108.281 99.7852C108.16 99.6992 108.016 99.623 107.848 99.5566C107.684 99.4863 107.506 99.4141 107.314 99.3398C107.049 99.2344 106.814 99.1289 106.611 99.0234C106.412 98.9141 106.244 98.793 106.107 98.6602C105.975 98.5234 105.873 98.3691 105.803 98.1973C105.736 98.0254 105.703 97.8242 105.703 97.5938C105.703 97.3125 105.768 97.0645 105.896 96.8496C106.025 96.6309 106.197 96.4492 106.412 96.3047C106.627 96.1562 106.871 96.0449 107.145 95.9707C107.422 95.8965 107.707 95.8594 108 95.8594C108.52 95.8594 108.984 95.9492 109.395 96.1289V97.1016C108.953 96.8125 108.445 96.668 107.871 96.668C107.691 96.668 107.529 96.6895 107.385 96.7324C107.24 96.7715 107.115 96.8281 107.01 96.9023C106.908 96.9766 106.828 97.0664 106.77 97.1719C106.715 97.2734 106.688 97.3867 106.688 97.5117C106.688 97.668 106.715 97.7988 106.77 97.9043C106.828 98.0098 106.912 98.1035 107.021 98.1855C107.131 98.2676 107.264 98.3418 107.42 98.4082C107.576 98.4746 107.754 98.5469 107.953 98.625C108.219 98.7266 108.457 98.832 108.668 98.9414C108.879 99.0469 109.059 99.168 109.207 99.3047C109.355 99.4375 109.469 99.5918 109.547 99.7676C109.629 99.9434 109.67 100.152 109.67 100.395C109.67 100.691 109.604 100.949 109.471 101.168C109.342 101.387 109.168 101.568 108.949 101.713C108.73 101.857 108.479 101.965 108.193 102.035C107.908 102.105 107.609 102.141 107.297 102.141C106.68 102.141 106.145 102.021 105.691 101.783ZM115.406 102H114.445V93.1172H115.406V102ZM117.844 94.4766C117.672 94.4766 117.525 94.418 117.404 94.3008C117.283 94.1836 117.223 94.0352 117.223 93.8555C117.223 93.6758 117.283 93.5273 117.404 93.4102C117.525 93.2891 117.672 93.2285 117.844 93.2285C118.02 93.2285 118.168 93.2891 118.289 93.4102C118.414 93.5273 118.477 93.6758 118.477 93.8555C118.477 94.0273 118.414 94.1738 118.289 94.2949C118.168 94.416 118.02 94.4766 117.844 94.4766ZM118.312 102H117.352V96H118.312V102ZM125.238 102H123.891L121.242 99.1172H121.219V102H120.258V93.1172H121.219V98.748H121.242L123.762 96H125.021L122.238 98.8945L125.238 102ZM131.045 99.2402H126.809C126.824 99.9082 127.004 100.424 127.348 100.787C127.691 101.15 128.164 101.332 128.766 101.332C129.441 101.332 130.062 101.109 130.629 100.664V101.566C130.102 101.949 129.404 102.141 128.537 102.141C127.689 102.141 127.023 101.869 126.539 101.326C126.055 100.779 125.812 100.012 125.812 99.0234C125.812 98.0898 126.076 97.3301 126.604 96.7441C127.135 96.1543 127.793 95.8594 128.578 95.8594C129.363 95.8594 129.971 96.1133 130.4 96.6211C130.83 97.1289 131.045 97.834 131.045 98.7363V99.2402ZM130.061 98.4258C130.057 97.8711 129.922 97.4395 129.656 97.1309C129.395 96.8223 129.029 96.668 128.561 96.668C128.107 96.668 127.723 96.8301 127.406 97.1543C127.09 97.4785 126.895 97.9023 126.82 98.4258H130.061ZM140.777 102H139.816V98.5781C139.816 97.3047 139.352 96.668 138.422 96.668C137.941 96.668 137.543 96.8496 137.227 97.2129C136.914 97.5723 136.758 98.0273 136.758 98.5781V102H135.797V96H136.758V96.9961H136.781C137.234 96.2383 137.891 95.8594 138.75 95.8594C139.406 95.8594 139.908 96.0723 140.256 96.498C140.604 96.9199 140.777 97.5312 140.777 98.332V102ZM147.416 99.2402H143.18C143.195 99.9082 143.375 100.424 143.719 100.787C144.062 101.15 144.535 101.332 145.137 101.332C145.812 101.332 146.434 101.109 147 100.664V101.566C146.473 101.949 145.775 102.141 144.908 102.141C144.061 102.141 143.395 101.869 142.91 101.326C142.426 100.779 142.184 100.012 142.184 99.0234C142.184 98.0898 142.447 97.3301 142.975 96.7441C143.506 96.1543 144.164 95.8594 144.949 95.8594C145.734 95.8594 146.342 96.1133 146.771 96.6211C147.201 97.1289 147.416 97.834 147.416 98.7363V99.2402ZM146.432 98.4258C146.428 97.8711 146.293 97.4395 146.027 97.1309C145.766 96.8223 145.4 96.668 144.932 96.668C144.479 96.668 144.094 96.8301 143.777 97.1543C143.461 97.4785 143.266 97.9023 143.191 98.4258H146.432ZM153.592 96L151.201 102H150.258L147.984 96H149.039L150.562 100.359C150.676 100.68 150.746 100.959 150.773 101.197H150.797C150.836 100.896 150.898 100.625 150.984 100.383L152.578 96H153.592ZM159.451 99.2402H155.215C155.23 99.9082 155.41 100.424 155.754 100.787C156.098 101.15 156.57 101.332 157.172 101.332C157.848 101.332 158.469 101.109 159.035 100.664V101.566C158.508 101.949 157.811 102.141 156.943 102.141C156.096 102.141 155.43 101.869 154.945 101.326C154.461 100.779 154.219 100.012 154.219 99.0234C154.219 98.0898 154.482 97.3301 155.01 96.7441C155.541 96.1543 156.199 95.8594 156.984 95.8594C157.77 95.8594 158.377 96.1133 158.807 96.6211C159.236 97.1289 159.451 97.834 159.451 98.7363V99.2402ZM158.467 98.4258C158.463 97.8711 158.328 97.4395 158.062 97.1309C157.801 96.8223 157.436 96.668 156.967 96.668C156.514 96.668 156.129 96.8301 155.812 97.1543C155.496 97.4785 155.301 97.9023 155.227 98.4258H158.467ZM164.039 96.9727C163.871 96.8438 163.629 96.7793 163.312 96.7793C162.902 96.7793 162.559 96.9727 162.281 97.3594C162.008 97.7461 161.871 98.2734 161.871 98.9414V102H160.91V96H161.871V97.2363H161.895C162.031 96.8145 162.24 96.4863 162.521 96.252C162.803 96.0137 163.117 95.8945 163.465 95.8945C163.715 95.8945 163.906 95.9219 164.039 95.9766V96.9727ZM169.359 101.133H169.336V102H168.375V93.1172H169.336V97.0547H169.359C169.832 96.2578 170.523 95.8594 171.434 95.8594C172.203 95.8594 172.805 96.1289 173.238 96.668C173.676 97.2031 173.895 97.9219 173.895 98.8242C173.895 99.8281 173.65 100.633 173.162 101.238C172.674 101.84 172.006 102.141 171.158 102.141C170.365 102.141 169.766 101.805 169.359 101.133ZM169.336 98.7129V99.5508C169.336 100.047 169.496 100.469 169.816 100.816C170.141 101.16 170.551 101.332 171.047 101.332C171.629 101.332 172.084 101.109 172.412 100.664C172.744 100.219 172.91 99.5996 172.91 98.8066C172.91 98.1387 172.756 97.6152 172.447 97.2363C172.139 96.8574 171.721 96.668 171.193 96.668C170.635 96.668 170.186 96.8633 169.846 97.2539C169.506 97.6406 169.336 98.127 169.336 98.7129ZM180.252 99.2402H176.016C176.031 99.9082 176.211 100.424 176.555 100.787C176.898 101.15 177.371 101.332 177.973 101.332C178.648 101.332 179.27 101.109 179.836 100.664V101.566C179.309 101.949 178.611 102.141 177.744 102.141C176.896 102.141 176.23 101.869 175.746 101.326C175.262 100.779 175.02 100.012 175.02 99.0234C175.02 98.0898 175.283 97.3301 175.811 96.7441C176.342 96.1543 177 95.8594 177.785 95.8594C178.57 95.8594 179.178 96.1133 179.607 96.6211C180.037 97.1289 180.252 97.834 180.252 98.7363V99.2402ZM179.268 98.4258C179.264 97.8711 179.129 97.4395 178.863 97.1309C178.602 96.8223 178.236 96.668 177.768 96.668C177.314 96.668 176.93 96.8301 176.613 97.1543C176.297 97.4785 176.102 97.9023 176.027 98.4258H179.268ZM184.676 93.9609C184.488 93.8555 184.275 93.8027 184.037 93.8027C183.365 93.8027 183.029 94.2266 183.029 95.0742V96H184.436V96.8203H183.029V102H182.074V96.8203H181.049V96H182.074V95.0273C182.074 94.3984 182.256 93.9023 182.619 93.5391C182.982 93.1719 183.436 92.9883 183.979 92.9883C184.271 92.9883 184.504 93.0234 184.676 93.0938V93.9609ZM187.98 102.141C187.094 102.141 186.385 101.861 185.854 101.303C185.326 100.74 185.062 99.9961 185.062 99.0703C185.062 98.0625 185.338 97.2754 185.889 96.709C186.439 96.1426 187.184 95.8594 188.121 95.8594C189.016 95.8594 189.713 96.1348 190.213 96.6855C190.717 97.2363 190.969 98 190.969 98.9766C190.969 99.9336 190.697 100.701 190.154 101.279C189.615 101.854 188.891 102.141 187.98 102.141ZM188.051 96.668C187.434 96.668 186.945 96.8789 186.586 97.3008C186.227 97.7188 186.047 98.2969 186.047 99.0352C186.047 99.7461 186.229 100.307 186.592 100.717C186.955 101.127 187.441 101.332 188.051 101.332C188.672 101.332 189.148 101.131 189.48 100.729C189.816 100.326 189.984 99.7539 189.984 99.0117C189.984 98.2617 189.816 97.6836 189.48 97.2773C189.148 96.8711 188.672 96.668 188.051 96.668ZM195.633 96.9727C195.465 96.8438 195.223 96.7793 194.906 96.7793C194.496 96.7793 194.152 96.9727 193.875 97.3594C193.602 97.7461 193.465 98.2734 193.465 98.9414V102H192.504V96H193.465V97.2363H193.488C193.625 96.8145 193.834 96.4863 194.115 96.252C194.396 96.0137 194.711 95.8945 195.059 95.8945C195.309 95.8945 195.5 95.9219 195.633 95.9766V96.9727ZM201.498 99.2402H197.262C197.277 99.9082 197.457 100.424 197.801 100.787C198.145 101.15 198.617 101.332 199.219 101.332C199.895 101.332 200.516 101.109 201.082 100.664V101.566C200.555 101.949 199.857 102.141 198.99 102.141C198.143 102.141 197.477 101.869 196.992 101.326C196.508 100.779 196.266 100.012 196.266 99.0234C196.266 98.0898 196.529 97.3301 197.057 96.7441C197.588 96.1543 198.246 95.8594 199.031 95.8594C199.816 95.8594 200.424 96.1133 200.854 96.6211C201.283 97.1289 201.498 97.834 201.498 98.7363V99.2402ZM200.514 98.4258C200.51 97.8711 200.375 97.4395 200.109 97.1309C199.848 96.8223 199.482 96.668 199.014 96.668C198.561 96.668 198.176 96.8301 197.859 97.1543C197.543 97.4785 197.348 97.9023 197.273 98.4258H200.514ZM213.809 96L212.01 102H211.014L209.777 97.7051C209.73 97.541 209.699 97.3555 209.684 97.1484H209.66C209.648 97.2891 209.607 97.4707 209.537 97.6934L208.195 102H207.234L205.418 96H206.426L207.668 100.512C207.707 100.648 207.734 100.828 207.75 101.051H207.797C207.809 100.879 207.844 100.695 207.902 100.5L209.285 96H210.164L211.406 100.523C211.445 100.668 211.475 100.848 211.494 101.062H211.541C211.549 100.91 211.582 100.73 211.641 100.523L212.859 96H213.809ZM215.414 94.4766C215.242 94.4766 215.096 94.418 214.975 94.3008C214.854 94.1836 214.793 94.0352 214.793 93.8555C214.793 93.6758 214.854 93.5273 214.975 93.4102C215.096 93.2891 215.242 93.2285 215.414 93.2285C215.59 93.2285 215.738 93.2891 215.859 93.4102C215.984 93.5273 216.047 93.6758 216.047 93.8555C216.047 94.0273 215.984 94.1738 215.859 94.2949C215.738 94.416 215.59 94.4766 215.414 94.4766ZM215.883 102H214.922V96H215.883V102ZM220.611 101.941C220.385 102.066 220.086 102.129 219.715 102.129C218.664 102.129 218.139 101.543 218.139 100.371V96.8203H217.107V96H218.139V94.5352L219.1 94.2246V96H220.611V96.8203H219.1V100.201C219.1 100.604 219.168 100.891 219.305 101.062C219.441 101.234 219.668 101.32 219.984 101.32C220.227 101.32 220.436 101.254 220.611 101.121V101.941ZM226.875 102H225.914V98.543C225.914 97.293 225.449 96.668 224.52 96.668C224.051 96.668 223.656 96.8496 223.336 97.2129C223.016 97.5723 222.855 98.0352 222.855 98.6016V102H221.895V93.1172H222.855V96.9961H222.879C223.34 96.2383 223.996 95.8594 224.848 95.8594C226.199 95.8594 226.875 96.6738 226.875 98.3027V102ZM15.4805 120.141C14.5938 120.141 13.8848 119.861 13.3535 119.303C12.8262 118.74 12.5625 117.996 12.5625 117.07C12.5625 116.062 12.8379 115.275 13.3887 114.709C13.9395 114.143 14.6836 113.859 15.6211 113.859C16.5156 113.859 17.2129 114.135 17.7129 114.686C18.2168 115.236 18.4688 116 18.4688 116.977C18.4688 117.934 18.1973 118.701 17.6543 119.279C17.1152 119.854 16.3906 120.141 15.4805 120.141ZM15.5508 114.668C14.9336 114.668 14.4453 114.879 14.0859 115.301C13.7266 115.719 13.5469 116.297 13.5469 117.035C13.5469 117.746 13.7285 118.307 14.0918 118.717C14.4551 119.127 14.9414 119.332 15.5508 119.332C16.1719 119.332 16.6484 119.131 16.9805 118.729C17.3164 118.326 17.4844 117.754 17.4844 117.012C17.4844 116.262 17.3164 115.684 16.9805 115.277C16.6484 114.871 16.1719 114.668 15.5508 114.668ZM24.8555 120H23.8945V119.051H23.8711C23.4727 119.777 22.8555 120.141 22.0195 120.141C20.5898 120.141 19.875 119.289 19.875 117.586V114H20.8301V117.434C20.8301 118.699 21.3145 119.332 22.2832 119.332C22.752 119.332 23.1367 119.16 23.4375 118.816C23.7422 118.469 23.8945 118.016 23.8945 117.457V114H24.8555V120ZM29.9297 114.973C29.7617 114.844 29.5195 114.779 29.2031 114.779C28.793 114.779 28.4492 114.973 28.1719 115.359C27.8984 115.746 27.7617 116.273 27.7617 116.941V120H26.8008V114H27.7617V115.236H27.7852C27.9219 114.814 28.1309 114.486 28.4121 114.252C28.6934 114.014 29.0078 113.895 29.3555 113.895C29.6055 113.895 29.7969 113.922 29.9297 113.977V114.973ZM37.2305 111.961C37.043 111.855 36.8301 111.803 36.5918 111.803C35.9199 111.803 35.584 112.227 35.584 113.074V114H36.9902V114.82H35.584V120H34.6289V114.82H33.6035V114H34.6289V113.027C34.6289 112.398 34.8105 111.902 35.1738 111.539C35.5371 111.172 35.9902 110.988 36.5332 110.988C36.8262 110.988 37.0586 111.023 37.2305 111.094V111.961ZM38.5195 112.477C38.3477 112.477 38.2012 112.418 38.0801 112.301C37.959 112.184 37.8984 112.035 37.8984 111.855C37.8984 111.676 37.959 111.527 38.0801 111.41C38.2012 111.289 38.3477 111.229 38.5195 111.229C38.6953 111.229 38.8438 111.289 38.9648 111.41C39.0898 111.527 39.1523 111.676 39.1523 111.855C39.1523 112.027 39.0898 112.174 38.9648 112.295C38.8438 112.416 38.6953 112.477 38.5195 112.477ZM38.9883 120H38.0273V114H38.9883V120ZM44.0625 114.973C43.8945 114.844 43.6523 114.779 43.3359 114.779C42.9258 114.779 42.582 114.973 42.3047 115.359C42.0312 115.746 41.8945 116.273 41.8945 116.941V120H40.9336V114H41.8945V115.236H41.918C42.0547 114.814 42.2637 114.486 42.5449 114.252C42.8262 114.014 43.1406 113.895 43.4883 113.895C43.7383 113.895 43.9297 113.922 44.0625 113.977V114.973ZM44.7422 119.783V118.752C45.2656 119.139 45.8418 119.332 46.4707 119.332C47.3145 119.332 47.7363 119.051 47.7363 118.488C47.7363 118.328 47.6992 118.193 47.625 118.084C47.5547 117.971 47.457 117.871 47.332 117.785C47.2109 117.699 47.0664 117.623 46.8984 117.557C46.7344 117.486 46.5566 117.414 46.3652 117.34C46.0996 117.234 45.8652 117.129 45.6621 117.023C45.4629 116.914 45.2949 116.793 45.1582 116.66C45.0254 116.523 44.9238 116.369 44.8535 116.197C44.7871 116.025 44.7539 115.824 44.7539 115.594C44.7539 115.312 44.8184 115.064 44.9473 114.85C45.0762 114.631 45.248 114.449 45.4629 114.305C45.6777 114.156 45.9219 114.045 46.1953 113.971C46.4727 113.896 46.7578 113.859 47.0508 113.859C47.5703 113.859 48.0352 113.949 48.4453 114.129V115.102C48.0039 114.812 47.4961 114.668 46.9219 114.668C46.7422 114.668 46.5801 114.689 46.4355 114.732C46.291 114.771 46.166 114.828 46.0605 114.902C45.959 114.977 45.8789 115.066 45.8203 115.172C45.7656 115.273 45.7383 115.387 45.7383 115.512C45.7383 115.668 45.7656 115.799 45.8203 115.904C45.8789 116.01 45.9629 116.104 46.0723 116.186C46.1816 116.268 46.3145 116.342 46.4707 116.408C46.627 116.475 46.8047 116.547 47.0039 116.625C47.2695 116.727 47.5078 116.832 47.7188 116.941C47.9297 117.047 48.1094 117.168 48.2578 117.305C48.4062 117.438 48.5195 117.592 48.5977 117.768C48.6797 117.943 48.7207 118.152 48.7207 118.395C48.7207 118.691 48.6543 118.949 48.5215 119.168C48.3926 119.387 48.2188 119.568 48 119.713C47.7812 119.857 47.5293 119.965 47.2441 120.035C46.959 120.105 46.6602 120.141 46.3477 120.141C45.7305 120.141 45.1953 120.021 44.7422 119.783ZM52.9863 119.941C52.7598 120.066 52.4609 120.129 52.0898 120.129C51.0391 120.129 50.5137 119.543 50.5137 118.371V114.82H49.4824V114H50.5137V112.535L51.4746 112.225V114H52.9863V114.82H51.4746V118.201C51.4746 118.604 51.543 118.891 51.6797 119.062C51.8164 119.234 52.043 119.32 52.3594 119.32C52.6016 119.32 52.8105 119.254 52.9863 119.121V119.941ZM62.543 120H61.582V116.543C61.582 115.293 61.1172 114.668 60.1875 114.668C59.7188 114.668 59.3242 114.85 59.0039 115.213C58.6836 115.572 58.5234 116.035 58.5234 116.602V120H57.5625V111.117H58.5234V114.996H58.5469C59.0078 114.238 59.6641 113.859 60.5156 113.859C61.8672 113.859 62.543 114.674 62.543 116.303V120ZM66.8672 120.141C65.9805 120.141 65.2715 119.861 64.7402 119.303C64.2129 118.74 63.9492 117.996 63.9492 117.07C63.9492 116.062 64.2246 115.275 64.7754 114.709C65.3262 114.143 66.0703 113.859 67.0078 113.859C67.9023 113.859 68.5996 114.135 69.0996 114.686C69.6035 115.236 69.8555 116 69.8555 116.977C69.8555 117.934 69.584 118.701 69.041 119.279C68.502 119.854 67.7773 120.141 66.8672 120.141ZM66.9375 114.668C66.3203 114.668 65.832 114.879 65.4727 115.301C65.1133 115.719 64.9336 116.297 64.9336 117.035C64.9336 117.746 65.1152 118.307 65.4785 118.717C65.8418 119.127 66.3281 119.332 66.9375 119.332C67.5586 119.332 68.0352 119.131 68.3672 118.729C68.7031 118.326 68.8711 117.754 68.8711 117.012C68.8711 116.262 68.7031 115.684 68.3672 115.277C68.0352 114.871 67.5586 114.668 66.9375 114.668ZM71.0273 119.783V118.752C71.5508 119.139 72.127 119.332 72.7559 119.332C73.5996 119.332 74.0215 119.051 74.0215 118.488C74.0215 118.328 73.9844 118.193 73.9102 118.084C73.8398 117.971 73.7422 117.871 73.6172 117.785C73.4961 117.699 73.3516 117.623 73.1836 117.557C73.0195 117.486 72.8418 117.414 72.6504 117.34C72.3848 117.234 72.1504 117.129 71.9473 117.023C71.748 116.914 71.5801 116.793 71.4434 116.66C71.3105 116.523 71.209 116.369 71.1387 116.197C71.0723 116.025 71.0391 115.824 71.0391 115.594C71.0391 115.312 71.1035 115.064 71.2324 114.85C71.3613 114.631 71.5332 114.449 71.748 114.305C71.9629 114.156 72.207 114.045 72.4805 113.971C72.7578 113.896 73.043 113.859 73.3359 113.859C73.8555 113.859 74.3203 113.949 74.7305 114.129V115.102C74.2891 114.812 73.7812 114.668 73.207 114.668C73.0273 114.668 72.8652 114.689 72.7207 114.732C72.5762 114.771 72.4512 114.828 72.3457 114.902C72.2441 114.977 72.1641 115.066 72.1055 115.172C72.0508 115.273 72.0234 115.387 72.0234 115.512C72.0234 115.668 72.0508 115.799 72.1055 115.904C72.1641 116.01 72.248 116.104 72.3574 116.186C72.4668 116.268 72.5996 116.342 72.7559 116.408C72.9121 116.475 73.0898 116.547 73.2891 116.625C73.5547 116.727 73.793 116.832 74.0039 116.941C74.2148 117.047 74.3945 117.168 74.543 117.305C74.6914 117.438 74.8047 117.592 74.8828 117.768C74.9648 117.943 75.0059 118.152 75.0059 118.395C75.0059 118.691 74.9395 118.949 74.8066 119.168C74.6777 119.387 74.5039 119.568 74.2852 119.713C74.0664 119.857 73.8145 119.965 73.5293 120.035C73.2441 120.105 72.9453 120.141 72.6328 120.141C72.0156 120.141 71.4805 120.021 71.0273 119.783ZM79.2715 119.941C79.0449 120.066 78.7461 120.129 78.375 120.129C77.3242 120.129 76.7988 119.543 76.7988 118.371V114.82H75.7676V114H76.7988V112.535L77.7598 112.225V114H79.2715V114.82H77.7598V118.201C77.7598 118.604 77.8281 118.891 77.9648 119.062C78.1016 119.234 78.3281 119.32 78.6445 119.32C78.8867 119.32 79.0957 119.254 79.2715 119.121V119.941ZM85.377 117.24H81.1406C81.1562 117.908 81.3359 118.424 81.6797 118.787C82.0234 119.15 82.4961 119.332 83.0977 119.332C83.7734 119.332 84.3945 119.109 84.9609 118.664V119.566C84.4336 119.949 83.7363 120.141 82.8691 120.141C82.0215 120.141 81.3555 119.869 80.8711 119.326C80.3867 118.779 80.1445 118.012 80.1445 117.023C80.1445 116.09 80.4082 115.33 80.9355 114.744C81.4668 114.154 82.125 113.859 82.9102 113.859C83.6953 113.859 84.3027 114.113 84.7324 114.621C85.1621 115.129 85.377 115.834 85.377 116.736V117.24ZM84.3926 116.426C84.3887 115.871 84.2539 115.439 83.9883 115.131C83.7266 114.822 83.3613 114.668 82.8926 114.668C82.4395 114.668 82.0547 114.83 81.7383 115.154C81.4219 115.479 81.2266 115.902 81.1523 116.426H84.3926ZM87.7969 120H86.8359V111.117H87.7969V120ZM93.5273 112.477C93.3555 112.477 93.209 112.418 93.0879 112.301C92.9668 112.184 92.9062 112.035 92.9062 111.855C92.9062 111.676 92.9668 111.527 93.0879 111.41C93.209 111.289 93.3555 111.229 93.5273 111.229C93.7031 111.229 93.8516 111.289 93.9727 111.41C94.0977 111.527 94.1602 111.676 94.1602 111.855C94.1602 112.027 94.0977 112.174 93.9727 112.295C93.8516 112.416 93.7031 112.477 93.5273 112.477ZM93.9961 120H93.0352V114H93.9961V120ZM100.922 120H99.9609V116.578C99.9609 115.305 99.4961 114.668 98.5664 114.668C98.0859 114.668 97.6875 114.85 97.3711 115.213C97.0586 115.572 96.9023 116.027 96.9023 116.578V120H95.9414V114H96.9023V114.996H96.9258C97.3789 114.238 98.0352 113.859 98.8945 113.859C99.5508 113.859 100.053 114.072 100.4 114.498C100.748 114.92 100.922 115.531 100.922 116.332V120ZM110.52 120H106.16V111.598H107.145V119.109H110.52V120ZM115.975 120H115.014V119.062H114.99C114.572 119.781 113.957 120.141 113.145 120.141C112.547 120.141 112.078 119.982 111.738 119.666C111.402 119.35 111.234 118.93 111.234 118.406C111.234 117.285 111.895 116.633 113.215 116.449L115.014 116.197C115.014 115.178 114.602 114.668 113.777 114.668C113.055 114.668 112.402 114.914 111.82 115.406V114.422C112.41 114.047 113.09 113.859 113.859 113.859C115.27 113.859 115.975 114.605 115.975 116.098V120ZM115.014 116.965L113.566 117.164C113.121 117.227 112.785 117.338 112.559 117.498C112.332 117.654 112.219 117.934 112.219 118.336C112.219 118.629 112.322 118.869 112.529 119.057C112.74 119.24 113.02 119.332 113.367 119.332C113.844 119.332 114.236 119.166 114.545 118.834C114.857 118.498 115.014 118.074 115.014 117.562V116.965ZM122.766 120H121.805V116.543C121.805 115.293 121.34 114.668 120.41 114.668C119.941 114.668 119.547 114.85 119.227 115.213C118.906 115.572 118.746 116.035 118.746 116.602V120H117.785V111.117H118.746V114.996H118.77C119.23 114.238 119.887 113.859 120.738 113.859C122.09 113.859 122.766 114.674 122.766 116.303V120ZM128.877 120H127.916V119.062H127.893C127.475 119.781 126.859 120.141 126.047 120.141C125.449 120.141 124.98 119.982 124.641 119.666C124.305 119.35 124.137 118.93 124.137 118.406C124.137 117.285 124.797 116.633 126.117 116.449L127.916 116.197C127.916 115.178 127.504 114.668 126.68 114.668C125.957 114.668 125.305 114.914 124.723 115.406V114.422C125.312 114.047 125.992 113.859 126.762 113.859C128.172 113.859 128.877 114.605 128.877 116.098V120ZM127.916 116.965L126.469 117.164C126.023 117.227 125.688 117.338 125.461 117.498C125.234 117.654 125.121 117.934 125.121 118.336C125.121 118.629 125.225 118.869 125.432 119.057C125.643 119.24 125.922 119.332 126.27 119.332C126.746 119.332 127.139 119.166 127.447 118.834C127.76 118.498 127.916 118.074 127.916 117.562V116.965ZM135.539 120H134.578V119.051H134.555C134.156 119.777 133.539 120.141 132.703 120.141C131.273 120.141 130.559 119.289 130.559 117.586V114H131.514V117.434C131.514 118.699 131.998 119.332 132.967 119.332C133.436 119.332 133.82 119.16 134.121 118.816C134.426 118.469 134.578 118.016 134.578 117.457V114H135.539V120ZM138.445 120H137.484V111.117H138.445V120ZM141.27 118.664L140.332 121.547H139.646L140.332 118.664H141.27ZM151.898 111.832L146.977 119.109H151.781V120H145.506V119.725L150.387 112.488H145.898V111.598H151.898V111.832ZM155.637 120.141C154.75 120.141 154.041 119.861 153.51 119.303C152.982 118.74 152.719 117.996 152.719 117.07C152.719 116.062 152.994 115.275 153.545 114.709C154.096 114.143 154.84 113.859 155.777 113.859C156.672 113.859 157.369 114.135 157.869 114.686C158.373 115.236 158.625 116 158.625 116.977C158.625 117.934 158.354 118.701 157.811 119.279C157.271 119.854 156.547 120.141 155.637 120.141ZM155.707 114.668C155.09 114.668 154.602 114.879 154.242 115.301C153.883 115.719 153.703 116.297 153.703 117.035C153.703 117.746 153.885 118.307 154.248 118.717C154.611 119.127 155.098 119.332 155.707 119.332C156.328 119.332 156.805 119.131 157.137 118.729C157.473 118.326 157.641 117.754 157.641 117.012C157.641 116.262 157.473 115.684 157.137 115.277C156.805 114.871 156.328 114.668 155.707 114.668ZM159.797 119.783V118.752C160.32 119.139 160.896 119.332 161.525 119.332C162.369 119.332 162.791 119.051 162.791 118.488C162.791 118.328 162.754 118.193 162.68 118.084C162.609 117.971 162.512 117.871 162.387 117.785C162.266 117.699 162.121 117.623 161.953 117.557C161.789 117.486 161.611 117.414 161.42 117.34C161.154 117.234 160.92 117.129 160.717 117.023C160.518 116.914 160.35 116.793 160.213 116.66C160.08 116.523 159.979 116.369 159.908 116.197C159.842 116.025 159.809 115.824 159.809 115.594C159.809 115.312 159.873 115.064 160.002 114.85C160.131 114.631 160.303 114.449 160.518 114.305C160.732 114.156 160.977 114.045 161.25 113.971C161.527 113.896 161.812 113.859 162.105 113.859C162.625 113.859 163.09 113.949 163.5 114.129V115.102C163.059 114.812 162.551 114.668 161.977 114.668C161.797 114.668 161.635 114.689 161.49 114.732C161.346 114.771 161.221 114.828 161.115 114.902C161.014 114.977 160.934 115.066 160.875 115.172C160.82 115.273 160.793 115.387 160.793 115.512C160.793 115.668 160.82 115.799 160.875 115.904C160.934 116.01 161.018 116.104 161.127 116.186C161.236 116.268 161.369 116.342 161.525 116.408C161.682 116.475 161.859 116.547 162.059 116.625C162.324 116.727 162.562 116.832 162.773 116.941C162.984 117.047 163.164 117.168 163.312 117.305C163.461 117.438 163.574 117.592 163.652 117.768C163.734 117.943 163.775 118.152 163.775 118.395C163.775 118.691 163.709 118.949 163.576 119.168C163.447 119.387 163.273 119.568 163.055 119.713C162.836 119.857 162.584 119.965 162.299 120.035C162.014 120.105 161.715 120.141 161.402 120.141C160.785 120.141 160.25 120.021 159.797 119.783ZM168.041 119.941C167.814 120.066 167.516 120.129 167.145 120.129C166.094 120.129 165.568 119.543 165.568 118.371V114.82H164.537V114H165.568V112.535L166.529 112.225V114H168.041V114.82H166.529V118.201C166.529 118.604 166.598 118.891 166.734 119.062C166.871 119.234 167.098 119.32 167.414 119.32C167.656 119.32 167.865 119.254 168.041 119.121V119.941ZM174.146 117.24H169.91C169.926 117.908 170.105 118.424 170.449 118.787C170.793 119.15 171.266 119.332 171.867 119.332C172.543 119.332 173.164 119.109 173.73 118.664V119.566C173.203 119.949 172.506 120.141 171.639 120.141C170.791 120.141 170.125 119.869 169.641 119.326C169.156 118.779 168.914 118.012 168.914 117.023C168.914 116.09 169.178 115.33 169.705 114.744C170.236 114.154 170.895 113.859 171.68 113.859C172.465 113.859 173.072 114.113 173.502 114.621C173.932 115.129 174.146 115.834 174.146 116.736V117.24ZM173.162 116.426C173.158 115.871 173.023 115.439 172.758 115.131C172.496 114.822 172.131 114.668 171.662 114.668C171.209 114.668 170.824 114.83 170.508 115.154C170.191 115.479 169.996 115.902 169.922 116.426H173.162ZM176.566 120H175.605V111.117H176.566V120ZM181.541 119.66V118.5C181.674 118.617 181.832 118.723 182.016 118.816C182.203 118.91 182.398 118.99 182.602 119.057C182.809 119.119 183.016 119.168 183.223 119.203C183.43 119.238 183.621 119.256 183.797 119.256C184.402 119.256 184.854 119.145 185.15 118.922C185.451 118.695 185.602 118.371 185.602 117.949C185.602 117.723 185.551 117.525 185.449 117.357C185.352 117.189 185.215 117.037 185.039 116.9C184.863 116.76 184.654 116.627 184.412 116.502C184.174 116.373 183.916 116.238 183.639 116.098C183.346 115.949 183.072 115.799 182.818 115.646C182.564 115.494 182.344 115.326 182.156 115.143C181.969 114.959 181.82 114.752 181.711 114.521C181.605 114.287 181.553 114.014 181.553 113.701C181.553 113.318 181.637 112.986 181.805 112.705C181.973 112.42 182.193 112.186 182.467 112.002C182.74 111.818 183.051 111.682 183.398 111.592C183.75 111.502 184.107 111.457 184.471 111.457C185.299 111.457 185.902 111.557 186.281 111.756V112.863C185.785 112.52 185.148 112.348 184.371 112.348C184.156 112.348 183.941 112.371 183.727 112.418C183.512 112.461 183.32 112.533 183.152 112.635C182.984 112.736 182.848 112.867 182.742 113.027C182.637 113.188 182.584 113.383 182.584 113.613C182.584 113.828 182.623 114.014 182.701 114.17C182.783 114.326 182.902 114.469 183.059 114.598C183.215 114.727 183.404 114.852 183.627 114.973C183.854 115.094 184.113 115.227 184.406 115.371C184.707 115.52 184.992 115.676 185.262 115.84C185.531 116.004 185.768 116.186 185.971 116.385C186.174 116.584 186.334 116.805 186.451 117.047C186.572 117.289 186.633 117.566 186.633 117.879C186.633 118.293 186.551 118.645 186.387 118.934C186.227 119.219 186.008 119.451 185.73 119.631C185.457 119.811 185.141 119.939 184.781 120.018C184.422 120.1 184.043 120.141 183.645 120.141C183.512 120.141 183.348 120.129 183.152 120.105C182.957 120.086 182.758 120.055 182.555 120.012C182.352 119.973 182.158 119.924 181.975 119.865C181.795 119.803 181.65 119.734 181.541 119.66ZM188.672 112.477C188.5 112.477 188.354 112.418 188.232 112.301C188.111 112.184 188.051 112.035 188.051 111.855C188.051 111.676 188.111 111.527 188.232 111.41C188.354 111.289 188.5 111.229 188.672 111.229C188.848 111.229 188.996 111.289 189.117 111.41C189.242 111.527 189.305 111.676 189.305 111.855C189.305 112.027 189.242 112.174 189.117 112.295C188.996 112.416 188.848 112.477 188.672 112.477ZM189.141 120H188.18V114H189.141V120ZM190.723 119.783V118.752C191.246 119.139 191.822 119.332 192.451 119.332C193.295 119.332 193.717 119.051 193.717 118.488C193.717 118.328 193.68 118.193 193.605 118.084C193.535 117.971 193.438 117.871 193.312 117.785C193.191 117.699 193.047 117.623 192.879 117.557C192.715 117.486 192.537 117.414 192.346 117.34C192.08 117.234 191.846 117.129 191.643 117.023C191.443 116.914 191.275 116.793 191.139 116.66C191.006 116.523 190.904 116.369 190.834 116.197C190.768 116.025 190.734 115.824 190.734 115.594C190.734 115.312 190.799 115.064 190.928 114.85C191.057 114.631 191.229 114.449 191.443 114.305C191.658 114.156 191.902 114.045 192.176 113.971C192.453 113.896 192.738 113.859 193.031 113.859C193.551 113.859 194.016 113.949 194.426 114.129V115.102C193.984 114.812 193.477 114.668 192.902 114.668C192.723 114.668 192.561 114.689 192.416 114.732C192.271 114.771 192.146 114.828 192.041 114.902C191.939 114.977 191.859 115.066 191.801 115.172C191.746 115.273 191.719 115.387 191.719 115.512C191.719 115.668 191.746 115.799 191.801 115.904C191.859 116.01 191.943 116.104 192.053 116.186C192.162 116.268 192.295 116.342 192.451 116.408C192.607 116.475 192.785 116.547 192.984 116.625C193.25 116.727 193.488 116.832 193.699 116.941C193.91 117.047 194.09 117.168 194.238 117.305C194.387 117.438 194.5 117.592 194.578 117.768C194.66 117.943 194.701 118.152 194.701 118.395C194.701 118.691 194.635 118.949 194.502 119.168C194.373 119.387 194.199 119.568 193.98 119.713C193.762 119.857 193.51 119.965 193.225 120.035C192.939 120.105 192.641 120.141 192.328 120.141C191.711 120.141 191.176 120.021 190.723 119.783ZM195.82 119.783V118.752C196.344 119.139 196.92 119.332 197.549 119.332C198.393 119.332 198.814 119.051 198.814 118.488C198.814 118.328 198.777 118.193 198.703 118.084C198.633 117.971 198.535 117.871 198.41 117.785C198.289 117.699 198.145 117.623 197.977 117.557C197.812 117.486 197.635 117.414 197.443 117.34C197.178 117.234 196.943 117.129 196.74 117.023C196.541 116.914 196.373 116.793 196.236 116.66C196.104 116.523 196.002 116.369 195.932 116.197C195.865 116.025 195.832 115.824 195.832 115.594C195.832 115.312 195.896 115.064 196.025 114.85C196.154 114.631 196.326 114.449 196.541 114.305C196.756 114.156 197 114.045 197.273 113.971C197.551 113.896 197.836 113.859 198.129 113.859C198.648 113.859 199.113 113.949 199.523 114.129V115.102C199.082 114.812 198.574 114.668 198 114.668C197.82 114.668 197.658 114.689 197.514 114.732C197.369 114.771 197.244 114.828 197.139 114.902C197.037 114.977 196.957 115.066 196.898 115.172C196.844 115.273 196.816 115.387 196.816 115.512C196.816 115.668 196.844 115.799 196.898 115.904C196.957 116.01 197.041 116.104 197.15 116.186C197.26 116.268 197.393 116.342 197.549 116.408C197.705 116.475 197.883 116.547 198.082 116.625C198.348 116.727 198.586 116.832 198.797 116.941C199.008 117.047 199.188 117.168 199.336 117.305C199.484 117.438 199.598 117.592 199.676 117.768C199.758 117.943 199.799 118.152 199.799 118.395C199.799 118.691 199.732 118.949 199.6 119.168C199.471 119.387 199.297 119.568 199.078 119.713C198.859 119.857 198.607 119.965 198.322 120.035C198.037 120.105 197.738 120.141 197.426 120.141C196.809 120.141 196.273 120.021 195.82 119.783ZM206.133 120H205.172V119.051H205.148C204.75 119.777 204.133 120.141 203.297 120.141C201.867 120.141 201.152 119.289 201.152 117.586V114H202.107V117.434C202.107 118.699 202.592 119.332 203.561 119.332C204.029 119.332 204.414 119.16 204.715 118.816C205.02 118.469 205.172 118.016 205.172 117.457V114H206.133V120ZM219.105 117.035H207.105V116.279H219.105V117.035ZM224.086 111.598V117.146H225.164V118.025H224.086V120H223.137V118.025H219.188V117.193C219.555 116.779 219.926 116.338 220.301 115.869C220.676 115.396 221.033 114.918 221.373 114.434C221.717 113.949 222.033 113.467 222.322 112.986C222.615 112.502 222.861 112.039 223.061 111.598H224.086ZM220.271 117.146H223.137V113.033C222.844 113.545 222.566 114.002 222.305 114.404C222.043 114.807 221.793 115.172 221.555 115.5C221.32 115.828 221.096 116.125 220.881 116.391C220.666 116.656 220.463 116.908 220.271 117.146ZM231.551 115.764C231.551 116.467 231.486 117.09 231.357 117.633C231.232 118.176 231.049 118.635 230.807 119.01C230.568 119.381 230.273 119.664 229.922 119.859C229.574 120.051 229.178 120.146 228.732 120.146C228.311 120.146 227.934 120.055 227.602 119.871C227.273 119.684 226.996 119.412 226.77 119.057C226.543 118.701 226.371 118.266 226.254 117.75C226.137 117.23 226.078 116.637 226.078 115.969C226.078 115.234 226.139 114.586 226.26 114.023C226.385 113.461 226.566 112.99 226.805 112.611C227.043 112.229 227.338 111.941 227.689 111.75C228.045 111.555 228.451 111.457 228.908 111.457C230.67 111.457 231.551 112.893 231.551 115.764ZM230.566 115.857C230.566 113.467 229.998 112.271 228.861 112.271C227.662 112.271 227.062 113.488 227.062 115.922C227.062 118.191 227.65 119.326 228.826 119.326C229.986 119.326 230.566 118.17 230.566 115.857ZM17.9531 138H16.6055L13.957 135.117H13.9336V138H12.9727V129.117H13.9336V134.748H13.957L16.4766 132H17.7363L14.9531 134.895L17.9531 138ZM27.457 138H26.4961V134.555C26.4961 133.891 26.3926 133.41 26.1855 133.113C25.9824 132.816 25.6387 132.668 25.1543 132.668C24.7441 132.668 24.3945 132.855 24.1055 133.23C23.8203 133.605 23.6777 134.055 23.6777 134.578V138H22.7168V134.438C22.7168 133.258 22.2617 132.668 21.3516 132.668C20.9297 132.668 20.582 132.846 20.3086 133.201C20.0352 133.553 19.8984 134.012 19.8984 134.578V138H18.9375V132H19.8984V132.949H19.9219C20.3477 132.223 20.9688 131.859 21.7852 131.859C22.1953 131.859 22.5527 131.975 22.8574 132.205C23.1621 132.432 23.3711 132.73 23.4844 133.102C23.9297 132.273 24.5938 131.859 25.4766 131.859C26.7969 131.859 27.457 132.674 27.457 134.303V138ZM35.5312 129.961C35.3438 129.855 35.1309 129.803 34.8926 129.803C34.2207 129.803 33.8848 130.227 33.8848 131.074V132H35.291V132.82H33.8848V138H32.9297V132.82H31.9043V132H32.9297V131.027C32.9297 130.398 33.1113 129.902 33.4746 129.539C33.8379 129.172 34.291 128.988 34.834 128.988C35.127 128.988 35.3594 129.023 35.5312 129.094V129.961ZM39.457 132.973C39.2891 132.844 39.0469 132.779 38.7305 132.779C38.3203 132.779 37.9766 132.973 37.6992 133.359C37.4258 133.746 37.2891 134.273 37.2891 134.941V138H36.3281V132H37.2891V133.236H37.3125C37.4492 132.814 37.6582 132.486 37.9395 132.252C38.2207 132.014 38.5352 131.895 38.8828 131.895C39.1328 131.895 39.3242 131.922 39.457 131.977V132.973ZM43.0078 138.141C42.1211 138.141 41.4121 137.861 40.8809 137.303C40.3535 136.74 40.0898 135.996 40.0898 135.07C40.0898 134.062 40.3652 133.275 40.916 132.709C41.4668 132.143 42.2109 131.859 43.1484 131.859C44.043 131.859 44.7402 132.135 45.2402 132.686C45.7441 133.236 45.9961 134 45.9961 134.977C45.9961 135.934 45.7246 136.701 45.1816 137.279C44.6426 137.854 43.918 138.141 43.0078 138.141ZM43.0781 132.668C42.4609 132.668 41.9727 132.879 41.6133 133.301C41.2539 133.719 41.0742 134.297 41.0742 135.035C41.0742 135.746 41.2559 136.307 41.6191 136.717C41.9824 137.127 42.4688 137.332 43.0781 137.332C43.6992 137.332 44.1758 137.131 44.5078 136.729C44.8438 136.326 45.0117 135.754 45.0117 135.012C45.0117 134.262 44.8438 133.684 44.5078 133.277C44.1758 132.871 43.6992 132.668 43.0781 132.668ZM56.0508 138H55.0898V134.555C55.0898 133.891 54.9863 133.41 54.7793 133.113C54.5762 132.816 54.2324 132.668 53.748 132.668C53.3379 132.668 52.9883 132.855 52.6992 133.23C52.4141 133.605 52.2715 134.055 52.2715 134.578V138H51.3105V134.438C51.3105 133.258 50.8555 132.668 49.9453 132.668C49.5234 132.668 49.1758 132.846 48.9023 133.201C48.6289 133.553 48.4922 134.012 48.4922 134.578V138H47.5312V132H48.4922V132.949H48.5156C48.9414 132.223 49.5625 131.859 50.3789 131.859C50.7891 131.859 51.1465 131.975 51.4512 132.205C51.7559 132.432 51.9648 132.73 52.0781 133.102C52.5234 132.273 53.1875 131.859 54.0703 131.859C55.3906 131.859 56.0508 132.674 56.0508 134.303V138ZM69.8555 138H68.877V132.363C68.877 131.918 68.9043 131.373 68.959 130.729H68.9355C68.8418 131.107 68.7578 131.379 68.6836 131.543L65.8125 138H65.332L62.4668 131.59C62.3848 131.402 62.3008 131.115 62.2148 130.729H62.1914C62.2227 131.064 62.2383 131.613 62.2383 132.375V138H61.2891V129.598H62.5898L65.168 135.457C65.3672 135.906 65.4961 136.242 65.5547 136.465H65.5898C65.7578 136.004 65.8926 135.66 65.9941 135.434L68.625 129.598H69.8555V138ZM76.2363 138H75.2754V137.062H75.252C74.834 137.781 74.2188 138.141 73.4062 138.141C72.8086 138.141 72.3398 137.982 72 137.666C71.6641 137.35 71.4961 136.93 71.4961 136.406C71.4961 135.285 72.1562 134.633 73.4766 134.449L75.2754 134.197C75.2754 133.178 74.8633 132.668 74.0391 132.668C73.3164 132.668 72.6641 132.914 72.082 133.406V132.422C72.6719 132.047 73.3516 131.859 74.1211 131.859C75.5312 131.859 76.2363 132.605 76.2363 134.098V138ZM75.2754 134.965L73.8281 135.164C73.3828 135.227 73.0469 135.338 72.8203 135.498C72.5938 135.654 72.4805 135.934 72.4805 136.336C72.4805 136.629 72.584 136.869 72.791 137.057C73.002 137.24 73.2812 137.332 73.6289 137.332C74.1055 137.332 74.498 137.166 74.8066 136.834C75.1191 136.498 75.2754 136.074 75.2754 135.562V134.965ZM83.0273 138H82.0664V134.578C82.0664 133.305 81.6016 132.668 80.6719 132.668C80.1914 132.668 79.793 132.85 79.4766 133.213C79.1641 133.572 79.0078 134.027 79.0078 134.578V138H78.0469V132H79.0078V132.996H79.0312C79.4844 132.238 80.1406 131.859 81 131.859C81.6562 131.859 82.1582 132.072 82.5059 132.498C82.8535 132.92 83.0273 133.531 83.0273 134.332V138ZM89.1387 138H88.1777V137.062H88.1543C87.7363 137.781 87.1211 138.141 86.3086 138.141C85.7109 138.141 85.2422 137.982 84.9023 137.666C84.5664 137.35 84.3984 136.93 84.3984 136.406C84.3984 135.285 85.0586 134.633 86.3789 134.449L88.1777 134.197C88.1777 133.178 87.7656 132.668 86.9414 132.668C86.2188 132.668 85.5664 132.914 84.9844 133.406V132.422C85.5742 132.047 86.2539 131.859 87.0234 131.859C88.4336 131.859 89.1387 132.605 89.1387 134.098V138ZM88.1777 134.965L86.7305 135.164C86.2852 135.227 85.9492 135.338 85.7227 135.498C85.4961 135.654 85.3828 135.934 85.3828 136.336C85.3828 136.629 85.4863 136.869 85.6934 137.057C85.9043 137.24 86.1836 137.332 86.5312 137.332C87.0078 137.332 87.4004 137.166 87.709 136.834C88.0215 136.498 88.1777 136.074 88.1777 135.562V134.965ZM91.9102 138H90.9492V129.117H91.9102V138ZM94.3477 130.477C94.1758 130.477 94.0293 130.418 93.9082 130.301C93.7871 130.184 93.7266 130.035 93.7266 129.855C93.7266 129.676 93.7871 129.527 93.9082 129.41C94.0293 129.289 94.1758 129.229 94.3477 129.229C94.5234 129.229 94.6719 129.289 94.793 129.41C94.918 129.527 94.9805 129.676 94.9805 129.855C94.9805 130.027 94.918 130.174 94.793 130.295C94.6719 130.416 94.5234 130.477 94.3477 130.477ZM94.8164 138H93.8555V132H94.8164V138ZM97.0957 138.129C96.916 138.129 96.7617 138.064 96.6328 137.936C96.5078 137.807 96.4453 137.652 96.4453 137.473C96.4453 137.293 96.5078 137.139 96.6328 137.01C96.7617 136.877 96.916 136.811 97.0957 136.811C97.2793 136.811 97.4355 136.877 97.5645 137.01C97.6934 137.139 97.7578 137.293 97.7578 137.473C97.7578 137.652 97.6934 137.807 97.5645 137.936C97.4355 138.064 97.2793 138.129 97.0957 138.129Z" fill="#808080"/>
<path d="M12 220H249V268H12V220Z" fill="#F1563F"/>
<path d="M98.1074 249V238.979H105.354V240.161H99.4336V243.23H104.978V244.406H99.4336V247.817H105.586V249H98.1074ZM106.399 249L110.275 243.777L106.857 238.979H108.437L110.255 241.549C110.633 242.082 110.902 242.492 111.062 242.779C111.285 242.415 111.549 242.034 111.854 241.638L113.871 238.979H115.313L111.793 243.702L115.587 249H113.946L111.424 245.425C111.283 245.22 111.137 244.996 110.986 244.755C110.763 245.119 110.604 245.37 110.508 245.507L107.992 249H106.399ZM116.756 249V238.979H120.536C121.201 238.979 121.71 239.01 122.061 239.074C122.553 239.156 122.965 239.313 123.298 239.546C123.631 239.774 123.897 240.095 124.098 240.51C124.303 240.924 124.405 241.38 124.405 241.877C124.405 242.729 124.134 243.451 123.592 244.044C123.049 244.632 122.07 244.926 120.652 244.926H118.082V249H116.756ZM118.082 243.743H120.673C121.53 243.743 122.138 243.584 122.498 243.265C122.858 242.946 123.038 242.497 123.038 241.918C123.038 241.499 122.931 241.141 122.717 240.845C122.507 240.544 122.229 240.346 121.883 240.25C121.66 240.191 121.247 240.161 120.646 240.161H118.082V243.743ZM126.039 249V238.979H127.365V247.817H132.301V249H126.039ZM133.483 244.119C133.483 242.456 133.93 241.155 134.823 240.216C135.716 239.272 136.869 238.801 138.282 238.801C139.207 238.801 140.041 239.022 140.784 239.464C141.527 239.906 142.092 240.523 142.479 241.316C142.871 242.105 143.067 243 143.067 244.003C143.067 245.019 142.862 245.928 142.452 246.73C142.042 247.533 141.461 248.141 140.709 248.556C139.957 248.966 139.146 249.171 138.275 249.171C137.332 249.171 136.489 248.943 135.746 248.487C135.003 248.032 134.44 247.41 134.058 246.621C133.675 245.833 133.483 244.999 133.483 244.119ZM134.851 244.14C134.851 245.347 135.174 246.3 135.821 246.997C136.473 247.69 137.289 248.036 138.269 248.036C139.267 248.036 140.087 247.685 140.729 246.983C141.377 246.282 141.7 245.286 141.7 243.996C141.7 243.18 141.561 242.469 141.283 241.863C141.01 241.253 140.606 240.781 140.073 240.448C139.545 240.111 138.95 239.942 138.289 239.942C137.35 239.942 136.541 240.266 135.862 240.913C135.188 241.556 134.851 242.631 134.851 244.14ZM144.804 249V238.979H149.247C150.14 238.979 150.819 239.07 151.284 239.252C151.749 239.43 152.12 239.746 152.398 240.202C152.676 240.658 152.815 241.161 152.815 241.713C152.815 242.424 152.585 243.023 152.125 243.511C151.665 243.998 150.954 244.308 149.992 244.44C150.343 244.609 150.61 244.775 150.792 244.939C151.179 245.295 151.546 245.739 151.893 246.272L153.636 249H151.968L150.642 246.915C150.254 246.313 149.935 245.853 149.685 245.534C149.434 245.215 149.208 244.992 149.008 244.864C148.812 244.737 148.611 244.648 148.406 244.598C148.256 244.566 148.01 244.55 147.668 244.55H146.13V249H144.804ZM146.13 243.401H148.98C149.587 243.401 150.061 243.34 150.402 243.217C150.744 243.089 151.004 242.889 151.182 242.615C151.359 242.337 151.448 242.036 151.448 241.713C151.448 241.239 151.275 240.849 150.929 240.544C150.587 240.239 150.045 240.086 149.302 240.086H146.13V243.401ZM154.928 249V238.979H162.174V240.161H156.254V243.23H161.798V244.406H156.254V247.817H162.406V249H154.928Z" fill="white"/>
</g>
<defs>
<filter id="filter0_d_1151_3296" x="0" y="0" width="261" height="281" filterUnits="userSpaceOnUse" color-interpolation-filters="sRGB">
<feFlood flood-opacity="0" result="BackgroundImageFix"/>
<feColorMatrix in="SourceAlpha" type="matrix" values="0 0 0 0 0 0 0 0 0 0 0 0 0 0 0 0 0 0 127 0" result="hardAlpha"/>
<feOffset dy="1"/>
<feComposite in2="hardAlpha" operator="out"/>
<feColorMatrix type="matrix" values="0 0 0 0 0.945098 0 0 0 0 0.337255 0 0 0 0 0.247059 0 0 0 1 0"/>
<feBlend mode="normal" in2="BackgroundImageFix" result="effect1_dropShadow_1151_3296"/>
<feBlend mode="normal" in="SourceGraphic" in2="effect1_dropShadow_1151_3296" result="shape"/>
</filter>
</defs>
</svg>
