<svg width="56" height="56" viewBox="0 0 56 56" fill="none" xmlns="http://www.w3.org/2000/svg">
<path fill-rule="evenodd" clip-rule="evenodd" d="M21.4035 32.2931L9.82456 52.5807L23.9298 52.9607V50.0733H20L27.6491 36.2442L38.4561 56L45.6842 43.6906L43.3684 42.019L41.193 45.6662L34.4561 32.749H56L48.9825 19.4518L46.386 20.9715L48.2807 24.6187H33.5439L44.7018 4.25509H30.5965V6.9905H34.807L28.1404 19.9077L17.9649 0L10.5263 12.3094L12.7719 13.829L14.5263 10.7897L21.614 24.3148H0L6.45614 37.308L8.8421 35.6364L7.29825 32.2931H21.4035ZM16.2807 8.05428L26.1509 27.2022H4.35091L5.68424 29.7856H25.1466L14.1755 50.0733H16.9123L27.694 30.1957L38.1754 50.5292L39.6491 48.1737L30.2712 29.7856H51.1579L49.8948 27.2022H29.3177L40.2807 6.99052H37.4737L27.7839 24.9087L17.7544 5.24288L16.2807 8.05428Z" fill="#F45C24"/>
</svg>
